<?xml version="1.0" encoding="UTF-8" standalone="no"?>
<!DOCTYPE svg PUBLIC "-//W3C//DTD SVG 1.1//EN"
 "http://www.w3.org/Graphics/SVG/1.1/DTD/svg11.dtd">
<!-- Generated by graphviz version 2.40.1 (20161225.0304)
 -->
<!-- Title: %3 Pages: 1 -->
<svg width="428pt" height="550pt"
 viewBox="0.00 0.00 428.08 550.00" xmlns="http://www.w3.org/2000/svg" xmlns:xlink="http://www.w3.org/1999/xlink">
<g id="graph0" class="graph" transform="scale(1 1) rotate(0) translate(4 546)">
<title>%3</title>
<polygon fill="#ffffff" stroke="transparent" points="-4,4 -4,-546 424.0796,-546 424.0796,4 -4,4"/>
<!-- 2274675410481489075 -->
<!-- 821303785892311371 -->
<!-- 2274675410481489075&#45;&gt;821303785892311371 -->
<!-- 5465509879779613120 -->
<g id="node2" class="node">
<title>5465509879779613120</title>
<path fill="none" stroke="#000000" stroke-width=".25" d="M321.8016,-542C321.8016,-542 282.716,-542 282.716,-542 279.0493,-542 275.3827,-538.3333 275.3827,-534.6667 275.3827,-534.6667 275.3827,-527.3333 275.3827,-527.3333 275.3827,-523.6667 279.0493,-520 282.716,-520 282.716,-520 321.8016,-520 321.8016,-520 325.4682,-520 329.1349,-523.6667 329.1349,-527.3333 329.1349,-527.3333 329.1349,-534.6667 329.1349,-534.6667 329.1349,-538.3333 325.4682,-542 321.8016,-542"/>
<text text-anchor="middle" x="302.2588" y="-526.8" font-family="Times,serif" font-size="14.00" fill="#000000">Number</text>
</g>
<!-- &#45;727837013359756522 -->
<g id="node4" class="node">
<title>&#45;727837013359756522</title>
<path fill="none" stroke="#000000" stroke-width=".25" d="M290.3016,-502C290.3016,-502 244.216,-502 244.216,-502 240.5494,-502 236.8827,-498.3333 236.8827,-494.6667 236.8827,-494.6667 236.8827,-487.3333 236.8827,-487.3333 236.8827,-483.6667 240.5494,-480 244.216,-480 244.216,-480 290.3016,-480 290.3016,-480 293.9682,-480 297.6349,-483.6667 297.6349,-487.3333 297.6349,-487.3333 297.6349,-494.6667 297.6349,-494.6667 297.6349,-498.3333 293.9682,-502 290.3016,-502"/>
<text text-anchor="middle" x="267.2588" y="-486.8" font-family="Times,serif" font-size="14.00" fill="#000000">Number1</text>
</g>
<!-- 5465509879779613120&#45;&gt;&#45;727837013359756522 -->
<g id="edge2" class="edge">
<title>5465509879779613120&#45;&gt;&#45;727837013359756522</title>
<path fill="none" stroke="#000000" stroke-width=".5" d="M292.3228,-519.6446C287.5532,-514.1937 281.8554,-507.6819 277.0985,-502.2453"/>
</g>
<!-- &#45;4713896118308499621 -->
<g id="node5" class="node">
<title>&#45;4713896118308499621</title>
<path fill="none" stroke="#000000" stroke-width=".25" d="M351.405,-502C351.405,-502 323.1126,-502 323.1126,-502 319.446,-502 315.7793,-498.3333 315.7793,-494.6667 315.7793,-494.6667 315.7793,-487.3333 315.7793,-487.3333 315.7793,-483.6667 319.446,-480 323.1126,-480 323.1126,-480 351.405,-480 351.405,-480 355.0716,-480 358.7383,-483.6667 358.7383,-487.3333 358.7383,-487.3333 358.7383,-494.6667 358.7383,-494.6667 358.7383,-498.3333 355.0716,-502 351.405,-502"/>
<text text-anchor="middle" x="337.2588" y="-486.8" font-family="Times,serif" font-size="14.00" fill="#000000">Scale’</text>
</g>
<!-- 5465509879779613120&#45;&gt;&#45;4713896118308499621 -->
<g id="edge3" class="edge">
<title>5465509879779613120&#45;&gt;&#45;4713896118308499621</title>
<path fill="none" stroke="#000000" stroke-width=".5" d="M312.1948,-519.6446C316.9643,-514.1937 322.6621,-507.6819 327.4191,-502.2453"/>
</g>
<!-- &#45;5669898871303867245 -->
<!-- 821303785892311371&#45;&gt;&#45;5669898871303867245 -->
<!-- &#45;727837013359756522&#45;&gt;&#45;4713896118308499621 -->
<!-- 5508583170872738663 -->
<g id="node7" class="node">
<title>5508583170872738663</title>
<path fill="none" stroke="#000000" stroke-width=".25" d="M215.5684,-462C215.5684,-462 182.9492,-462 182.9492,-462 179.2825,-462 175.6158,-458.3333 175.6158,-454.6667 175.6158,-454.6667 175.6158,-447.3333 175.6158,-447.3333 175.6158,-443.6667 179.2825,-440 182.9492,-440 182.9492,-440 215.5684,-440 215.5684,-440 219.2351,-440 222.9017,-443.6667 222.9017,-447.3333 222.9017,-447.3333 222.9017,-454.6667 222.9017,-454.6667 222.9017,-458.3333 219.2351,-462 215.5684,-462"/>
<text text-anchor="middle" x="199.2588" y="-446.8" font-family="Times,serif" font-size="14.00" fill="#000000">Integer</text>
</g>
<!-- &#45;727837013359756522&#45;&gt;5508583170872738663 -->
<g id="edge6" class="edge">
<title>&#45;727837013359756522&#45;&gt;5508583170872738663</title>
<path fill="none" stroke="#000000" stroke-width=".5" d="M248.317,-479.8578C238.8854,-474.3098 227.5166,-467.6222 218.099,-462.0825"/>
</g>
<!-- 6878044224468587708 -->
<g id="node8" class="node">
<title>6878044224468587708</title>
<path fill="none" stroke="#000000" stroke-width=".25" d="M288.0818,-462C288.0818,-462 248.4358,-462 248.4358,-462 244.7691,-462 241.1024,-458.3333 241.1024,-454.6667 241.1024,-454.6667 241.1024,-447.3333 241.1024,-447.3333 241.1024,-443.6667 244.7691,-440 248.4358,-440 248.4358,-440 288.0818,-440 288.0818,-440 291.7485,-440 295.4151,-443.6667 295.4151,-447.3333 295.4151,-447.3333 295.4151,-454.6667 295.4151,-454.6667 295.4151,-458.3333 291.7485,-462 288.0818,-462"/>
<text text-anchor="middle" x="268.2588" y="-446.8" font-family="Times,serif" font-size="14.00" fill="#000000">Fraction</text>
</g>
<!-- &#45;727837013359756522&#45;&gt;6878044224468587708 -->
<g id="edge7" class="edge">
<title>&#45;727837013359756522&#45;&gt;6878044224468587708</title>
<path fill="none" stroke="#000000" stroke-width=".5" d="M267.5427,-479.6446C267.6789,-474.1937 267.8417,-467.6819 267.9777,-462.2453"/>
</g>
<!-- 2723187422335161074 -->
<g id="node24" class="node">
<title>2723187422335161074</title>
<path fill="none" stroke="#000000" stroke-width=".25" d="M346.905,-182C346.905,-182 311.6126,-182 311.6126,-182 307.946,-182 304.2793,-178.3333 304.2793,-174.6667 304.2793,-174.6667 304.2793,-167.3333 304.2793,-167.3333 304.2793,-163.6667 307.946,-160 311.6126,-160 311.6126,-160 346.905,-160 346.905,-160 350.5716,-160 354.2383,-163.6667 354.2383,-167.3333 354.2383,-167.3333 354.2383,-174.6667 354.2383,-174.6667 354.2383,-178.3333 350.5716,-182 346.905,-182"/>
<text text-anchor="middle" x="329.2588" y="-166.8" font-family="Times,serif" font-size="14.00" fill="#000000">Scale’1</text>
</g>
<!-- &#45;4713896118308499621&#45;&gt;2723187422335161074 -->
<g id="edge26" class="edge">
<title>&#45;4713896118308499621&#45;&gt;2723187422335161074</title>
<path fill="none" stroke="#000000" stroke-width=".5" d="M337.2588,-479.87C337.2588,-464.4159 337.2588,-435.5833 337.2588,-411 337.2588,-411 337.2588,-411 337.2588,-251 337.2588,-226.2941 333.4344,-197.5084 331.0741,-182.095"/>
</g>
<!-- 5508597044038560667 -->
<g id="node25" class="node">
<title>5508597044038560667</title>
<path fill="none" stroke="#000000" stroke-width=".25" d="M412.5684,-182C412.5684,-182 379.9492,-182 379.9492,-182 376.2825,-182 372.6158,-178.3333 372.6158,-174.6667 372.6158,-174.6667 372.6158,-167.3333 372.6158,-167.3333 372.6158,-163.6667 376.2825,-160 379.9492,-160 379.9492,-160 412.5684,-160 412.5684,-160 416.2351,-160 419.9017,-163.6667 419.9017,-167.3333 419.9017,-167.3333 419.9017,-174.6667 419.9017,-174.6667 419.9017,-178.3333 416.2351,-182 412.5684,-182"/>
<text text-anchor="middle" x="396.2588" y="-166.8" font-family="Times,serif" font-size="14.00" fill="#000000">Integer</text>
</g>
<!-- &#45;4713896118308499621&#45;&gt;5508597044038560667 -->
<g id="edge27" class="edge">
<title>&#45;4713896118308499621&#45;&gt;5508597044038560667</title>
<path fill="none" stroke="#000000" stroke-width=".5" d="M348.3824,-479.9184C361.7082,-465.4107 382.2588,-438.5682 382.2588,-411 382.2588,-411 382.2588,-411 382.2588,-251 382.2588,-226.0431 388.9514,-197.3535 393.082,-182.0233"/>
</g>
<!-- 7561231962254181255 -->
<!-- &#45;5669898871303867245&#45;&gt;7561231962254181255 -->
<!-- 5508583170872738663&#45;&gt;6878044224468587708 -->
<!-- 5508584432069737486 -->
<g id="node10" class="node">
<title>5508584432069737486</title>
<path fill="none" stroke="#000000" stroke-width=".25" d="M155.5684,-422C155.5684,-422 122.9492,-422 122.9492,-422 119.2825,-422 115.6158,-418.3333 115.6158,-414.6667 115.6158,-414.6667 115.6158,-407.3333 115.6158,-407.3333 115.6158,-403.6667 119.2825,-400 122.9492,-400 122.9492,-400 155.5684,-400 155.5684,-400 159.2351,-400 162.9017,-403.6667 162.9017,-407.3333 162.9017,-407.3333 162.9017,-414.6667 162.9017,-414.6667 162.9017,-418.3333 159.2351,-422 155.5684,-422"/>
<text text-anchor="middle" x="139.2588" y="-406.8" font-family="Times,serif" font-size="14.00" fill="#000000">Integer</text>
</g>
<!-- 5508583170872738663&#45;&gt;5508584432069737486 -->
<g id="edge10" class="edge">
<title>5508583170872738663&#45;&gt;5508584432069737486</title>
<path fill="none" stroke="#000000" stroke-width=".5" d="M182.5454,-439.8578C174.2235,-434.3098 164.1921,-427.6222 155.8825,-422.0825"/>
</g>
<!-- 4406523470758929421 -->
<g id="node11" class="node">
<title>4406523470758929421</title>
<path fill="none" stroke="#000000" stroke-width=".25" d="M210.2054,-422C210.2054,-422 188.3122,-422 188.3122,-422 184.6455,-422 180.9788,-418.3333 180.9788,-414.6667 180.9788,-414.6667 180.9788,-407.3333 180.9788,-407.3333 180.9788,-403.6667 184.6455,-400 188.3122,-400 188.3122,-400 210.2054,-400 210.2054,-400 213.8721,-400 217.5387,-403.6667 217.5387,-407.3333 217.5387,-407.3333 217.5387,-414.6667 217.5387,-414.6667 217.5387,-418.3333 213.8721,-422 210.2054,-422"/>
<text text-anchor="middle" x="199.2588" y="-406.8" font-family="Times,serif" font-size="14.00" fill="#000000">Digit</text>
</g>
<!-- 5508583170872738663&#45;&gt;4406523470758929421 -->
<g id="edge11" class="edge">
<title>5508583170872738663&#45;&gt;4406523470758929421</title>
<path fill="none" stroke="#000000" stroke-width=".5" d="M199.2588,-439.6446C199.2588,-434.1937 199.2588,-427.6819 199.2588,-422.2453"/>
</g>
<!-- 3464748826049562994 -->
<g id="node17" class="node">
<title>3464748826049562994</title>
<path fill="none" stroke="#000000" stroke-width=".25" d="M235.7967,-302C235.7967,-302 228.7209,-302 228.7209,-302 225.1829,-302 221.645,-298.4621 221.645,-294.9241 221.645,-294.9241 221.645,-287.0759 221.645,-287.0759 221.645,-283.5379 225.1829,-280 228.7209,-280 228.7209,-280 235.7967,-280 235.7967,-280 239.3347,-280 242.8726,-283.5379 242.8726,-287.0759 242.8726,-287.0759 242.8726,-294.9241 242.8726,-294.9241 242.8726,-298.4621 239.3347,-302 235.7967,-302"/>
<text text-anchor="middle" x="232.2588" y="-286.8" font-family="Times,serif" font-size="14.00" fill="#000000">N.</text>
</g>
<!-- 6878044224468587708&#45;&gt;3464748826049562994 -->
<g id="edge18" class="edge">
<title>6878044224468587708&#45;&gt;3464748826049562994</title>
<path fill="none" stroke="#000000" stroke-width=".5" d="M265.7273,-439.7491C259.1014,-410.3006 241.3083,-331.2201 234.7396,-302.026"/>
</g>
<!-- 5508578126085908420 -->
<g id="node18" class="node">
<title>5508578126085908420</title>
<path fill="none" stroke="#000000" stroke-width=".25" d="M301.5684,-302C301.5684,-302 268.9492,-302 268.9492,-302 265.2825,-302 261.6158,-298.3333 261.6158,-294.6667 261.6158,-294.6667 261.6158,-287.3333 261.6158,-287.3333 261.6158,-283.6667 265.2825,-280 268.9492,-280 268.9492,-280 301.5684,-280 301.5684,-280 305.2351,-280 308.9017,-283.6667 308.9017,-287.3333 308.9017,-287.3333 308.9017,-294.6667 308.9017,-294.6667 308.9017,-298.3333 305.2351,-302 301.5684,-302"/>
<text text-anchor="middle" x="285.2588" y="-286.8" font-family="Times,serif" font-size="14.00" fill="#000000">Integer</text>
</g>
<!-- 6878044224468587708&#45;&gt;5508578126085908420 -->
<g id="edge19" class="edge">
<title>6878044224468587708&#45;&gt;5508578126085908420</title>
<path fill="none" stroke="#000000" stroke-width=".5" d="M269.4542,-439.7491C272.5831,-410.3006 280.9854,-331.2201 284.0873,-302.026"/>
</g>
<!-- 8367579817054949371 -->
<!-- 7561231962254181255&#45;&gt;8367579817054949371 -->
<!-- 5508584432069737486&#45;&gt;4406523470758929421 -->
<!-- &#45;704271273565180213 -->
<g id="node13" class="node">
<title>&#45;704271273565180213</title>
<path fill="none" stroke="#000000" stroke-width="1.25" d="M141.7588,-382C141.7588,-382 136.7588,-382 136.7588,-382 134.2588,-382 131.7588,-379.5 131.7588,-377 131.7588,-377 131.7588,-365 131.7588,-365 131.7588,-362.5 134.2588,-360 136.7588,-360 136.7588,-360 141.7588,-360 141.7588,-360 144.2588,-360 146.7588,-362.5 146.7588,-365 146.7588,-365 146.7588,-377 146.7588,-377 146.7588,-379.5 144.2588,-382 141.7588,-382"/>
<text text-anchor="middle" x="139.2588" y="-366.8" font-family="Times,serif" font-size="14.00" fill="#000000">3</text>
</g>
<!-- 5508584432069737486&#45;&gt;&#45;704271273565180213 -->
<g id="edge14" class="edge">
<title>5508584432069737486&#45;&gt;&#45;704271273565180213</title>
<path fill="none" stroke="#000000" stroke-width=".5" d="M139.2588,-399.6446C139.2588,-394.1937 139.2588,-387.6819 139.2588,-382.2453"/>
</g>
<!-- &#45;6011355214167870584 -->
<g id="node15" class="node">
<title>&#45;6011355214167870584</title>
<path fill="none" stroke="#000000" stroke-width="1.25" d="M201.7588,-342C201.7588,-342 196.7588,-342 196.7588,-342 194.2588,-342 191.7588,-339.5 191.7588,-337 191.7588,-337 191.7588,-325 191.7588,-325 191.7588,-322.5 194.2588,-320 196.7588,-320 196.7588,-320 201.7588,-320 201.7588,-320 204.2588,-320 206.7588,-322.5 206.7588,-325 206.7588,-325 206.7588,-337 206.7588,-337 206.7588,-339.5 204.2588,-342 201.7588,-342"/>
<text text-anchor="middle" x="199.2588" y="-326.8" font-family="Times,serif" font-size="14.00" fill="#000000">2</text>
</g>
<!-- 4406523470758929421&#45;&gt;&#45;6011355214167870584 -->
<g id="edge16" class="edge">
<title>4406523470758929421&#45;&gt;&#45;6011355214167870584</title>
<path fill="none" stroke="#000000" stroke-width=".5" d="M199.2588,-399.8763C199.2588,-384.5921 199.2588,-357.2636 199.2588,-342.0292"/>
</g>
<!-- 7561131039434899913 -->
<!-- 8367579817054949371&#45;&gt;7561131039434899913 -->
<!-- 8841516090159448141 -->
<!-- 7561131039434899913&#45;&gt;8841516090159448141 -->
<!-- 1362121359226245662 -->
<!-- 8841516090159448141&#45;&gt;1362121359226245662 -->
<!-- 3464748826049562994&#45;&gt;5508578126085908420 -->
<!-- &#45;3501742320349633748 -->
<g id="node20" class="node">
<title>&#45;3501742320349633748</title>
<path fill="none" stroke="#000000" stroke-width="1.25" d="M234.0956,-262C234.0956,-262 230.422,-262 230.422,-262 228.5852,-262 226.7484,-260.1632 226.7484,-258.3264 226.7484,-258.3264 226.7484,-243.6736 226.7484,-243.6736 226.7484,-241.8368 228.5852,-240 230.422,-240 230.422,-240 234.0956,-240 234.0956,-240 235.9324,-240 237.7692,-241.8368 237.7692,-243.6736 237.7692,-243.6736 237.7692,-258.3264 237.7692,-258.3264 237.7692,-260.1632 235.9324,-262 234.0956,-262"/>
<text text-anchor="middle" x="232.2588" y="-246.8" font-family="Times,serif" font-size="14.00" fill="#000000">.</text>
</g>
<!-- 3464748826049562994&#45;&gt;&#45;3501742320349633748 -->
<g id="edge22" class="edge">
<title>3464748826049562994&#45;&gt;&#45;3501742320349633748</title>
<path fill="none" stroke="#000000" stroke-width=".5" d="M232.2588,-279.6446C232.2588,-274.1937 232.2588,-267.6819 232.2588,-262.2453"/>
</g>
<!-- &#45;8496064900216594933 -->
<g id="node22" class="node">
<title>&#45;8496064900216594933</title>
<path fill="none" stroke="#000000" stroke-width="1.25" d="M287.7588,-222C287.7588,-222 282.7588,-222 282.7588,-222 280.2588,-222 277.7588,-219.5 277.7588,-217 277.7588,-217 277.7588,-205 277.7588,-205 277.7588,-202.5 280.2588,-200 282.7588,-200 282.7588,-200 287.7588,-200 287.7588,-200 290.2588,-200 292.7588,-202.5 292.7588,-205 292.7588,-205 292.7588,-217 292.7588,-217 292.7588,-219.5 290.2588,-222 287.7588,-222"/>
<text text-anchor="middle" x="285.2588" y="-206.8" font-family="Times,serif" font-size="14.00" fill="#000000">5</text>
</g>
<!-- 5508578126085908420&#45;&gt;&#45;8496064900216594933 -->
<g id="edge24" class="edge">
<title>5508578126085908420&#45;&gt;&#45;8496064900216594933</title>
<path fill="none" stroke="#000000" stroke-width=".5" d="M285.2588,-279.8763C285.2588,-264.5921 285.2588,-237.2636 285.2588,-222.0292"/>
</g>
<!-- &#45;9223187625355942014 -->
<!-- 1362121359226245662&#45;&gt;&#45;9223187625355942014 -->
<!-- &#45;2861147045892915714 -->
<!-- &#45;9223187625355942014&#45;&gt;&#45;2861147045892915714 -->
<!-- &#45;6269910653447779308 -->
<!-- &#45;2861147045892915714&#45;&gt;&#45;6269910653447779308 -->
<!-- 2723187422335161074&#45;&gt;5508597044038560667 -->
<!-- &#45;6227513102845679556 -->
<g id="node27" class="node">
<title>&#45;6227513102845679556</title>
<path fill="none" stroke="#000000" stroke-width=".25" d="M298.2519,-142C298.2519,-142 288.2657,-142 288.2657,-142 284.599,-142 280.9324,-138.3333 280.9324,-134.6667 280.9324,-134.6667 280.9324,-127.3333 280.9324,-127.3333 280.9324,-123.6667 284.599,-120 288.2657,-120 288.2657,-120 298.2519,-120 298.2519,-120 301.9185,-120 305.5852,-123.6667 305.5852,-127.3333 305.5852,-127.3333 305.5852,-134.6667 305.5852,-134.6667 305.5852,-138.3333 301.9185,-142 298.2519,-142"/>
<text text-anchor="middle" x="293.2588" y="-126.8" font-family="Times,serif" font-size="14.00" fill="#000000">Ne</text>
</g>
<!-- 2723187422335161074&#45;&gt;&#45;6227513102845679556 -->
<g id="edge30" class="edge">
<title>2723187422335161074&#45;&gt;&#45;6227513102845679556</title>
<path fill="none" stroke="#000000" stroke-width=".5" d="M319.0389,-159.6446C314.1331,-154.1937 308.2725,-147.6819 303.3796,-142.2453"/>
</g>
<!-- 5224217786263085710 -->
<g id="node28" class="node">
<title>5224217786263085710</title>
<path fill="none" stroke="#000000" stroke-width=".25" d="M349.6028,-142C349.6028,-142 330.9148,-142 330.9148,-142 327.2481,-142 323.5815,-138.3333 323.5815,-134.6667 323.5815,-134.6667 323.5815,-127.3333 323.5815,-127.3333 323.5815,-123.6667 327.2481,-120 330.9148,-120 330.9148,-120 349.6028,-120 349.6028,-120 353.2694,-120 356.9361,-123.6667 356.9361,-127.3333 356.9361,-127.3333 356.9361,-134.6667 356.9361,-134.6667 356.9361,-138.3333 353.2694,-142 349.6028,-142"/>
<text text-anchor="middle" x="340.2588" y="-126.8" font-family="Times,serif" font-size="14.00" fill="#000000">Sign</text>
</g>
<!-- 2723187422335161074&#45;&gt;5224217786263085710 -->
<g id="edge31" class="edge">
<title>2723187422335161074&#45;&gt;5224217786263085710</title>
<path fill="none" stroke="#000000" stroke-width=".5" d="M332.3815,-159.6446C333.8805,-154.1937 335.6713,-147.6819 337.1663,-142.2453"/>
</g>
<!-- &#45;2927163460594816164 -->
<g id="node34" class="node">
<title>&#45;2927163460594816164</title>
<path fill="none" stroke="#000000" stroke-width="1.25" d="M398.7588,-22C398.7588,-22 393.7588,-22 393.7588,-22 391.2588,-22 388.7588,-19.5 388.7588,-17 388.7588,-17 388.7588,-5 388.7588,-5 388.7588,-2.5 391.2588,0 393.7588,0 393.7588,0 398.7588,0 398.7588,0 401.2588,0 403.7588,-2.5 403.7588,-5 403.7588,-5 403.7588,-17 403.7588,-17 403.7588,-19.5 401.2588,-22 398.7588,-22"/>
<text text-anchor="middle" x="396.2588" y="-6.8" font-family="Times,serif" font-size="14.00" fill="#000000">1</text>
</g>
<!-- 5508597044038560667&#45;&gt;&#45;2927163460594816164 -->
<g id="edge38" class="edge">
<title>5508597044038560667&#45;&gt;&#45;2927163460594816164</title>
<path fill="none" stroke="#000000" stroke-width=".5" d="M396.2588,-159.7491C396.2588,-130.3006 396.2588,-51.2201 396.2588,-22.026"/>
</g>
<!-- 3066376150640824263 -->
<!-- &#45;6269910653447779308&#45;&gt;3066376150640824263 -->
<!-- &#45;6227513102845679556&#45;&gt;5224217786263085710 -->
<!-- 976387241849330692 -->
<g id="node30" class="node">
<title>976387241849330692</title>
<path fill="none" stroke="#000000" stroke-width="1.25" d="M295.664,-102C295.664,-102 290.8536,-102 290.8536,-102 288.4485,-102 286.0433,-99.5948 286.0433,-97.1897 286.0433,-97.1897 286.0433,-84.8103 286.0433,-84.8103 286.0433,-82.4052 288.4485,-80 290.8536,-80 290.8536,-80 295.664,-80 295.664,-80 298.0691,-80 300.4743,-82.4052 300.4743,-84.8103 300.4743,-84.8103 300.4743,-97.1897 300.4743,-97.1897 300.4743,-99.5948 298.0691,-102 295.664,-102"/>
<text text-anchor="middle" x="293.2588" y="-86.8" font-family="Times,serif" font-size="14.00" fill="#000000">e</text>
</g>
<!-- &#45;6227513102845679556&#45;&gt;976387241849330692 -->
<g id="edge34" class="edge">
<title>&#45;6227513102845679556&#45;&gt;976387241849330692</title>
<path fill="none" stroke="#000000" stroke-width=".5" d="M293.2588,-119.6446C293.2588,-114.1937 293.2588,-107.6819 293.2588,-102.2453"/>
</g>
<!-- 6557978558670032927 -->
<g id="node32" class="node">
<title>6557978558670032927</title>
<path fill="none" stroke="#000000" stroke-width="1.25" d="M342.8907,-62C342.8907,-62 337.6268,-62 337.6268,-62 334.9949,-62 332.3629,-59.3681 332.3629,-56.7361 332.3629,-56.7361 332.3629,-45.2639 332.3629,-45.2639 332.3629,-42.6319 334.9949,-40 337.6268,-40 337.6268,-40 342.8907,-40 342.8907,-40 345.5227,-40 348.1546,-42.6319 348.1546,-45.2639 348.1546,-45.2639 348.1546,-56.7361 348.1546,-56.7361 348.1546,-59.3681 345.5227,-62 342.8907,-62"/>
<text text-anchor="middle" x="340.2588" y="-46.8" font-family="Times,serif" font-size="14.00" fill="#000000">+</text>
</g>
<!-- 5224217786263085710&#45;&gt;6557978558670032927 -->
<g id="edge36" class="edge">
<title>5224217786263085710&#45;&gt;6557978558670032927</title>
<path fill="none" stroke="#000000" stroke-width=".5" d="M340.2588,-119.8763C340.2588,-104.5921 340.2588,-77.2636 340.2588,-62.0292"/>
</g>
<!-- &#45;8737099865813793690 -->
<!-- 3066376150640824263&#45;&gt;&#45;8737099865813793690 -->
<!-- 6121193994527701101 -->
<!-- &#45;8737099865813793690&#45;&gt;6121193994527701101 -->
</g>
</svg>
