<?xml version="1.0" encoding="UTF-8" standalone="no"?>
<!DOCTYPE svg PUBLIC "-//W3C//DTD SVG 1.1//EN"
 "http://www.w3.org/Graphics/SVG/1.1/DTD/svg11.dtd">
<!-- Generated by graphviz version 2.43.0 (0)
 -->
<!-- Title: %3 Pages: 1 -->
<svg width="253pt" height="236pt"
 viewBox="0.00 0.00 252.87 236.08" xmlns="http://www.w3.org/2000/svg" xmlns:xlink="http://www.w3.org/1999/xlink">
<g id="graph0" class="graph" transform="scale(1 1) rotate(0) translate(4 232.08)">
<title>%3</title>
<polygon fill="white" stroke="transparent" points="-4,4 -4,-232.08 248.87,-232.08 248.87,4 -4,4"/>
<!-- 8524088961076028334 -->
<!-- &#45;5624833004480674820 -->
<!-- 8524088961076028334&#45;&gt;&#45;5624833004480674820 -->
<!-- &#45;1404665777148609891 -->
<g id="node2" class="node">
<title>&#45;1404665777148609891</title>
<path fill="none" stroke="black" stroke-width="0.25" d="M170.35,-228.08C170.35,-228.08 165.16,-228.08 165.16,-228.08 162.57,-228.08 159.97,-225.48 159.97,-222.89 159.97,-222.89 159.97,-211.27 159.97,-211.27 159.97,-208.68 162.57,-206.08 165.16,-206.08 165.16,-206.08 170.35,-206.08 170.35,-206.08 172.95,-206.08 175.55,-208.68 175.55,-211.27 175.55,-211.27 175.55,-222.89 175.55,-222.89 175.55,-225.48 172.95,-228.08 170.35,-228.08"/>
<text text-anchor="middle" x="167.76" y="-212.88" font-family="Times,serif" font-size="14.00">S</text>
</g>
<!-- 435205173413473010 -->
<g id="node4" class="node">
<title>435205173413473010</title>
<path fill="none" stroke="black" stroke-width="1.25" d="M137.16,-188.08C137.16,-188.08 132.35,-188.08 132.35,-188.08 129.95,-188.08 127.54,-185.67 127.54,-183.27 127.54,-183.27 127.54,-170.89 127.54,-170.89 127.54,-168.49 129.95,-166.08 132.35,-166.08 132.35,-166.08 137.16,-166.08 137.16,-166.08 139.57,-166.08 141.97,-168.49 141.97,-170.89 141.97,-170.89 141.97,-183.27 141.97,-183.27 141.97,-185.67 139.57,-188.08 137.16,-188.08"/>
<text text-anchor="middle" x="134.76" y="-172.88" font-family="Times,serif" font-size="14.00">a</text>
</g>
<!-- &#45;1404665777148609891&#45;&gt;435205173413473010 -->
<g id="edge2" class="edge">
<title>&#45;1404665777148609891&#45;&gt;435205173413473010</title>
<path fill="none" stroke="black" stroke-width="0.5" d="M159.77,-206.88C154.35,-200.64 147.25,-192.46 142,-186.42"/>
</g>
<!-- &#45;1404664515952776117 -->
<g id="node5" class="node">
<title>&#45;1404664515952776117</title>
<path fill="none" stroke="black" stroke-width="0.25" d="M170.35,-188.08C170.35,-188.08 165.16,-188.08 165.16,-188.08 162.57,-188.08 159.97,-185.48 159.97,-182.89 159.97,-182.89 159.97,-171.27 159.97,-171.27 159.97,-168.68 162.57,-166.08 165.16,-166.08 165.16,-166.08 170.35,-166.08 170.35,-166.08 172.95,-166.08 175.55,-168.68 175.55,-171.27 175.55,-171.27 175.55,-182.89 175.55,-182.89 175.55,-185.48 172.95,-188.08 170.35,-188.08"/>
<text text-anchor="middle" x="167.76" y="-172.88" font-family="Times,serif" font-size="14.00">S</text>
</g>
<!-- &#45;1404665777148609891&#45;&gt;&#45;1404664515952776117 -->
<g id="edge3" class="edge">
<title>&#45;1404665777148609891&#45;&gt;&#45;1404664515952776117</title>
<path fill="none" stroke="black" stroke-width="0.5" d="M167.76,-205.7C167.76,-200.25 167.76,-193.6 167.76,-188.19"/>
</g>
<!-- &#45;4256134338430451938 -->
<g id="node6" class="node">
<title>&#45;4256134338430451938</title>
<path fill="none" stroke="black" stroke-width="0.25" d="M205.8,-188.08C205.8,-188.08 199.72,-188.08 199.72,-188.08 196.68,-188.08 193.65,-185.04 193.65,-182.01 193.65,-182.01 193.65,-172.15 193.65,-172.15 193.65,-169.12 196.68,-166.08 199.72,-166.08 199.72,-166.08 205.8,-166.08 205.8,-166.08 208.83,-166.08 211.87,-169.12 211.87,-172.15 211.87,-172.15 211.87,-182.01 211.87,-182.01 211.87,-185.04 208.83,-188.08 205.8,-188.08"/>
<text text-anchor="middle" x="202.76" y="-172.88" font-family="Times,serif" font-size="14.00">Q</text>
</g>
<!-- &#45;1404665777148609891&#45;&gt;&#45;4256134338430451938 -->
<g id="edge4" class="edge">
<title>&#45;1404665777148609891&#45;&gt;&#45;4256134338430451938</title>
<path fill="none" stroke="black" stroke-width="0.5" d="M175.88,-207.27C181.21,-201.48 188.19,-193.9 193.7,-187.92"/>
</g>
<!-- 5538515108605346592 -->
<!-- &#45;5624833004480674820&#45;&gt;5538515108605346592 -->
<!-- 435205173413473010&#45;&gt;&#45;1404664515952776117 -->
<!-- &#45;1404664515952776117&#45;&gt;&#45;4256134338430451938 -->
<!-- 435206434610471833 -->
<g id="node8" class="node">
<title>435206434610471833</title>
<path fill="none" stroke="black" stroke-width="1.25" d="M121.16,-148.08C121.16,-148.08 116.35,-148.08 116.35,-148.08 113.95,-148.08 111.54,-145.67 111.54,-143.27 111.54,-143.27 111.54,-130.89 111.54,-130.89 111.54,-128.49 113.95,-126.08 116.35,-126.08 116.35,-126.08 121.16,-126.08 121.16,-126.08 123.57,-126.08 125.97,-128.49 125.97,-130.89 125.97,-130.89 125.97,-143.27 125.97,-143.27 125.97,-145.67 123.57,-148.08 121.16,-148.08"/>
<text text-anchor="middle" x="118.76" y="-132.88" font-family="Times,serif" font-size="14.00">a</text>
</g>
<!-- &#45;1404664515952776117&#45;&gt;435206434610471833 -->
<g id="edge8" class="edge">
<title>&#45;1404664515952776117&#45;&gt;435206434610471833</title>
<path fill="none" stroke="black" stroke-width="0.5" d="M159.67,-169.81C150.32,-162.55 135.06,-150.73 126.06,-143.74"/>
</g>
<!-- 312490796994619203 -->
<g id="node9" class="node">
<title>312490796994619203</title>
<path fill="none" stroke="black" stroke-width="0.25" d="M154.26,-148.08C154.26,-148.08 149.26,-148.08 149.26,-148.08 146.76,-148.08 144.26,-145.58 144.26,-143.08 144.26,-143.08 144.26,-131.08 144.26,-131.08 144.26,-128.58 146.76,-126.08 149.26,-126.08 149.26,-126.08 154.26,-126.08 154.26,-126.08 156.76,-126.08 159.26,-128.58 159.26,-131.08 159.26,-131.08 159.26,-143.08 159.26,-143.08 159.26,-145.58 156.76,-148.08 154.26,-148.08"/>
<text text-anchor="middle" x="151.76" y="-132.88" font-family="Times,serif" font-size="14.00">b</text>
</g>
<!-- &#45;1404664515952776117&#45;&gt;312490796994619203 -->
<g id="edge9" class="edge">
<title>&#45;1404664515952776117&#45;&gt;312490796994619203</title>
<path fill="none" stroke="black" stroke-width="0.5" d="M163.39,-165.7C161.09,-160.25 158.29,-153.6 156.01,-148.19"/>
</g>
<!-- &#45;7682024871687172220 -->
<g id="node10" class="node">
<title>&#45;7682024871687172220</title>
<path fill="none" stroke="black" stroke-width="0.25" d="M187.16,-148.08C187.16,-148.08 182.35,-148.08 182.35,-148.08 179.95,-148.08 177.54,-145.67 177.54,-143.27 177.54,-143.27 177.54,-130.89 177.54,-130.89 177.54,-128.49 179.95,-126.08 182.35,-126.08 182.35,-126.08 187.16,-126.08 187.16,-126.08 189.57,-126.08 191.97,-128.49 191.97,-130.89 191.97,-130.89 191.97,-143.27 191.97,-143.27 191.97,-145.67 189.57,-148.08 187.16,-148.08"/>
<text text-anchor="middle" x="184.76" y="-132.88" font-family="Times,serif" font-size="14.00">c</text>
</g>
<!-- &#45;1404664515952776117&#45;&gt;&#45;7682024871687172220 -->
<g id="edge10" class="edge">
<title>&#45;1404664515952776117&#45;&gt;&#45;7682024871687172220</title>
<path fill="none" stroke="black" stroke-width="0.5" d="M172.4,-165.7C174.84,-160.25 177.82,-153.6 180.24,-148.19"/>
</g>
<!-- 95436260450064672 -->
<g id="node14" class="node">
<title>95436260450064672</title>
<ellipse fill="black" stroke="black" cx="203.76" cy="-105.56" rx="2.52" ry="2.52"/>
</g>
<!-- &#45;4256134338430451938&#45;&gt;95436260450064672 -->
<g id="edge15" class="edge">
<title>&#45;4256134338430451938&#45;&gt;95436260450064672</title>
<path fill="none" stroke="black" stroke-width="0.5" d="M202.91,-165.82C203.15,-148.9 203.62,-116.22 203.73,-108.31"/>
</g>
<!-- 6896759079639143649 -->
<!-- 5538515108605346592&#45;&gt;6896759079639143649 -->
<!-- 435206434610471833&#45;&gt;312490796994619203 -->
<!-- 312490796994619203&#45;&gt;&#45;7682024871687172220 -->
<!-- 2403436629837925734 -->
<g id="node20" class="node">
<title>2403436629837925734</title>
<ellipse fill="black" stroke="black" cx="188.76" cy="-42.52" rx="2.52" ry="2.52"/>
</g>
<!-- 312490796994619203&#45;&gt;2403436629837925734 -->
<g id="edge20" class="edge">
<title>312490796994619203&#45;&gt;2403436629837925734</title>
<path fill="none" stroke="black" stroke-width="0.5" d="M152.8,-126.06C154.66,-111.44 159.46,-83.74 170.76,-63.04 175.18,-54.95 183.68,-47.59 187.19,-44.75"/>
</g>
<!-- &#45;7682024871687172220&#45;&gt;95436260450064672 -->
<g id="edge14" class="edge">
<title>&#45;7682024871687172220&#45;&gt;95436260450064672</title>
<path fill="none" stroke="black" stroke-width="0.5" d="M191.4,-125.76C195.68,-119.1 200.82,-111.13 202.86,-107.96"/>
</g>
<!-- 2516344607721600319 -->
<!-- 6896759079639143649&#45;&gt;2516344607721600319 -->
<!-- &#45;4256136860826779682 -->
<g id="node12" class="node">
<title>&#45;4256136860826779682</title>
<path fill="none" stroke="black" stroke-width="0.25" d="M191.8,-85.04C191.8,-85.04 185.72,-85.04 185.72,-85.04 182.68,-85.04 179.65,-82 179.65,-78.97 179.65,-78.97 179.65,-69.11 179.65,-69.11 179.65,-66.08 182.68,-63.04 185.72,-63.04 185.72,-63.04 191.8,-63.04 191.8,-63.04 194.83,-63.04 197.87,-66.08 197.87,-69.11 197.87,-69.11 197.87,-78.97 197.87,-78.97 197.87,-82 194.83,-85.04 191.8,-85.04"/>
<text text-anchor="middle" x="188.76" y="-69.84" font-family="Times,serif" font-size="14.00">Q</text>
</g>
<!-- &#45;7682026132880675896 -->
<g id="node13" class="node">
<title>&#45;7682026132880675896</title>
<path fill="none" stroke="black" stroke-width="0.25" d="M225.16,-85.04C225.16,-85.04 220.35,-85.04 220.35,-85.04 217.95,-85.04 215.54,-82.63 215.54,-80.23 215.54,-80.23 215.54,-67.85 215.54,-67.85 215.54,-65.45 217.95,-63.04 220.35,-63.04 220.35,-63.04 225.16,-63.04 225.16,-63.04 227.57,-63.04 229.97,-65.45 229.97,-67.85 229.97,-67.85 229.97,-80.23 229.97,-80.23 229.97,-82.63 227.57,-85.04 225.16,-85.04"/>
<text text-anchor="middle" x="222.76" y="-69.84" font-family="Times,serif" font-size="14.00">c</text>
</g>
<!-- &#45;4256136860826779682&#45;&gt;&#45;7682026132880675896 -->
<!-- &#45;4256136860826779682&#45;&gt;2403436629837925734 -->
<g id="edge21" class="edge">
<title>&#45;4256136860826779682&#45;&gt;2403436629837925734</title>
<path fill="none" stroke="black" stroke-width="0.5" d="M188.76,-62.72C188.76,-56.33 188.76,-48.73 188.76,-45.32"/>
</g>
<!-- &#45;7682026132880675896&#45;&gt;2403436629837925734 -->
<g id="edge22" class="edge">
<title>&#45;7682026132880675896&#45;&gt;2403436629837925734</title>
<path fill="none" stroke="black" stroke-width="0.5" d="M215.55,-66.78C207.44,-59.74 194.82,-48.78 190.38,-44.92"/>
</g>
<!-- 95436260450064672&#45;&gt;&#45;4256136860826779682 -->
<g id="edge16" class="edge">
<title>95436260450064672&#45;&gt;&#45;4256136860826779682</title>
<path fill="none" stroke="black" stroke-width="0.5" d="M202.95,-102.97C201.27,-99.67 197.28,-91.81 193.96,-85.27"/>
</g>
<!-- 95436260450064672&#45;&gt;&#45;7682026132880675896 -->
<g id="edge17" class="edge">
<title>95436260450064672&#45;&gt;&#45;7682026132880675896</title>
<path fill="none" stroke="black" stroke-width="0.5" d="M204.78,-102.97C206.91,-99.67 211.97,-91.81 216.18,-85.27"/>
</g>
<!-- 312483229813791314 -->
<g id="node16" class="node">
<title>312483229813791314</title>
<path fill="none" stroke="black" stroke-width="1.25" d="M142.26,-22C142.26,-22 137.26,-22 137.26,-22 134.76,-22 132.26,-19.5 132.26,-17 132.26,-17 132.26,-5 132.26,-5 132.26,-2.5 134.76,0 137.26,0 137.26,0 142.26,0 142.26,0 144.76,0 147.26,-2.5 147.26,-5 147.26,-5 147.26,-17 147.26,-17 147.26,-19.5 144.76,-22 142.26,-22"/>
<text text-anchor="middle" x="139.76" y="-6.8" font-family="Times,serif" font-size="14.00">b</text>
</g>
<!-- 312483229812626265 -->
<g id="node17" class="node">
<title>312483229812626265</title>
<path fill="none" stroke="black" stroke-width="1.25" d="M175.26,-22C175.26,-22 170.26,-22 170.26,-22 167.76,-22 165.26,-19.5 165.26,-17 165.26,-17 165.26,-5 165.26,-5 165.26,-2.5 167.76,0 170.26,0 170.26,0 175.26,0 175.26,0 177.76,0 180.26,-2.5 180.26,-5 180.26,-5 180.26,-17 180.26,-17 180.26,-19.5 177.76,-22 175.26,-22"/>
<text text-anchor="middle" x="172.76" y="-6.8" font-family="Times,serif" font-size="14.00">b</text>
</g>
<!-- 312483229813791314&#45;&gt;312483229812626265 -->
<!-- &#45;7682027394076509670 -->
<g id="node18" class="node">
<title>&#45;7682027394076509670</title>
<path fill="none" stroke="black" stroke-width="1.25" d="M208.16,-22C208.16,-22 203.35,-22 203.35,-22 200.95,-22 198.54,-19.59 198.54,-17.19 198.54,-17.19 198.54,-4.81 198.54,-4.81 198.54,-2.41 200.95,0 203.35,0 203.35,0 208.16,0 208.16,0 210.57,0 212.97,-2.41 212.97,-4.81 212.97,-4.81 212.97,-17.19 212.97,-17.19 212.97,-19.59 210.57,-22 208.16,-22"/>
<text text-anchor="middle" x="205.76" y="-6.8" font-family="Times,serif" font-size="14.00">c</text>
</g>
<!-- 312483229812626265&#45;&gt;&#45;7682027394076509670 -->
<!-- &#45;7682027394077674719 -->
<g id="node19" class="node">
<title>&#45;7682027394077674719</title>
<path fill="none" stroke="black" stroke-width="1.25" d="M240.16,-22C240.16,-22 235.35,-22 235.35,-22 232.95,-22 230.54,-19.59 230.54,-17.19 230.54,-17.19 230.54,-4.81 230.54,-4.81 230.54,-2.41 232.95,0 235.35,0 235.35,0 240.16,0 240.16,0 242.57,0 244.97,-2.41 244.97,-4.81 244.97,-4.81 244.97,-17.19 244.97,-17.19 244.97,-19.59 242.57,-22 240.16,-22"/>
<text text-anchor="middle" x="237.76" y="-6.8" font-family="Times,serif" font-size="14.00">c</text>
</g>
<!-- &#45;7682027394076509670&#45;&gt;&#45;7682027394077674719 -->
<!-- 2403436629837925734&#45;&gt;312483229813791314 -->
<g id="edge23" class="edge">
<title>2403436629837925734&#45;&gt;312483229813791314</title>
<path fill="none" stroke="black" stroke-width="0.5" d="M186.96,-40.48C181.98,-37.58 167.59,-29.19 155.76,-22 153.07,-20.37 150.15,-18.55 147.55,-16.92"/>
</g>
<!-- 2403436629837925734&#45;&gt;312483229812626265 -->
<g id="edge24" class="edge">
<title>2403436629837925734&#45;&gt;312483229812626265</title>
<path fill="none" stroke="black" stroke-width="0.5" d="M187.9,-39.93C186.11,-36.63 181.85,-28.77 178.3,-22.23"/>
</g>
<!-- 2403436629837925734&#45;&gt;&#45;7682027394076509670 -->
<g id="edge25" class="edge">
<title>2403436629837925734&#45;&gt;&#45;7682027394076509670</title>
<path fill="none" stroke="black" stroke-width="0.5" d="M189.67,-39.93C191.58,-36.63 196.1,-28.77 199.87,-22.23"/>
</g>
<!-- 2403436629837925734&#45;&gt;&#45;7682027394077674719 -->
<g id="edge26" class="edge">
<title>2403436629837925734&#45;&gt;&#45;7682027394077674719</title>
<path fill="none" stroke="black" stroke-width="0.5" d="M190.56,-40.48C195.54,-37.58 209.93,-29.19 221.76,-22 224.67,-20.23 227.86,-18.25 230.61,-16.52"/>
</g>
</g>
</svg>
