<?xml version="1.0" encoding="UTF-8" standalone="no"?>
<!DOCTYPE svg PUBLIC "-//W3C//DTD SVG 1.1//EN"
 "http://www.w3.org/Graphics/SVG/1.1/DTD/svg11.dtd">
<!-- Generated by graphviz version 2.40.1 (20161225.0304)
 -->
<!-- Title: %3 Pages: 1 -->
<svg width="356pt" height="230pt"
 viewBox="0.00 0.00 355.64 230.00" xmlns="http://www.w3.org/2000/svg" xmlns:xlink="http://www.w3.org/1999/xlink">
<g id="graph0" class="graph" transform="scale(1 1) rotate(0) translate(4 226)">
<title>%3</title>
<polygon fill="#ffffff" stroke="transparent" points="-4,4 -4,-226 351.6416,-226 351.6416,4 -4,4"/>
<!-- 5528759662833301645 -->
<g id="node1" class="node">
<title>5528759662833301645</title>
<path fill="none" stroke="#000000" stroke-width=".25" d="M177.3636,-222C177.3636,-222 138.278,-222 138.278,-222 134.6113,-222 130.9447,-218.3333 130.9447,-214.6667 130.9447,-214.6667 130.9447,-207.3333 130.9447,-207.3333 130.9447,-203.6667 134.6113,-200 138.278,-200 138.278,-200 177.3636,-200 177.3636,-200 181.0303,-200 184.6969,-203.6667 184.6969,-207.3333 184.6969,-207.3333 184.6969,-214.6667 184.6969,-214.6667 184.6969,-218.3333 181.0303,-222 177.3636,-222"/>
<text text-anchor="middle" x="157.8208" y="-206.8" font-family="Times,serif" font-size="14.00" fill="#000000">Number</text>
</g>
<!-- 8682380699383540353 -->
<g id="node2" class="node">
<title>8682380699383540353</title>
<path fill="none" stroke="#000000" stroke-width=".25" d="M167.1445,-182C167.1445,-182 148.4971,-182 148.4971,-182 144.8304,-182 141.1638,-178.3333 141.1638,-174.6667 141.1638,-174.6667 141.1638,-167.3333 141.1638,-167.3333 141.1638,-163.6667 144.8304,-160 148.4971,-160 148.4971,-160 167.1445,-160 167.1445,-160 170.8112,-160 174.4778,-163.6667 174.4778,-167.3333 174.4778,-167.3333 174.4778,-174.6667 174.4778,-174.6667 174.4778,-178.3333 170.8112,-182 167.1445,-182"/>
<text text-anchor="middle" x="157.8208" y="-166.8" font-family="Times,serif" font-size="14.00" fill="#000000">Real</text>
</g>
<!-- 5528759662833301645&#45;&gt;8682380699383540353 -->
<g id="edge1" class="edge">
<title>5528759662833301645&#45;&gt;8682380699383540353</title>
<path fill="none" stroke="#000000" stroke-width=".5" d="M157.8208,-199.6446C157.8208,-194.1937 157.8208,-187.6819 157.8208,-182.2453"/>
</g>
<!-- 5682002853527492051 -->
<g id="node3" class="node">
<title>5682002853527492051</title>
<path fill="none" stroke="#000000" stroke-width=".25" d="M102.1304,-142C102.1304,-142 69.5112,-142 69.5112,-142 65.8445,-142 62.1779,-138.3333 62.1779,-134.6667 62.1779,-134.6667 62.1779,-127.3333 62.1779,-127.3333 62.1779,-123.6667 65.8445,-120 69.5112,-120 69.5112,-120 102.1304,-120 102.1304,-120 105.7971,-120 109.4637,-123.6667 109.4637,-127.3333 109.4637,-127.3333 109.4637,-134.6667 109.4637,-134.6667 109.4637,-138.3333 105.7971,-142 102.1304,-142"/>
<text text-anchor="middle" x="85.8208" y="-126.8" font-family="Times,serif" font-size="14.00" fill="#000000">Integer</text>
</g>
<!-- 8682380699383540353&#45;&gt;5682002853527492051 -->
<g id="edge2" class="edge">
<title>8682380699383540353&#45;&gt;5682002853527492051</title>
<path fill="none" stroke="#000000" stroke-width=".5" d="M141.1216,-161.7227C130.5699,-155.8606 116.8774,-148.2537 105.7573,-142.0758"/>
</g>
<!-- 952065951441685944 -->
<g id="node4" class="node">
<title>952065951441685944</title>
<path fill="none" stroke="#000000" stroke-width=".25" d="M177.6438,-142C177.6438,-142 137.9978,-142 137.9978,-142 134.3311,-142 130.6644,-138.3333 130.6644,-134.6667 130.6644,-134.6667 130.6644,-127.3333 130.6644,-127.3333 130.6644,-123.6667 134.3311,-120 137.9978,-120 137.9978,-120 177.6438,-120 177.6438,-120 181.3105,-120 184.9772,-123.6667 184.9772,-127.3333 184.9772,-127.3333 184.9772,-134.6667 184.9772,-134.6667 184.9772,-138.3333 181.3105,-142 177.6438,-142"/>
<text text-anchor="middle" x="157.8208" y="-126.8" font-family="Times,serif" font-size="14.00" fill="#000000">Fraction</text>
</g>
<!-- 8682380699383540353&#45;&gt;952065951441685944 -->
<g id="edge3" class="edge">
<title>8682380699383540353&#45;&gt;952065951441685944</title>
<path fill="none" stroke="#000000" stroke-width=".5" d="M157.8208,-159.6446C157.8208,-154.1937 157.8208,-147.6819 157.8208,-142.2453"/>
</g>
<!-- 2062221728368017636 -->
<g id="node5" class="node">
<title>2062221728368017636</title>
<path fill="none" stroke="#000000" stroke-width=".25" d="M234.8062,-142C234.8062,-142 210.8354,-142 210.8354,-142 207.1688,-142 203.5021,-138.3333 203.5021,-134.6667 203.5021,-134.6667 203.5021,-127.3333 203.5021,-127.3333 203.5021,-123.6667 207.1688,-120 210.8354,-120 210.8354,-120 234.8062,-120 234.8062,-120 238.4728,-120 242.1395,-123.6667 242.1395,-127.3333 242.1395,-127.3333 242.1395,-134.6667 242.1395,-134.6667 242.1395,-138.3333 238.4728,-142 234.8062,-142"/>
<text text-anchor="middle" x="222.8208" y="-126.8" font-family="Times,serif" font-size="14.00" fill="#000000">Scale</text>
</g>
<!-- 8682380699383540353&#45;&gt;2062221728368017636 -->
<g id="edge4" class="edge">
<title>8682380699383540353&#45;&gt;2062221728368017636</title>
<path fill="none" stroke="#000000" stroke-width=".5" d="M174.5599,-160.699C183.7381,-155.0509 195.1289,-148.0412 204.539,-142.2503"/>
</g>
<!-- 5682002853527492051&#45;&gt;952065951441685944 -->
<!-- 5682004114724490874 -->
<g id="node6" class="node">
<title>5682004114724490874</title>
<path fill="none" stroke="#000000" stroke-width=".25" d="M40.1304,-102C40.1304,-102 7.5112,-102 7.5112,-102 3.8445,-102 .1779,-98.3333 .1779,-94.6667 .1779,-94.6667 .1779,-87.3333 .1779,-87.3333 .1779,-83.6667 3.8445,-80 7.5112,-80 7.5112,-80 40.1304,-80 40.1304,-80 43.7971,-80 47.4637,-83.6667 47.4637,-87.3333 47.4637,-87.3333 47.4637,-94.6667 47.4637,-94.6667 47.4637,-98.3333 43.7971,-102 40.1304,-102"/>
<text text-anchor="middle" x="23.8208" y="-86.8" font-family="Times,serif" font-size="14.00" fill="#000000">Integer</text>
</g>
<!-- 5682002853527492051&#45;&gt;5682004114724490874 -->
<g id="edge7" class="edge">
<title>5682002853527492051&#45;&gt;5682004114724490874</title>
<path fill="none" stroke="#000000" stroke-width=".5" d="M68.5503,-119.8578C59.951,-114.3098 49.5853,-107.6222 40.9986,-102.0825"/>
</g>
<!-- &#45;5381896590471602417 -->
<g id="node7" class="node">
<title>&#45;5381896590471602417</title>
<path fill="none" stroke="#000000" stroke-width=".25" d="M94.7674,-102C94.7674,-102 72.8742,-102 72.8742,-102 69.2075,-102 65.5408,-98.3333 65.5408,-94.6667 65.5408,-94.6667 65.5408,-87.3333 65.5408,-87.3333 65.5408,-83.6667 69.2075,-80 72.8742,-80 72.8742,-80 94.7674,-80 94.7674,-80 98.4341,-80 102.1008,-83.6667 102.1008,-87.3333 102.1008,-87.3333 102.1008,-94.6667 102.1008,-94.6667 102.1008,-98.3333 98.4341,-102 94.7674,-102"/>
<text text-anchor="middle" x="83.8208" y="-86.8" font-family="Times,serif" font-size="14.00" fill="#000000">Digit</text>
</g>
<!-- 5682002853527492051&#45;&gt;&#45;5381896590471602417 -->
<g id="edge8" class="edge">
<title>5682002853527492051&#45;&gt;&#45;5381896590471602417</title>
<path fill="none" stroke="#000000" stroke-width=".5" d="M85.253,-119.6446C84.9805,-114.1937 84.6549,-107.6819 84.3831,-102.2453"/>
</g>
<!-- 952065951441685944&#45;&gt;2062221728368017636 -->
<!-- 7725281946515502424 -->
<g id="node11" class="node">
<title>7725281946515502424</title>
<path fill="none" stroke="#000000" stroke-width="1.25" d="M127.6576,-102C127.6576,-102 123.984,-102 123.984,-102 122.1472,-102 120.3104,-100.1632 120.3104,-98.3264 120.3104,-98.3264 120.3104,-83.6736 120.3104,-83.6736 120.3104,-81.8368 122.1472,-80 123.984,-80 123.984,-80 127.6576,-80 127.6576,-80 129.4944,-80 131.3312,-81.8368 131.3312,-83.6736 131.3312,-83.6736 131.3312,-98.3264 131.3312,-98.3264 131.3312,-100.1632 129.4944,-102 127.6576,-102"/>
<text text-anchor="middle" x="125.8208" y="-86.8" font-family="Times,serif" font-size="14.00" fill="#000000">.</text>
</g>
<!-- 952065951441685944&#45;&gt;7725281946515502424 -->
<g id="edge13" class="edge">
<title>952065951441685944&#45;&gt;7725281946515502424</title>
<path fill="none" stroke="#000000" stroke-width=".5" d="M148.7365,-119.6446C143.2671,-112.8078 136.4626,-104.3022 131.6948,-98.3424"/>
</g>
<!-- 5682009159511321117 -->
<g id="node12" class="node">
<title>5682009159511321117</title>
<path fill="none" stroke="#000000" stroke-width=".25" d="M190.1304,-102C190.1304,-102 157.5112,-102 157.5112,-102 153.8445,-102 150.1779,-98.3333 150.1779,-94.6667 150.1779,-94.6667 150.1779,-87.3333 150.1779,-87.3333 150.1779,-83.6667 153.8445,-80 157.5112,-80 157.5112,-80 190.1304,-80 190.1304,-80 193.7971,-80 197.4637,-83.6667 197.4637,-87.3333 197.4637,-87.3333 197.4637,-94.6667 197.4637,-94.6667 197.4637,-98.3333 193.7971,-102 190.1304,-102"/>
<text text-anchor="middle" x="173.8208" y="-86.8" font-family="Times,serif" font-size="14.00" fill="#000000">Integer</text>
</g>
<!-- 952065951441685944&#45;&gt;5682009159511321117 -->
<g id="edge14" class="edge">
<title>952065951441685944&#45;&gt;5682009159511321117</title>
<path fill="none" stroke="#000000" stroke-width=".5" d="M162.363,-119.6446C164.5433,-114.1937 167.148,-107.6819 169.3227,-102.2453"/>
</g>
<!-- 6387066897248151958 -->
<g id="node15" class="node">
<title>6387066897248151958</title>
<path fill="none" stroke="#000000" stroke-width="1.25" d="M225.226,-102C225.226,-102 220.4156,-102 220.4156,-102 218.0105,-102 215.6053,-99.5948 215.6053,-97.1897 215.6053,-97.1897 215.6053,-84.8103 215.6053,-84.8103 215.6053,-82.4052 218.0105,-80 220.4156,-80 220.4156,-80 225.226,-80 225.226,-80 227.6311,-80 230.0363,-82.4052 230.0363,-84.8103 230.0363,-84.8103 230.0363,-97.1897 230.0363,-97.1897 230.0363,-99.5948 227.6311,-102 225.226,-102"/>
<text text-anchor="middle" x="222.8208" y="-86.8" font-family="Times,serif" font-size="14.00" fill="#000000">e</text>
</g>
<!-- 2062221728368017636&#45;&gt;6387066897248151958 -->
<g id="edge18" class="edge">
<title>2062221728368017636&#45;&gt;6387066897248151958</title>
<path fill="none" stroke="#000000" stroke-width=".5" d="M222.8208,-119.6446C222.8208,-114.1937 222.8208,-107.6819 222.8208,-102.2453"/>
</g>
<!-- 5753399593017094335 -->
<g id="node16" class="node">
<title>5753399593017094335</title>
<path fill="none" stroke="#000000" stroke-width=".25" d="M274.1648,-102C274.1648,-102 255.4768,-102 255.4768,-102 251.8101,-102 248.1435,-98.3333 248.1435,-94.6667 248.1435,-94.6667 248.1435,-87.3333 248.1435,-87.3333 248.1435,-83.6667 251.8101,-80 255.4768,-80 255.4768,-80 274.1648,-80 274.1648,-80 277.8315,-80 281.4981,-83.6667 281.4981,-87.3333 281.4981,-87.3333 281.4981,-94.6667 281.4981,-94.6667 281.4981,-98.3333 277.8315,-102 274.1648,-102"/>
<text text-anchor="middle" x="264.8208" y="-86.8" font-family="Times,serif" font-size="14.00" fill="#000000">Sign</text>
</g>
<!-- 2062221728368017636&#45;&gt;5753399593017094335 -->
<g id="edge19" class="edge">
<title>2062221728368017636&#45;&gt;5753399593017094335</title>
<path fill="none" stroke="#000000" stroke-width=".5" d="M234.744,-119.6446C240.4675,-114.1937 247.3048,-107.6819 253.0132,-102.2453"/>
</g>
<!-- 5681992763953831565 -->
<g id="node17" class="node">
<title>5681992763953831565</title>
<path fill="none" stroke="#000000" stroke-width=".25" d="M340.1304,-102C340.1304,-102 307.5112,-102 307.5112,-102 303.8445,-102 300.1779,-98.3333 300.1779,-94.6667 300.1779,-94.6667 300.1779,-87.3333 300.1779,-87.3333 300.1779,-83.6667 303.8445,-80 307.5112,-80 307.5112,-80 340.1304,-80 340.1304,-80 343.7971,-80 347.4637,-83.6667 347.4637,-87.3333 347.4637,-87.3333 347.4637,-94.6667 347.4637,-94.6667 347.4637,-98.3333 343.7971,-102 340.1304,-102"/>
<text text-anchor="middle" x="323.8208" y="-86.8" font-family="Times,serif" font-size="14.00" fill="#000000">Integer</text>
</g>
<!-- 2062221728368017636&#45;&gt;5681992763953831565 -->
<g id="edge20" class="edge">
<title>2062221728368017636&#45;&gt;5681992763953831565</title>
<path fill="none" stroke="#000000" stroke-width=".5" d="M242.2946,-123.2876C258.8037,-116.7494 282.5354,-107.3506 300.1408,-100.3782"/>
</g>
<!-- 5682004114724490874&#45;&gt;&#45;5381896590471602417 -->
<!-- &#45;5381895329273438545 -->
<g id="node8" class="node">
<title>&#45;5381895329273438545</title>
<path fill="none" stroke="#000000" stroke-width=".25" d="M34.7674,-62C34.7674,-62 12.8742,-62 12.8742,-62 9.2075,-62 5.5408,-58.3333 5.5408,-54.6667 5.5408,-54.6667 5.5408,-47.3333 5.5408,-47.3333 5.5408,-43.6667 9.2075,-40 12.8742,-40 12.8742,-40 34.7674,-40 34.7674,-40 38.4341,-40 42.1008,-43.6667 42.1008,-47.3333 42.1008,-47.3333 42.1008,-54.6667 42.1008,-54.6667 42.1008,-58.3333 38.4341,-62 34.7674,-62"/>
<text text-anchor="middle" x="23.8208" y="-46.8" font-family="Times,serif" font-size="14.00" fill="#000000">Digit</text>
</g>
<!-- 5682004114724490874&#45;&gt;&#45;5381895329273438545 -->
<g id="edge10" class="edge">
<title>5682004114724490874&#45;&gt;&#45;5381895329273438545</title>
<path fill="none" stroke="#000000" stroke-width=".5" d="M23.8208,-79.6446C23.8208,-74.1937 23.8208,-67.6819 23.8208,-62.2453"/>
</g>
<!-- 7393245243244579029 -->
<g id="node10" class="node">
<title>7393245243244579029</title>
<path fill="none" stroke="#000000" stroke-width="1.25" d="M86.3208,-62C86.3208,-62 81.3208,-62 81.3208,-62 78.8208,-62 76.3208,-59.5 76.3208,-57 76.3208,-57 76.3208,-45 76.3208,-45 76.3208,-42.5 78.8208,-40 81.3208,-40 81.3208,-40 86.3208,-40 86.3208,-40 88.8208,-40 91.3208,-42.5 91.3208,-45 91.3208,-45 91.3208,-57 91.3208,-57 91.3208,-59.5 88.8208,-62 86.3208,-62"/>
<text text-anchor="middle" x="83.8208" y="-46.8" font-family="Times,serif" font-size="14.00" fill="#000000">2</text>
</g>
<!-- &#45;5381896590471602417&#45;&gt;7393245243244579029 -->
<g id="edge12" class="edge">
<title>&#45;5381896590471602417&#45;&gt;7393245243244579029</title>
<path fill="none" stroke="#000000" stroke-width=".5" d="M83.8208,-79.6446C83.8208,-74.1937 83.8208,-67.6819 83.8208,-62.2453"/>
</g>
<!-- &#45;4977706711794252459 -->
<g id="node9" class="node">
<title>&#45;4977706711794252459</title>
<path fill="none" stroke="#000000" stroke-width="1.25" d="M26.3208,-22C26.3208,-22 21.3208,-22 21.3208,-22 18.8208,-22 16.3208,-19.5 16.3208,-17 16.3208,-17 16.3208,-5 16.3208,-5 16.3208,-2.5 18.8208,0 21.3208,0 21.3208,0 26.3208,0 26.3208,0 28.8208,0 31.3208,-2.5 31.3208,-5 31.3208,-5 31.3208,-17 31.3208,-17 31.3208,-19.5 28.8208,-22 26.3208,-22"/>
<text text-anchor="middle" x="23.8208" y="-6.8" font-family="Times,serif" font-size="14.00" fill="#000000">3</text>
</g>
<!-- &#45;5381895329273438545&#45;&gt;&#45;4977706711794252459 -->
<g id="edge11" class="edge">
<title>&#45;5381895329273438545&#45;&gt;&#45;4977706711794252459</title>
<path fill="none" stroke="#000000" stroke-width=".5" d="M23.8208,-39.6446C23.8208,-34.1937 23.8208,-27.6819 23.8208,-22.2453"/>
</g>
<!-- 7725281946515502424&#45;&gt;5682009159511321117 -->
<!-- &#45;5381910463637424421 -->
<g id="node13" class="node">
<title>&#45;5381910463637424421</title>
<path fill="none" stroke="#000000" stroke-width=".25" d="M184.7674,-62C184.7674,-62 162.8742,-62 162.8742,-62 159.2075,-62 155.5408,-58.3333 155.5408,-54.6667 155.5408,-54.6667 155.5408,-47.3333 155.5408,-47.3333 155.5408,-43.6667 159.2075,-40 162.8742,-40 162.8742,-40 184.7674,-40 184.7674,-40 188.4341,-40 192.1008,-43.6667 192.1008,-47.3333 192.1008,-47.3333 192.1008,-54.6667 192.1008,-54.6667 192.1008,-58.3333 188.4341,-62 184.7674,-62"/>
<text text-anchor="middle" x="173.8208" y="-46.8" font-family="Times,serif" font-size="14.00" fill="#000000">Digit</text>
</g>
<!-- 5682009159511321117&#45;&gt;&#45;5381910463637424421 -->
<g id="edge16" class="edge">
<title>5682009159511321117&#45;&gt;&#45;5381910463637424421</title>
<path fill="none" stroke="#000000" stroke-width=".5" d="M173.8208,-79.6446C173.8208,-74.1937 173.8208,-67.6819 173.8208,-62.2453"/>
</g>
<!-- &#45;485094540907243596 -->
<g id="node14" class="node">
<title>&#45;485094540907243596</title>
<path fill="none" stroke="#000000" stroke-width="1.25" d="M176.3208,-22C176.3208,-22 171.3208,-22 171.3208,-22 168.8208,-22 166.3208,-19.5 166.3208,-17 166.3208,-17 166.3208,-5 166.3208,-5 166.3208,-2.5 168.8208,0 171.3208,0 171.3208,0 176.3208,0 176.3208,0 178.8208,0 181.3208,-2.5 181.3208,-5 181.3208,-5 181.3208,-17 181.3208,-17 181.3208,-19.5 178.8208,-22 176.3208,-22"/>
<text text-anchor="middle" x="173.8208" y="-6.8" font-family="Times,serif" font-size="14.00" fill="#000000">5</text>
</g>
<!-- &#45;5381910463637424421&#45;&gt;&#45;485094540907243596 -->
<g id="edge17" class="edge">
<title>&#45;5381910463637424421&#45;&gt;&#45;485094540907243596</title>
<path fill="none" stroke="#000000" stroke-width=".5" d="M173.8208,-39.6446C173.8208,-34.1937 173.8208,-27.6819 173.8208,-22.2453"/>
</g>
<!-- 6387066897248151958&#45;&gt;5753399593017094335 -->
<!-- 5753399593017094335&#45;&gt;5681992763953831565 -->
<!-- 9048491001294693603 -->
<g id="node18" class="node">
<title>9048491001294693603</title>
<path fill="none" stroke="#000000" stroke-width="1.25" d="M267.4528,-62C267.4528,-62 262.1889,-62 262.1889,-62 259.5569,-62 256.925,-59.3681 256.925,-56.7361 256.925,-56.7361 256.925,-45.2639 256.925,-45.2639 256.925,-42.6319 259.5569,-40 262.1889,-40 262.1889,-40 267.4528,-40 267.4528,-40 270.0847,-40 272.7166,-42.6319 272.7166,-45.2639 272.7166,-45.2639 272.7166,-56.7361 272.7166,-56.7361 272.7166,-59.3681 270.0847,-62 267.4528,-62"/>
<text text-anchor="middle" x="264.8208" y="-46.8" font-family="Times,serif" font-size="14.00" fill="#000000">+</text>
</g>
<!-- 5753399593017094335&#45;&gt;9048491001294693603 -->
<g id="edge23" class="edge">
<title>5753399593017094335&#45;&gt;9048491001294693603</title>
<path fill="none" stroke="#000000" stroke-width=".5" d="M264.8208,-79.6446C264.8208,-74.1937 264.8208,-67.6819 264.8208,-62.2453"/>
</g>
<!-- &#45;5381905418849429129 -->
<g id="node19" class="node">
<title>&#45;5381905418849429129</title>
<path fill="none" stroke="#000000" stroke-width=".25" d="M334.7674,-62C334.7674,-62 312.8742,-62 312.8742,-62 309.2075,-62 305.5408,-58.3333 305.5408,-54.6667 305.5408,-54.6667 305.5408,-47.3333 305.5408,-47.3333 305.5408,-43.6667 309.2075,-40 312.8742,-40 312.8742,-40 334.7674,-40 334.7674,-40 338.4341,-40 342.1008,-43.6667 342.1008,-47.3333 342.1008,-47.3333 342.1008,-54.6667 342.1008,-54.6667 342.1008,-58.3333 338.4341,-62 334.7674,-62"/>
<text text-anchor="middle" x="323.8208" y="-46.8" font-family="Times,serif" font-size="14.00" fill="#000000">Digit</text>
</g>
<!-- 5681992763953831565&#45;&gt;&#45;5381905418849429129 -->
<g id="edge24" class="edge">
<title>5681992763953831565&#45;&gt;&#45;5381905418849429129</title>
<path fill="none" stroke="#000000" stroke-width=".5" d="M323.8208,-79.6446C323.8208,-74.1937 323.8208,-67.6819 323.8208,-62.2453"/>
</g>
<!-- &#45;3141143747761181689 -->
<g id="node20" class="node">
<title>&#45;3141143747761181689</title>
<path fill="none" stroke="#000000" stroke-width="1.25" d="M326.3208,-22C326.3208,-22 321.3208,-22 321.3208,-22 318.8208,-22 316.3208,-19.5 316.3208,-17 316.3208,-17 316.3208,-5 316.3208,-5 316.3208,-2.5 318.8208,0 321.3208,0 321.3208,0 326.3208,0 326.3208,0 328.8208,0 331.3208,-2.5 331.3208,-5 331.3208,-5 331.3208,-17 331.3208,-17 331.3208,-19.5 328.8208,-22 326.3208,-22"/>
<text text-anchor="middle" x="323.8208" y="-6.8" font-family="Times,serif" font-size="14.00" fill="#000000">1</text>
</g>
<!-- &#45;5381905418849429129&#45;&gt;&#45;3141143747761181689 -->
<g id="edge25" class="edge">
<title>&#45;5381905418849429129&#45;&gt;&#45;3141143747761181689</title>
<path fill="none" stroke="#000000" stroke-width=".5" d="M323.8208,-39.6446C323.8208,-34.1937 323.8208,-27.6819 323.8208,-22.2453"/>
</g>
</g>
</svg>
