<?xml version="1.0" encoding="UTF-8" standalone="no"?>
<!DOCTYPE svg PUBLIC "-//W3C//DTD SVG 1.1//EN"
 "http://www.w3.org/Graphics/SVG/1.1/DTD/svg11.dtd">
<!-- Generated by graphviz version 2.40.1 (20161225.0304)
 -->
<!-- Title: %3 Pages: 1 -->
<svg width="253pt" height="236pt"
 viewBox="0.00 0.00 252.87 236.08" xmlns="http://www.w3.org/2000/svg" xmlns:xlink="http://www.w3.org/1999/xlink">
<g id="graph0" class="graph" transform="scale(1 1) rotate(0) translate(4 232.08)">
<title>%3</title>
<polygon fill="#ffffff" stroke="transparent" points="-4,4 -4,-232.08 248.8657,-232.08 248.8657,4 -4,4"/>
<!-- 8812567578865088119 -->
<!-- &#45;208563236840120576 -->
<!-- 8812567578865088119&#45;&gt;&#45;208563236840120576 -->
<!-- 3632553113456214635 -->
<g id="node2" class="node">
<title>3632553113456214635</title>
<path fill="none" stroke="#000000" stroke-width=".25" d="M170.3546,-228.08C170.3546,-228.08 165.1629,-228.08 165.1629,-228.08 162.5671,-228.08 159.9712,-225.4841 159.9712,-222.8883 159.9712,-222.8883 159.9712,-211.2717 159.9712,-211.2717 159.9712,-208.6759 162.5671,-206.08 165.1629,-206.08 165.1629,-206.08 170.3546,-206.08 170.3546,-206.08 172.9505,-206.08 175.5464,-208.6759 175.5464,-211.2717 175.5464,-211.2717 175.5464,-222.8883 175.5464,-222.8883 175.5464,-225.4841 172.9505,-228.08 170.3546,-228.08"/>
<text text-anchor="middle" x="167.7588" y="-212.88" font-family="Times,serif" font-size="14.00" fill="#000000">S</text>
</g>
<!-- 9021150253187297951 -->
<g id="node4" class="node">
<title>9021150253187297951</title>
<path fill="none" stroke="#000000" stroke-width="1.25" d="M137.164,-188.08C137.164,-188.08 132.3536,-188.08 132.3536,-188.08 129.9485,-188.08 127.5433,-185.6748 127.5433,-183.2697 127.5433,-183.2697 127.5433,-170.8903 127.5433,-170.8903 127.5433,-168.4852 129.9485,-166.08 132.3536,-166.08 132.3536,-166.08 137.164,-166.08 137.164,-166.08 139.5691,-166.08 141.9743,-168.4852 141.9743,-170.8903 141.9743,-170.8903 141.9743,-183.2697 141.9743,-183.2697 141.9743,-185.6748 139.5691,-188.08 137.164,-188.08"/>
<text text-anchor="middle" x="134.7588" y="-172.88" font-family="Times,serif" font-size="14.00" fill="#000000">a</text>
</g>
<!-- 3632553113456214635&#45;&gt;9021150253187297951 -->
<g id="edge2" class="edge">
<title>3632553113456214635&#45;&gt;9021150253187297951</title>
<path fill="none" stroke="#000000" stroke-width=".5" d="M159.7704,-207.3971C154.3531,-200.8307 147.2501,-192.221 141.9982,-185.8551"/>
</g>
<!-- 3632554374652048409 -->
<g id="node5" class="node">
<title>3632554374652048409</title>
<path fill="none" stroke="#000000" stroke-width=".25" d="M170.3546,-188.08C170.3546,-188.08 165.1629,-188.08 165.1629,-188.08 162.5671,-188.08 159.9712,-185.4841 159.9712,-182.8883 159.9712,-182.8883 159.9712,-171.2717 159.9712,-171.2717 159.9712,-168.6759 162.5671,-166.08 165.1629,-166.08 165.1629,-166.08 170.3546,-166.08 170.3546,-166.08 172.9505,-166.08 175.5464,-168.6759 175.5464,-171.2717 175.5464,-171.2717 175.5464,-182.8883 175.5464,-182.8883 175.5464,-185.4841 172.9505,-188.08 170.3546,-188.08"/>
<text text-anchor="middle" x="167.7588" y="-172.88" font-family="Times,serif" font-size="14.00" fill="#000000">S</text>
</g>
<!-- 3632553113456214635&#45;&gt;3632554374652048409 -->
<g id="edge3" class="edge">
<title>3632553113456214635&#45;&gt;3632554374652048409</title>
<path fill="none" stroke="#000000" stroke-width=".5" d="M167.7588,-205.7246C167.7588,-200.2737 167.7588,-193.7619 167.7588,-188.3253"/>
</g>
<!-- &#45;6568407862416284155 -->
<g id="node6" class="node">
<title>&#45;6568407862416284155</title>
<path fill="none" stroke="#000000" stroke-width=".25" d="M205.7957,-188.08C205.7957,-188.08 199.7219,-188.08 199.7219,-188.08 196.685,-188.08 193.6481,-185.0431 193.6481,-182.0062 193.6481,-182.0062 193.6481,-172.1538 193.6481,-172.1538 193.6481,-169.1169 196.685,-166.08 199.7219,-166.08 199.7219,-166.08 205.7957,-166.08 205.7957,-166.08 208.8326,-166.08 211.8695,-169.1169 211.8695,-172.1538 211.8695,-172.1538 211.8695,-182.0062 211.8695,-182.0062 211.8695,-185.0431 208.8326,-188.08 205.7957,-188.08"/>
<text text-anchor="middle" x="202.7588" y="-172.88" font-family="Times,serif" font-size="14.00" fill="#000000">Q</text>
</g>
<!-- 3632553113456214635&#45;&gt;&#45;6568407862416284155 -->
<g id="edge4" class="edge">
<title>3632553113456214635&#45;&gt;&#45;6568407862416284155</title>
<path fill="none" stroke="#000000" stroke-width=".5" d="M175.8765,-207.8027C181.2077,-201.7098 188.1883,-193.732 193.6999,-187.433"/>
</g>
<!-- &#45;5891597599289145897 -->
<!-- &#45;208563236840120576&#45;&gt;&#45;5891597599289145897 -->
<!-- 9021150253187297951&#45;&gt;3632554374652048409 -->
<!-- 3632554374652048409&#45;&gt;&#45;6568407862416284155 -->
<!-- 9021154036778294420 -->
<g id="node8" class="node">
<title>9021154036778294420</title>
<path fill="none" stroke="#000000" stroke-width="1.25" d="M121.164,-148.08C121.164,-148.08 116.3536,-148.08 116.3536,-148.08 113.9485,-148.08 111.5433,-145.6748 111.5433,-143.2697 111.5433,-143.2697 111.5433,-130.8903 111.5433,-130.8903 111.5433,-128.4852 113.9485,-126.08 116.3536,-126.08 116.3536,-126.08 121.164,-126.08 121.164,-126.08 123.5691,-126.08 125.9743,-128.4852 125.9743,-130.8903 125.9743,-130.8903 125.9743,-143.2697 125.9743,-143.2697 125.9743,-145.6748 123.5691,-148.08 121.164,-148.08"/>
<text text-anchor="middle" x="118.7588" y="-132.88" font-family="Times,serif" font-size="14.00" fill="#000000">a</text>
</g>
<!-- 3632554374652048409&#45;&gt;9021154036778294420 -->
<g id="edge8" class="edge">
<title>3632554374652048409&#45;&gt;9021154036778294420</title>
<path fill="none" stroke="#000000" stroke-width=".5" d="M159.6674,-170.4748C150.3167,-162.8416 135.0642,-150.3905 126.0615,-143.0414"/>
</g>
<!-- &#45;314709852030816943 -->
<g id="node9" class="node">
<title>&#45;314709852030816943</title>
<path fill="none" stroke="#000000" stroke-width=".25" d="M154.2588,-148.08C154.2588,-148.08 149.2588,-148.08 149.2588,-148.08 146.7588,-148.08 144.2588,-145.58 144.2588,-143.08 144.2588,-143.08 144.2588,-131.08 144.2588,-131.08 144.2588,-128.58 146.7588,-126.08 149.2588,-126.08 149.2588,-126.08 154.2588,-126.08 154.2588,-126.08 156.7588,-126.08 159.2588,-128.58 159.2588,-131.08 159.2588,-131.08 159.2588,-143.08 159.2588,-143.08 159.2588,-145.58 156.7588,-148.08 154.2588,-148.08"/>
<text text-anchor="middle" x="151.7588" y="-132.88" font-family="Times,serif" font-size="14.00" fill="#000000">b</text>
</g>
<!-- 3632554374652048409&#45;&gt;&#45;314709852030816943 -->
<g id="edge9" class="edge">
<title>3632554374652048409&#45;&gt;&#45;314709852030816943</title>
<path fill="none" stroke="#000000" stroke-width=".5" d="M163.2166,-165.7246C161.0363,-160.2737 158.4315,-153.7619 156.2569,-148.3253"/>
</g>
<!-- &#45;8807655140021839020 -->
<g id="node10" class="node">
<title>&#45;8807655140021839020</title>
<path fill="none" stroke="#000000" stroke-width=".25" d="M187.164,-148.08C187.164,-148.08 182.3536,-148.08 182.3536,-148.08 179.9485,-148.08 177.5433,-145.6748 177.5433,-143.2697 177.5433,-143.2697 177.5433,-130.8903 177.5433,-130.8903 177.5433,-128.4852 179.9485,-126.08 182.3536,-126.08 182.3536,-126.08 187.164,-126.08 187.164,-126.08 189.5691,-126.08 191.9743,-128.4852 191.9743,-130.8903 191.9743,-130.8903 191.9743,-143.2697 191.9743,-143.2697 191.9743,-145.6748 189.5691,-148.08 187.164,-148.08"/>
<text text-anchor="middle" x="184.7588" y="-132.88" font-family="Times,serif" font-size="14.00" fill="#000000">c</text>
</g>
<!-- 3632554374652048409&#45;&gt;&#45;8807655140021839020 -->
<g id="edge10" class="edge">
<title>3632554374652048409&#45;&gt;&#45;8807655140021839020</title>
<path fill="none" stroke="#000000" stroke-width=".5" d="M172.5848,-165.7246C174.9015,-160.2737 177.669,-153.7619 179.9795,-148.3253"/>
</g>
<!-- 1089840960399148223 -->
<g id="node14" class="node">
<title>1089840960399148223</title>
<ellipse fill="#000000" stroke="#000000" cx="203.7588" cy="-105.56" rx="2.52" ry="2.52"/>
</g>
<!-- &#45;6568407862416284155&#45;&gt;1089840960399148223 -->
<g id="edge15" class="edge">
<title>&#45;6568407862416284155&#45;&gt;1089840960399148223</title>
<path fill="none" stroke="#000000" stroke-width=".5" d="M202.915,-165.905C203.1523,-148.933 203.5899,-117.6408 203.7208,-108.2763"/>
</g>
<!-- 3878854404329384724 -->
<!-- &#45;5891597599289145897&#45;&gt;3878854404329384724 -->
<!-- 9021154036778294420&#45;&gt;&#45;314709852030816943 -->
<!-- &#45;314709852030816943&#45;&gt;&#45;8807655140021839020 -->
<!-- 5535854260561603384 -->
<g id="node20" class="node">
<title>5535854260561603384</title>
<ellipse fill="#000000" stroke="#000000" cx="188.7588" cy="-42.52" rx="2.52" ry="2.52"/>
</g>
<!-- &#45;314709852030816943&#45;&gt;5535854260561603384 -->
<g id="edge20" class="edge">
<title>&#45;314709852030816943&#45;&gt;5535854260561603384</title>
<path fill="none" stroke="#000000" stroke-width=".5" d="M152.9716,-125.9592C154.9645,-110.9454 159.8568,-83.6959 170.7588,-63.04 175.0058,-54.9933 183.0073,-47.4742 186.7426,-44.2175"/>
</g>
<!-- &#45;8807655140021839020&#45;&gt;1089840960399148223 -->
<g id="edge14" class="edge">
<title>&#45;8807655140021839020&#45;&gt;1089840960399148223</title>
<path fill="none" stroke="#000000" stroke-width=".5" d="M191.4041,-126.0558C195.3421,-119.5228 200.0017,-111.7928 202.3112,-107.9615"/>
</g>
<!-- &#45;7899997759095907066 -->
<!-- 3878854404329384724&#45;&gt;&#45;7899997759095907066 -->
<!-- &#45;6568405340024616607 -->
<g id="node12" class="node">
<title>&#45;6568405340024616607</title>
<path fill="none" stroke="#000000" stroke-width=".25" d="M191.7957,-85.04C191.7957,-85.04 185.7219,-85.04 185.7219,-85.04 182.685,-85.04 179.6481,-82.0031 179.6481,-78.9662 179.6481,-78.9662 179.6481,-69.1138 179.6481,-69.1138 179.6481,-66.0769 182.685,-63.04 185.7219,-63.04 185.7219,-63.04 191.7957,-63.04 191.7957,-63.04 194.8326,-63.04 197.8695,-66.0769 197.8695,-69.1138 197.8695,-69.1138 197.8695,-78.9662 197.8695,-78.9662 197.8695,-82.0031 194.8326,-85.04 191.7957,-85.04"/>
<text text-anchor="middle" x="188.7588" y="-69.84" font-family="Times,serif" font-size="14.00" fill="#000000">Q</text>
</g>
<!-- &#45;8807656401215342696 -->
<g id="node13" class="node">
<title>&#45;8807656401215342696</title>
<path fill="none" stroke="#000000" stroke-width=".25" d="M225.164,-85.04C225.164,-85.04 220.3536,-85.04 220.3536,-85.04 217.9485,-85.04 215.5433,-82.6348 215.5433,-80.2297 215.5433,-80.2297 215.5433,-67.8503 215.5433,-67.8503 215.5433,-65.4452 217.9485,-63.04 220.3536,-63.04 220.3536,-63.04 225.164,-63.04 225.164,-63.04 227.5691,-63.04 229.9743,-65.4452 229.9743,-67.8503 229.9743,-67.8503 229.9743,-80.2297 229.9743,-80.2297 229.9743,-82.6348 227.5691,-85.04 225.164,-85.04"/>
<text text-anchor="middle" x="222.7588" y="-69.84" font-family="Times,serif" font-size="14.00" fill="#000000">c</text>
</g>
<!-- &#45;6568405340024616607&#45;&gt;&#45;8807656401215342696 -->
<!-- &#45;6568405340024616607&#45;&gt;5535854260561603384 -->
<g id="edge21" class="edge">
<title>&#45;6568405340024616607&#45;&gt;5535854260561603384</title>
<path fill="none" stroke="#000000" stroke-width=".5" d="M188.7588,-63.0158C188.7588,-56.6248 188.7588,-49.0883 188.7588,-45.1768"/>
</g>
<!-- &#45;8807656401215342696&#45;&gt;5535854260561603384 -->
<g id="edge22" class="edge">
<title>&#45;8807656401215342696&#45;&gt;5535854260561603384</title>
<path fill="none" stroke="#000000" stroke-width=".5" d="M215.5483,-67.3554C207.5951,-59.9824 195.3057,-48.5894 190.6413,-44.2652"/>
</g>
<!-- 1089840960399148223&#45;&gt;&#45;6568405340024616607 -->
<g id="edge16" class="edge">
<title>1089840960399148223&#45;&gt;&#45;6568405340024616607</title>
<path fill="none" stroke="#000000" stroke-width=".5" d="M202.5818,-103.0867C200.7585,-99.2553 197.1403,-91.6524 194.0631,-85.186"/>
</g>
<!-- 1089840960399148223&#45;&gt;&#45;8807656401215342696 -->
<g id="edge17" class="edge">
<title>1089840960399148223&#45;&gt;&#45;8807656401215342696</title>
<path fill="none" stroke="#000000" stroke-width=".5" d="M205.2497,-103.0867C207.5592,-99.2553 212.1422,-91.6524 216.04,-85.186"/>
</g>
<!-- &#45;314702284847658956 -->
<g id="node16" class="node">
<title>&#45;314702284847658956</title>
<path fill="none" stroke="#000000" stroke-width="1.25" d="M142.2588,-22C142.2588,-22 137.2588,-22 137.2588,-22 134.7588,-22 132.2588,-19.5 132.2588,-17 132.2588,-17 132.2588,-5 132.2588,-5 132.2588,-2.5 134.7588,0 137.2588,0 137.2588,0 142.2588,0 142.2588,0 144.7588,0 147.2588,-2.5 147.2588,-5 147.2588,-5 147.2588,-17 147.2588,-17 147.2588,-19.5 144.7588,-22 142.2588,-22"/>
<text text-anchor="middle" x="139.7588" y="-6.8" font-family="Times,serif" font-size="14.00" fill="#000000">b</text>
</g>
<!-- &#45;314702284848824005 -->
<g id="node17" class="node">
<title>&#45;314702284848824005</title>
<path fill="none" stroke="#000000" stroke-width="1.25" d="M175.2588,-22C175.2588,-22 170.2588,-22 170.2588,-22 167.7588,-22 165.2588,-19.5 165.2588,-17 165.2588,-17 165.2588,-5 165.2588,-5 165.2588,-2.5 167.7588,0 170.2588,0 170.2588,0 175.2588,0 175.2588,0 177.7588,0 180.2588,-2.5 180.2588,-5 180.2588,-5 180.2588,-17 180.2588,-17 180.2588,-19.5 177.7588,-22 175.2588,-22"/>
<text text-anchor="middle" x="172.7588" y="-6.8" font-family="Times,serif" font-size="14.00" fill="#000000">b</text>
</g>
<!-- &#45;314702284847658956&#45;&gt;&#45;314702284848824005 -->
<!-- &#45;8807657662411176470 -->
<g id="node18" class="node">
<title>&#45;8807657662411176470</title>
<path fill="none" stroke="#000000" stroke-width="1.25" d="M208.164,-22C208.164,-22 203.3536,-22 203.3536,-22 200.9485,-22 198.5433,-19.5948 198.5433,-17.1897 198.5433,-17.1897 198.5433,-4.8103 198.5433,-4.8103 198.5433,-2.4052 200.9485,0 203.3536,0 203.3536,0 208.164,0 208.164,0 210.5691,0 212.9743,-2.4052 212.9743,-4.8103 212.9743,-4.8103 212.9743,-17.1897 212.9743,-17.1897 212.9743,-19.5948 210.5691,-22 208.164,-22"/>
<text text-anchor="middle" x="205.7588" y="-6.8" font-family="Times,serif" font-size="14.00" fill="#000000">c</text>
</g>
<!-- &#45;314702284848824005&#45;&gt;&#45;8807657662411176470 -->
<!-- &#45;8807657662412341519 -->
<g id="node19" class="node">
<title>&#45;8807657662412341519</title>
<path fill="none" stroke="#000000" stroke-width="1.25" d="M240.164,-22C240.164,-22 235.3536,-22 235.3536,-22 232.9485,-22 230.5433,-19.5948 230.5433,-17.1897 230.5433,-17.1897 230.5433,-4.8103 230.5433,-4.8103 230.5433,-2.4052 232.9485,0 235.3536,0 235.3536,0 240.164,0 240.164,0 242.5691,0 244.9743,-2.4052 244.9743,-4.8103 244.9743,-4.8103 244.9743,-17.1897 244.9743,-17.1897 244.9743,-19.5948 242.5691,-22 240.164,-22"/>
<text text-anchor="middle" x="237.7588" y="-6.8" font-family="Times,serif" font-size="14.00" fill="#000000">c</text>
</g>
<!-- &#45;8807657662411176470&#45;&gt;&#45;8807657662412341519 -->
<!-- 5535854260561603384&#45;&gt;&#45;314702284847658956 -->
<g id="edge23" class="edge">
<title>5535854260561603384&#45;&gt;&#45;314702284847658956</title>
<path fill="none" stroke="#000000" stroke-width=".5" d="M186.3333,-41.0642C180.8404,-37.756 167.0503,-29.3865 155.7588,-22 153.0507,-20.2285 150.1237,-18.2387 147.5227,-16.4435"/>
</g>
<!-- 5535854260561603384&#45;&gt;&#45;314702284848824005 -->
<g id="edge24" class="edge">
<title>5535854260561603384&#45;&gt;&#45;314702284848824005</title>
<path fill="none" stroke="#000000" stroke-width=".5" d="M187.5033,-40.0467C185.5584,-36.2153 181.6991,-28.6124 178.4167,-22.146"/>
</g>
<!-- 5535854260561603384&#45;&gt;&#45;8807657662411176470 -->
<g id="edge25" class="edge">
<title>5535854260561603384&#45;&gt;&#45;8807657662411176470</title>
<path fill="none" stroke="#000000" stroke-width=".5" d="M190.0928,-40.0467C192.1592,-36.2153 196.2597,-28.6124 199.7473,-22.146"/>
</g>
<!-- 5535854260561603384&#45;&gt;&#45;8807657662412341519 -->
<g id="edge26" class="edge">
<title>5535854260561603384&#45;&gt;&#45;8807657662412341519</title>
<path fill="none" stroke="#000000" stroke-width=".5" d="M191.1843,-41.0642C196.6771,-37.756 210.4673,-29.3865 221.7588,-22 224.6926,-20.0808 227.8833,-17.9055 230.638,-15.999"/>
</g>
</g>
</svg>
