<?xml version="1.0" encoding="UTF-8" standalone="no"?>
<!DOCTYPE svg PUBLIC "-//W3C//DTD SVG 1.1//EN"
 "http://www.w3.org/Graphics/SVG/1.1/DTD/svg11.dtd">
<!-- Generated by graphviz version 2.40.1 (20161225.0304)
 -->
<!-- Title: %3 Pages: 1 -->
<svg width="463pt" height="550pt"
 viewBox="0.00 0.00 463.08 550.00" xmlns="http://www.w3.org/2000/svg" xmlns:xlink="http://www.w3.org/1999/xlink">
<g id="graph0" class="graph" transform="scale(1 1) rotate(0) translate(4 546)">
<title>%3</title>
<polygon fill="#ffffff" stroke="transparent" points="-4,4 -4,-546 459.0796,-546 459.0796,4 -4,4"/>
<!-- 2274675410481489075 -->
<!-- 821303785892311371 -->
<!-- 2274675410481489075&#45;&gt;821303785892311371 -->
<!-- 5465509879779613120 -->
<g id="node2" class="node">
<title>5465509879779613120</title>
<path fill="none" stroke="#000000" stroke-width=".25" d="M288.8016,-542C288.8016,-542 249.716,-542 249.716,-542 246.0493,-542 242.3827,-538.3333 242.3827,-534.6667 242.3827,-534.6667 242.3827,-527.3333 242.3827,-527.3333 242.3827,-523.6667 246.0493,-520 249.716,-520 249.716,-520 288.8016,-520 288.8016,-520 292.4682,-520 296.1349,-523.6667 296.1349,-527.3333 296.1349,-527.3333 296.1349,-534.6667 296.1349,-534.6667 296.1349,-538.3333 292.4682,-542 288.8016,-542"/>
<text text-anchor="middle" x="269.2588" y="-526.8" font-family="Times,serif" font-size="14.00" fill="#000000">Number</text>
</g>
<!-- 8176512831841374253 -->
<g id="node4" class="node">
<title>8176512831841374253</title>
<path fill="none" stroke="#000000" stroke-width=".25" d="M278.5825,-502C278.5825,-502 259.9351,-502 259.9351,-502 256.2684,-502 252.6018,-498.3333 252.6018,-494.6667 252.6018,-494.6667 252.6018,-487.3333 252.6018,-487.3333 252.6018,-483.6667 256.2684,-480 259.9351,-480 259.9351,-480 278.5825,-480 278.5825,-480 282.2491,-480 285.9158,-483.6667 285.9158,-487.3333 285.9158,-487.3333 285.9158,-494.6667 285.9158,-494.6667 285.9158,-498.3333 282.2491,-502 278.5825,-502"/>
<text text-anchor="middle" x="269.2588" y="-486.8" font-family="Times,serif" font-size="14.00" fill="#000000">Real</text>
</g>
<!-- 5465509879779613120&#45;&gt;8176512831841374253 -->
<g id="edge2" class="edge">
<title>5465509879779613120&#45;&gt;8176512831841374253</title>
<path fill="none" stroke="#000000" stroke-width=".5" d="M269.2588,-519.6446C269.2588,-514.1937 269.2588,-507.6819 269.2588,-502.2453"/>
</g>
<!-- &#45;5669898871303867245 -->
<!-- 821303785892311371&#45;&gt;&#45;5669898871303867245 -->
<!-- 5508583170872738663 -->
<g id="node6" class="node">
<title>5508583170872738663</title>
<path fill="none" stroke="#000000" stroke-width=".25" d="M215.5684,-462C215.5684,-462 182.9492,-462 182.9492,-462 179.2825,-462 175.6158,-458.3333 175.6158,-454.6667 175.6158,-454.6667 175.6158,-447.3333 175.6158,-447.3333 175.6158,-443.6667 179.2825,-440 182.9492,-440 182.9492,-440 215.5684,-440 215.5684,-440 219.2351,-440 222.9017,-443.6667 222.9017,-447.3333 222.9017,-447.3333 222.9017,-454.6667 222.9017,-454.6667 222.9017,-458.3333 219.2351,-462 215.5684,-462"/>
<text text-anchor="middle" x="199.2588" y="-446.8" font-family="Times,serif" font-size="14.00" fill="#000000">Integer</text>
</g>
<!-- 8176512831841374253&#45;&gt;5508583170872738663 -->
<g id="edge4" class="edge">
<title>8176512831841374253&#45;&gt;5508583170872738663</title>
<path fill="none" stroke="#000000" stroke-width=".5" d="M252.3137,-481.3171C242.1172,-475.4905 229.1054,-468.0552 218.5197,-462.0063"/>
</g>
<!-- 6878044224468587708 -->
<g id="node7" class="node">
<title>6878044224468587708</title>
<path fill="none" stroke="#000000" stroke-width=".25" d="M289.0818,-462C289.0818,-462 249.4358,-462 249.4358,-462 245.7691,-462 242.1024,-458.3333 242.1024,-454.6667 242.1024,-454.6667 242.1024,-447.3333 242.1024,-447.3333 242.1024,-443.6667 245.7691,-440 249.4358,-440 249.4358,-440 289.0818,-440 289.0818,-440 292.7485,-440 296.4151,-443.6667 296.4151,-447.3333 296.4151,-447.3333 296.4151,-454.6667 296.4151,-454.6667 296.4151,-458.3333 292.7485,-462 289.0818,-462"/>
<text text-anchor="middle" x="269.2588" y="-446.8" font-family="Times,serif" font-size="14.00" fill="#000000">Fraction</text>
</g>
<!-- 8176512831841374253&#45;&gt;6878044224468587708 -->
<g id="edge5" class="edge">
<title>8176512831841374253&#45;&gt;6878044224468587708</title>
<path fill="none" stroke="#000000" stroke-width=".5" d="M269.2588,-479.6446C269.2588,-474.1937 269.2588,-467.6819 269.2588,-462.2453"/>
</g>
<!-- 2028554617428675315 -->
<g id="node8" class="node">
<title>2028554617428675315</title>
<path fill="none" stroke="#000000" stroke-width=".25" d="M346.2442,-462C346.2442,-462 322.2734,-462 322.2734,-462 318.6067,-462 314.9401,-458.3333 314.9401,-454.6667 314.9401,-454.6667 314.9401,-447.3333 314.9401,-447.3333 314.9401,-443.6667 318.6067,-440 322.2734,-440 322.2734,-440 346.2442,-440 346.2442,-440 349.9108,-440 353.5775,-443.6667 353.5775,-447.3333 353.5775,-447.3333 353.5775,-454.6667 353.5775,-454.6667 353.5775,-458.3333 349.9108,-462 346.2442,-462"/>
<text text-anchor="middle" x="334.2588" y="-446.8" font-family="Times,serif" font-size="14.00" fill="#000000">Scale</text>
</g>
<!-- 8176512831841374253&#45;&gt;2028554617428675315 -->
<g id="edge6" class="edge">
<title>8176512831841374253&#45;&gt;2028554617428675315</title>
<path fill="none" stroke="#000000" stroke-width=".5" d="M285.9979,-480.699C295.176,-475.0509 306.5669,-468.0412 315.977,-462.2503"/>
</g>
<!-- 7561231962254181255 -->
<!-- &#45;5669898871303867245&#45;&gt;7561231962254181255 -->
<!-- 5508583170872738663&#45;&gt;6878044224468587708 -->
<!-- 5508584432069737486 -->
<g id="node10" class="node">
<title>5508584432069737486</title>
<path fill="none" stroke="#000000" stroke-width=".25" d="M155.5684,-422C155.5684,-422 122.9492,-422 122.9492,-422 119.2825,-422 115.6158,-418.3333 115.6158,-414.6667 115.6158,-414.6667 115.6158,-407.3333 115.6158,-407.3333 115.6158,-403.6667 119.2825,-400 122.9492,-400 122.9492,-400 155.5684,-400 155.5684,-400 159.2351,-400 162.9017,-403.6667 162.9017,-407.3333 162.9017,-407.3333 162.9017,-414.6667 162.9017,-414.6667 162.9017,-418.3333 159.2351,-422 155.5684,-422"/>
<text text-anchor="middle" x="139.2588" y="-406.8" font-family="Times,serif" font-size="14.00" fill="#000000">Integer</text>
</g>
<!-- 5508583170872738663&#45;&gt;5508584432069737486 -->
<g id="edge10" class="edge">
<title>5508583170872738663&#45;&gt;5508584432069737486</title>
<path fill="none" stroke="#000000" stroke-width=".5" d="M182.5454,-439.8578C174.2235,-434.3098 164.1921,-427.6222 155.8825,-422.0825"/>
</g>
<!-- 4406523470758929421 -->
<g id="node11" class="node">
<title>4406523470758929421</title>
<path fill="none" stroke="#000000" stroke-width=".25" d="M210.2054,-422C210.2054,-422 188.3122,-422 188.3122,-422 184.6455,-422 180.9788,-418.3333 180.9788,-414.6667 180.9788,-414.6667 180.9788,-407.3333 180.9788,-407.3333 180.9788,-403.6667 184.6455,-400 188.3122,-400 188.3122,-400 210.2054,-400 210.2054,-400 213.8721,-400 217.5387,-403.6667 217.5387,-407.3333 217.5387,-407.3333 217.5387,-414.6667 217.5387,-414.6667 217.5387,-418.3333 213.8721,-422 210.2054,-422"/>
<text text-anchor="middle" x="199.2588" y="-406.8" font-family="Times,serif" font-size="14.00" fill="#000000">Digit</text>
</g>
<!-- 5508583170872738663&#45;&gt;4406523470758929421 -->
<g id="edge11" class="edge">
<title>5508583170872738663&#45;&gt;4406523470758929421</title>
<path fill="none" stroke="#000000" stroke-width=".5" d="M199.2588,-439.6446C199.2588,-434.1937 199.2588,-427.6819 199.2588,-422.2453"/>
</g>
<!-- 6878044224468587708&#45;&gt;2028554617428675315 -->
<!-- &#45;3501742320349633748 -->
<g id="node19" class="node">
<title>&#45;3501742320349633748</title>
<path fill="none" stroke="#000000" stroke-width="1.25" d="M236.0956,-262C236.0956,-262 232.422,-262 232.422,-262 230.5852,-262 228.7484,-260.1632 228.7484,-258.3264 228.7484,-258.3264 228.7484,-243.6736 228.7484,-243.6736 228.7484,-241.8368 230.5852,-240 232.422,-240 232.422,-240 236.0956,-240 236.0956,-240 237.9324,-240 239.7692,-241.8368 239.7692,-243.6736 239.7692,-243.6736 239.7692,-258.3264 239.7692,-258.3264 239.7692,-260.1632 237.9324,-262 236.0956,-262"/>
<text text-anchor="middle" x="234.2588" y="-246.8" font-family="Times,serif" font-size="14.00" fill="#000000">.</text>
</g>
<!-- 6878044224468587708&#45;&gt;&#45;3501742320349633748 -->
<g id="edge20" class="edge">
<title>6878044224468587708&#45;&gt;&#45;3501742320349633748</title>
<path fill="none" stroke="#000000" stroke-width=".5" d="M263.6924,-439.9221C256.6025,-424.763 245.2588,-396.5207 245.2588,-371 245.2588,-371 245.2588,-371 245.2588,-331 245.2588,-306.1854 240.0003,-277.4413 236.7549,-262.0639"/>
</g>
<!-- 5508579387280577145 -->
<g id="node20" class="node">
<title>5508579387280577145</title>
<path fill="none" stroke="#000000" stroke-width=".25" d="M298.5684,-262C298.5684,-262 265.9492,-262 265.9492,-262 262.2825,-262 258.6158,-258.3333 258.6158,-254.6667 258.6158,-254.6667 258.6158,-247.3333 258.6158,-247.3333 258.6158,-243.6667 262.2825,-240 265.9492,-240 265.9492,-240 298.5684,-240 298.5684,-240 302.2351,-240 305.9017,-243.6667 305.9017,-247.3333 305.9017,-247.3333 305.9017,-254.6667 305.9017,-254.6667 305.9017,-258.3333 302.2351,-262 298.5684,-262"/>
<text text-anchor="middle" x="282.2588" y="-246.8" font-family="Times,serif" font-size="14.00" fill="#000000">Integer</text>
</g>
<!-- 6878044224468587708&#45;&gt;5508579387280577145 -->
<g id="edge21" class="edge">
<title>6878044224468587708&#45;&gt;5508579387280577145</title>
<path fill="none" stroke="#000000" stroke-width=".5" d="M272.4356,-439.9767C276.5662,-424.6465 283.2588,-395.9569 283.2588,-371 283.2588,-371 283.2588,-371 283.2588,-331 283.2588,-306.4147 282.7807,-277.5829 282.4857,-262.1295"/>
</g>
<!-- 976385980652331869 -->
<g id="node26" class="node">
<title>976385980652331869</title>
<path fill="none" stroke="#000000" stroke-width="1.25" d="M332.664,-142C332.664,-142 327.8536,-142 327.8536,-142 325.4485,-142 323.0433,-139.5948 323.0433,-137.1897 323.0433,-137.1897 323.0433,-124.8103 323.0433,-124.8103 323.0433,-122.4052 325.4485,-120 327.8536,-120 327.8536,-120 332.664,-120 332.664,-120 335.0691,-120 337.4743,-122.4052 337.4743,-124.8103 337.4743,-124.8103 337.4743,-137.1897 337.4743,-137.1897 337.4743,-139.5948 335.0691,-142 332.664,-142"/>
<text text-anchor="middle" x="330.2588" y="-126.8" font-family="Times,serif" font-size="14.00" fill="#000000">e</text>
</g>
<!-- 2028554617428675315&#45;&gt;976385980652331869 -->
<g id="edge28" class="edge">
<title>2028554617428675315&#45;&gt;976385980652331869</title>
<path fill="none" stroke="#000000" stroke-width=".5" d="M334.2588,-439.87C334.2588,-424.4159 334.2588,-395.5833 334.2588,-371 334.2588,-371 334.2588,-371 334.2588,-211 334.2588,-186.386 332.3466,-157.5651 331.1665,-142.1212"/>
</g>
<!-- 5224217786263085710 -->
<g id="node27" class="node">
<title>5224217786263085710</title>
<path fill="none" stroke="#000000" stroke-width=".25" d="M381.6028,-142C381.6028,-142 362.9148,-142 362.9148,-142 359.2481,-142 355.5815,-138.3333 355.5815,-134.6667 355.5815,-134.6667 355.5815,-127.3333 355.5815,-127.3333 355.5815,-123.6667 359.2481,-120 362.9148,-120 362.9148,-120 381.6028,-120 381.6028,-120 385.2694,-120 388.9361,-123.6667 388.9361,-127.3333 388.9361,-127.3333 388.9361,-134.6667 388.9361,-134.6667 388.9361,-138.3333 385.2694,-142 381.6028,-142"/>
<text text-anchor="middle" x="372.2588" y="-126.8" font-family="Times,serif" font-size="14.00" fill="#000000">Sign</text>
</g>
<!-- 2028554617428675315&#45;&gt;5224217786263085710 -->
<g id="edge29" class="edge">
<title>2028554617428675315&#45;&gt;5224217786263085710</title>
<path fill="none" stroke="#000000" stroke-width=".5" d="M343.4575,-439.8693C354.7037,-425.0976 372.2588,-397.7544 372.2588,-371 372.2588,-371 372.2588,-371 372.2588,-211 372.2588,-186.4167 372.2588,-157.5841 372.2588,-142.13"/>
</g>
<!-- 5508593260451059345 -->
<g id="node28" class="node">
<title>5508593260451059345</title>
<path fill="none" stroke="#000000" stroke-width=".25" d="M447.5684,-142C447.5684,-142 414.9492,-142 414.9492,-142 411.2825,-142 407.6158,-138.3333 407.6158,-134.6667 407.6158,-134.6667 407.6158,-127.3333 407.6158,-127.3333 407.6158,-123.6667 411.2825,-120 414.9492,-120 414.9492,-120 447.5684,-120 447.5684,-120 451.2351,-120 454.9017,-123.6667 454.9017,-127.3333 454.9017,-127.3333 454.9017,-134.6667 454.9017,-134.6667 454.9017,-138.3333 451.2351,-142 447.5684,-142"/>
<text text-anchor="middle" x="431.2588" y="-126.8" font-family="Times,serif" font-size="14.00" fill="#000000">Integer</text>
</g>
<!-- 2028554617428675315&#45;&gt;5508593260451059345 -->
<g id="edge30" class="edge">
<title>2028554617428675315&#45;&gt;5508593260451059345</title>
<path fill="none" stroke="#000000" stroke-width=".5" d="M353.7735,-443.1583C379.1471,-431.5198 420.2588,-407.0934 420.2588,-371 420.2588,-371 420.2588,-371 420.2588,-211 420.2588,-186.1854 425.5173,-157.4413 428.7627,-142.0639"/>
</g>
<!-- 8367579817054949371 -->
<!-- 7561231962254181255&#45;&gt;8367579817054949371 -->
<!-- 5508584432069737486&#45;&gt;4406523470758929421 -->
<!-- 4406519687169098001 -->
<g id="node13" class="node">
<title>4406519687169098001</title>
<path fill="none" stroke="#000000" stroke-width=".25" d="M150.2054,-382C150.2054,-382 128.3122,-382 128.3122,-382 124.6455,-382 120.9788,-378.3333 120.9788,-374.6667 120.9788,-374.6667 120.9788,-367.3333 120.9788,-367.3333 120.9788,-363.6667 124.6455,-360 128.3122,-360 128.3122,-360 150.2054,-360 150.2054,-360 153.8721,-360 157.5387,-363.6667 157.5387,-367.3333 157.5387,-367.3333 157.5387,-374.6667 157.5387,-374.6667 157.5387,-378.3333 153.8721,-382 150.2054,-382"/>
<text text-anchor="middle" x="139.2588" y="-366.8" font-family="Times,serif" font-size="14.00" fill="#000000">Digit</text>
</g>
<!-- 5508584432069737486&#45;&gt;4406519687169098001 -->
<g id="edge14" class="edge">
<title>5508584432069737486&#45;&gt;4406519687169098001</title>
<path fill="none" stroke="#000000" stroke-width=".5" d="M139.2588,-399.6446C139.2588,-394.1937 139.2588,-387.6819 139.2588,-382.2453"/>
</g>
<!-- &#45;6011358997758867053 -->
<g id="node17" class="node">
<title>&#45;6011358997758867053</title>
<path fill="none" stroke="#000000" stroke-width="1.25" d="M201.7588,-302C201.7588,-302 196.7588,-302 196.7588,-302 194.2588,-302 191.7588,-299.5 191.7588,-297 191.7588,-297 191.7588,-285 191.7588,-285 191.7588,-282.5 194.2588,-280 196.7588,-280 196.7588,-280 201.7588,-280 201.7588,-280 204.2588,-280 206.7588,-282.5 206.7588,-285 206.7588,-285 206.7588,-297 206.7588,-297 206.7588,-299.5 204.2588,-302 201.7588,-302"/>
<text text-anchor="middle" x="199.2588" y="-286.8" font-family="Times,serif" font-size="14.00" fill="#000000">2</text>
</g>
<!-- 4406523470758929421&#45;&gt;&#45;6011358997758867053 -->
<g id="edge18" class="edge">
<title>4406523470758929421&#45;&gt;&#45;6011358997758867053</title>
<path fill="none" stroke="#000000" stroke-width=".5" d="M199.2588,-399.9258C199.2588,-377.0653 199.2588,-324.885 199.2588,-302.0475"/>
</g>
<!-- 7561131039434899913 -->
<!-- 8367579817054949371&#45;&gt;7561131039434899913 -->
<!-- &#45;704270012368181390 -->
<g id="node15" class="node">
<title>&#45;704270012368181390</title>
<path fill="none" stroke="#000000" stroke-width="1.25" d="M141.7588,-342C141.7588,-342 136.7588,-342 136.7588,-342 134.2588,-342 131.7588,-339.5 131.7588,-337 131.7588,-337 131.7588,-325 131.7588,-325 131.7588,-322.5 134.2588,-320 136.7588,-320 136.7588,-320 141.7588,-320 141.7588,-320 144.2588,-320 146.7588,-322.5 146.7588,-325 146.7588,-325 146.7588,-337 146.7588,-337 146.7588,-339.5 144.2588,-342 141.7588,-342"/>
<text text-anchor="middle" x="139.2588" y="-326.8" font-family="Times,serif" font-size="14.00" fill="#000000">3</text>
</g>
<!-- 4406519687169098001&#45;&gt;&#45;704270012368181390 -->
<g id="edge16" class="edge">
<title>4406519687169098001&#45;&gt;&#45;704270012368181390</title>
<path fill="none" stroke="#000000" stroke-width=".5" d="M139.2588,-359.6446C139.2588,-354.1937 139.2588,-347.6819 139.2588,-342.2453"/>
</g>
<!-- 8841516090159448141 -->
<!-- 7561131039434899913&#45;&gt;8841516090159448141 -->
<!-- 1362121359226245662 -->
<!-- 8841516090159448141&#45;&gt;1362121359226245662 -->
<!-- &#45;9223187625355942014 -->
<!-- 1362121359226245662&#45;&gt;&#45;9223187625355942014 -->
<!-- &#45;3501742320349633748&#45;&gt;5508579387280577145 -->
<!-- 4406514642381102709 -->
<g id="node22" class="node">
<title>4406514642381102709</title>
<path fill="none" stroke="#000000" stroke-width=".25" d="M293.2054,-222C293.2054,-222 271.3122,-222 271.3122,-222 267.6455,-222 263.9788,-218.3333 263.9788,-214.6667 263.9788,-214.6667 263.9788,-207.3333 263.9788,-207.3333 263.9788,-203.6667 267.6455,-200 271.3122,-200 271.3122,-200 293.2054,-200 293.2054,-200 296.8721,-200 300.5387,-203.6667 300.5387,-207.3333 300.5387,-207.3333 300.5387,-214.6667 300.5387,-214.6667 300.5387,-218.3333 296.8721,-222 293.2054,-222"/>
<text text-anchor="middle" x="282.2588" y="-206.8" font-family="Times,serif" font-size="14.00" fill="#000000">Digit</text>
</g>
<!-- 5508579387280577145&#45;&gt;4406514642381102709 -->
<g id="edge24" class="edge">
<title>5508579387280577145&#45;&gt;4406514642381102709</title>
<path fill="none" stroke="#000000" stroke-width=".5" d="M282.2588,-239.6446C282.2588,-234.1937 282.2588,-227.6819 282.2588,-222.2453"/>
</g>
<!-- &#45;2861147045892915714 -->
<!-- &#45;9223187625355942014&#45;&gt;&#45;2861147045892915714 -->
<!-- &#45;8496063639019596110 -->
<g id="node24" class="node">
<title>&#45;8496063639019596110</title>
<path fill="none" stroke="#000000" stroke-width="1.25" d="M284.7588,-182C284.7588,-182 279.7588,-182 279.7588,-182 277.2588,-182 274.7588,-179.5 274.7588,-177 274.7588,-177 274.7588,-165 274.7588,-165 274.7588,-162.5 277.2588,-160 279.7588,-160 279.7588,-160 284.7588,-160 284.7588,-160 287.2588,-160 289.7588,-162.5 289.7588,-165 289.7588,-165 289.7588,-177 289.7588,-177 289.7588,-179.5 287.2588,-182 284.7588,-182"/>
<text text-anchor="middle" x="282.2588" y="-166.8" font-family="Times,serif" font-size="14.00" fill="#000000">5</text>
</g>
<!-- 4406514642381102709&#45;&gt;&#45;8496063639019596110 -->
<g id="edge26" class="edge">
<title>4406514642381102709&#45;&gt;&#45;8496063639019596110</title>
<path fill="none" stroke="#000000" stroke-width=".5" d="M282.2588,-199.6446C282.2588,-194.1937 282.2588,-187.6819 282.2588,-182.2453"/>
</g>
<!-- &#45;6269910653447779308 -->
<!-- &#45;2861147045892915714&#45;&gt;&#45;6269910653447779308 -->
<!-- 3066376150640824263 -->
<!-- &#45;6269910653447779308&#45;&gt;3066376150640824263 -->
<!-- 976385980652331869&#45;&gt;5224217786263085710 -->
<!-- 5224217786263085710&#45;&gt;5508593260451059345 -->
<!-- 6557977297473034104 -->
<g id="node30" class="node">
<title>6557977297473034104</title>
<path fill="none" stroke="#000000" stroke-width="1.25" d="M374.8907,-102C374.8907,-102 369.6268,-102 369.6268,-102 366.9949,-102 364.3629,-99.3681 364.3629,-96.7361 364.3629,-96.7361 364.3629,-85.2639 364.3629,-85.2639 364.3629,-82.6319 366.9949,-80 369.6268,-80 369.6268,-80 374.8907,-80 374.8907,-80 377.5227,-80 380.1546,-82.6319 380.1546,-85.2639 380.1546,-85.2639 380.1546,-96.7361 380.1546,-96.7361 380.1546,-99.3681 377.5227,-102 374.8907,-102"/>
<text text-anchor="middle" x="372.2588" y="-86.8" font-family="Times,serif" font-size="14.00" fill="#000000">+</text>
</g>
<!-- 5224217786263085710&#45;&gt;6557977297473034104 -->
<g id="edge34" class="edge">
<title>5224217786263085710&#45;&gt;6557977297473034104</title>
<path fill="none" stroke="#000000" stroke-width=".5" d="M372.2588,-119.6446C372.2588,-114.1937 372.2588,-107.6819 372.2588,-102.2453"/>
</g>
<!-- 4406509597593107417 -->
<g id="node32" class="node">
<title>4406509597593107417</title>
<path fill="none" stroke="#000000" stroke-width=".25" d="M442.2054,-62C442.2054,-62 420.3122,-62 420.3122,-62 416.6455,-62 412.9788,-58.3333 412.9788,-54.6667 412.9788,-54.6667 412.9788,-47.3333 412.9788,-47.3333 412.9788,-43.6667 416.6455,-40 420.3122,-40 420.3122,-40 442.2054,-40 442.2054,-40 445.8721,-40 449.5387,-43.6667 449.5387,-47.3333 449.5387,-47.3333 449.5387,-54.6667 449.5387,-54.6667 449.5387,-58.3333 445.8721,-62 442.2054,-62"/>
<text text-anchor="middle" x="431.2588" y="-46.8" font-family="Times,serif" font-size="14.00" fill="#000000">Digit</text>
</g>
<!-- 5508593260451059345&#45;&gt;4406509597593107417 -->
<g id="edge36" class="edge">
<title>5508593260451059345&#45;&gt;4406509597593107417</title>
<path fill="none" stroke="#000000" stroke-width=".5" d="M431.2588,-119.8763C431.2588,-104.5921 431.2588,-77.2636 431.2588,-62.0292"/>
</g>
<!-- &#45;8737099865813793690 -->
<!-- 3066376150640824263&#45;&gt;&#45;8737099865813793690 -->
<!-- 6121193994527701101 -->
<!-- &#45;8737099865813793690&#45;&gt;6121193994527701101 -->
<!-- &#45;2927163460594816164 -->
<g id="node34" class="node">
<title>&#45;2927163460594816164</title>
<path fill="none" stroke="#000000" stroke-width="1.25" d="M433.7588,-22C433.7588,-22 428.7588,-22 428.7588,-22 426.2588,-22 423.7588,-19.5 423.7588,-17 423.7588,-17 423.7588,-5 423.7588,-5 423.7588,-2.5 426.2588,0 428.7588,0 428.7588,0 433.7588,0 433.7588,0 436.2588,0 438.7588,-2.5 438.7588,-5 438.7588,-5 438.7588,-17 438.7588,-17 438.7588,-19.5 436.2588,-22 433.7588,-22"/>
<text text-anchor="middle" x="431.2588" y="-6.8" font-family="Times,serif" font-size="14.00" fill="#000000">1</text>
</g>
<!-- 4406509597593107417&#45;&gt;&#45;2927163460594816164 -->
<g id="edge38" class="edge">
<title>4406509597593107417&#45;&gt;&#45;2927163460594816164</title>
<path fill="none" stroke="#000000" stroke-width=".5" d="M431.2588,-39.6446C431.2588,-34.1937 431.2588,-27.6819 431.2588,-22.2453"/>
</g>
</g>
</svg>
