<?xml version="1.0" encoding="UTF-8" standalone="no"?>
<!DOCTYPE svg PUBLIC "-//W3C//DTD SVG 1.1//EN"
 "http://www.w3.org/Graphics/SVG/1.1/DTD/svg11.dtd">
<!-- Generated by graphviz version 2.43.0 (0)
 -->
<!-- Title: %3 Pages: 1 -->
<svg width="354pt" height="236pt"
 viewBox="0.00 0.00 354.00 236.00" xmlns="http://www.w3.org/2000/svg" xmlns:xlink="http://www.w3.org/1999/xlink">
<g id="graph0" class="graph" transform="scale(1 1) rotate(0) translate(4 232)">
<title>%3</title>
<polygon fill="white" stroke="transparent" points="-4,4 -4,-232 350,-232 350,4 -4,4"/>
<!-- 8582667480115501468 -->
<g id="node1" class="node">
<title>8582667480115501468</title>
<path fill="none" stroke="black" stroke-width="0.25" d="M176.83,-228C176.83,-228 138.17,-228 138.17,-228 134.33,-228 130.5,-224.17 130.5,-220.33 130.5,-220.33 130.5,-212.67 130.5,-212.67 130.5,-208.83 134.33,-205 138.17,-205 138.17,-205 176.83,-205 176.83,-205 180.67,-205 184.5,-208.83 184.5,-212.67 184.5,-212.67 184.5,-220.33 184.5,-220.33 184.5,-224.17 180.67,-228 176.83,-228"/>
<text text-anchor="middle" x="157.5" y="-212.8" font-family="Times,serif" font-size="14.00">Number</text>
</g>
<!-- 9111477499374599154 -->
<g id="node2" class="node">
<title>9111477499374599154</title>
<path fill="none" stroke="black" stroke-width="0.25" d="M166.33,-187C166.33,-187 148.67,-187 148.67,-187 144.83,-187 141,-183.17 141,-179.33 141,-179.33 141,-171.67 141,-171.67 141,-167.83 144.83,-164 148.67,-164 148.67,-164 166.33,-164 166.33,-164 170.17,-164 174,-167.83 174,-171.67 174,-171.67 174,-179.33 174,-179.33 174,-183.17 170.17,-187 166.33,-187"/>
<text text-anchor="middle" x="157.5" y="-171.8" font-family="Times,serif" font-size="14.00">Real</text>
</g>
<!-- 8582667480115501468&#45;&gt;9111477499374599154 -->
<g id="edge1" class="edge">
<title>8582667480115501468&#45;&gt;9111477499374599154</title>
<path fill="none" stroke="black" stroke-width="0.5" d="M157.5,-204.84C157.5,-199.34 157.5,-192.65 157.5,-187.14"/>
</g>
<!-- 1023389286653278431 -->
<g id="node3" class="node">
<title>1023389286653278431</title>
<path fill="none" stroke="black" stroke-width="0.25" d="M101.33,-146C101.33,-146 69.67,-146 69.67,-146 65.83,-146 62,-142.17 62,-138.33 62,-138.33 62,-130.67 62,-130.67 62,-126.83 65.83,-123 69.67,-123 69.67,-123 101.33,-123 101.33,-123 105.17,-123 109,-126.83 109,-130.67 109,-130.67 109,-138.33 109,-138.33 109,-142.17 105.17,-146 101.33,-146"/>
<text text-anchor="middle" x="85.5" y="-130.8" font-family="Times,serif" font-size="14.00">Integer</text>
</g>
<!-- 9111477499374599154&#45;&gt;1023389286653278431 -->
<g id="edge2" class="edge">
<title>9111477499374599154&#45;&gt;1023389286653278431</title>
<path fill="none" stroke="black" stroke-width="0.5" d="M140.8,-165.45C130.08,-159.65 116.12,-152.09 104.91,-146.02"/>
</g>
<!-- &#45;955786344410734764 -->
<g id="node4" class="node">
<title>&#45;955786344410734764</title>
<path fill="none" stroke="black" stroke-width="0.25" d="M176.83,-146C176.83,-146 138.17,-146 138.17,-146 134.33,-146 130.5,-142.17 130.5,-138.33 130.5,-138.33 130.5,-130.67 130.5,-130.67 130.5,-126.83 134.33,-123 138.17,-123 138.17,-123 176.83,-123 176.83,-123 180.67,-123 184.5,-126.83 184.5,-130.67 184.5,-130.67 184.5,-138.33 184.5,-138.33 184.5,-142.17 180.67,-146 176.83,-146"/>
<text text-anchor="middle" x="157.5" y="-130.8" font-family="Times,serif" font-size="14.00">Fraction</text>
</g>
<!-- 9111477499374599154&#45;&gt;&#45;955786344410734764 -->
<g id="edge3" class="edge">
<title>9111477499374599154&#45;&gt;&#45;955786344410734764</title>
<path fill="none" stroke="black" stroke-width="0.5" d="M157.5,-163.84C157.5,-158.34 157.5,-151.65 157.5,-146.14"/>
</g>
<!-- &#45;4145995253550890552 -->
<g id="node5" class="node">
<title>&#45;4145995253550890552</title>
<path fill="none" stroke="black" stroke-width="0.25" d="M233.83,-146C233.83,-146 211.17,-146 211.17,-146 207.33,-146 203.5,-142.17 203.5,-138.33 203.5,-138.33 203.5,-130.67 203.5,-130.67 203.5,-126.83 207.33,-123 211.17,-123 211.17,-123 233.83,-123 233.83,-123 237.67,-123 241.5,-126.83 241.5,-130.67 241.5,-130.67 241.5,-138.33 241.5,-138.33 241.5,-142.17 237.67,-146 233.83,-146"/>
<text text-anchor="middle" x="222.5" y="-130.8" font-family="Times,serif" font-size="14.00">Scale</text>
</g>
<!-- 9111477499374599154&#45;&gt;&#45;4145995253550890552 -->
<g id="edge4" class="edge">
<title>9111477499374599154&#45;&gt;&#45;4145995253550890552</title>
<path fill="none" stroke="black" stroke-width="0.5" d="M174.24,-164.46C183.57,-158.86 195.18,-151.89 204.68,-146.19"/>
</g>
<!-- 1023389286653278431&#45;&gt;&#45;955786344410734764 -->
<!-- &#45;1413668560086967262 -->
<g id="node6" class="node">
<title>&#45;1413668560086967262</title>
<path fill="none" stroke="black" stroke-width="0.25" d="M39.33,-105C39.33,-105 7.67,-105 7.67,-105 3.83,-105 0,-101.17 0,-97.33 0,-97.33 0,-89.67 0,-89.67 0,-85.83 3.83,-82 7.67,-82 7.67,-82 39.33,-82 39.33,-82 43.17,-82 47,-85.83 47,-89.67 47,-89.67 47,-97.33 47,-97.33 47,-101.17 43.17,-105 39.33,-105"/>
<text text-anchor="middle" x="23.5" y="-89.8" font-family="Times,serif" font-size="14.00">Integer</text>
</g>
<!-- 1023389286653278431&#45;&gt;&#45;1413668560086967262 -->
<g id="edge7" class="edge">
<title>1023389286653278431&#45;&gt;&#45;1413668560086967262</title>
<path fill="none" stroke="black" stroke-width="0.5" d="M68.56,-122.84C59.81,-117.34 49.17,-110.65 40.42,-105.14"/>
</g>
<!-- &#45;6475183597374223520 -->
<g id="node7" class="node">
<title>&#45;6475183597374223520</title>
<path fill="none" stroke="black" stroke-width="0.25" d="M93.83,-105C93.83,-105 73.17,-105 73.17,-105 69.33,-105 65.5,-101.17 65.5,-97.33 65.5,-97.33 65.5,-89.67 65.5,-89.67 65.5,-85.83 69.33,-82 73.17,-82 73.17,-82 93.83,-82 93.83,-82 97.67,-82 101.5,-85.83 101.5,-89.67 101.5,-89.67 101.5,-97.33 101.5,-97.33 101.5,-101.17 97.67,-105 93.83,-105"/>
<text text-anchor="middle" x="83.5" y="-89.8" font-family="Times,serif" font-size="14.00">Digit</text>
</g>
<!-- 1023389286653278431&#45;&gt;&#45;6475183597374223520 -->
<g id="edge8" class="edge">
<title>1023389286653278431&#45;&gt;&#45;6475183597374223520</title>
<path fill="none" stroke="black" stroke-width="0.5" d="M84.95,-122.84C84.67,-117.34 84.33,-110.65 84.05,-105.14"/>
</g>
<!-- &#45;955786344410734764&#45;&gt;&#45;4145995253550890552 -->
<!-- 7882247763102726669 -->
<g id="node11" class="node">
<title>7882247763102726669</title>
<path fill="none" stroke="black" stroke-width="1.25" d="M127.5,-105C127.5,-105 123.5,-105 123.5,-105 121.5,-105 119.5,-103 119.5,-101 119.5,-101 119.5,-86 119.5,-86 119.5,-84 121.5,-82 123.5,-82 123.5,-82 127.5,-82 127.5,-82 129.5,-82 131.5,-84 131.5,-86 131.5,-86 131.5,-101 131.5,-101 131.5,-103 129.5,-105 127.5,-105"/>
<text text-anchor="middle" x="125.5" y="-89.8" font-family="Times,serif" font-size="14.00">.</text>
</g>
<!-- &#45;955786344410734764&#45;&gt;7882247763102726669 -->
<g id="edge13" class="edge">
<title>&#45;955786344410734764&#45;&gt;7882247763102726669</title>
<path fill="none" stroke="black" stroke-width="0.5" d="M148.76,-122.84C143.28,-116.17 136.36,-107.74 131.5,-101.81"/>
</g>
<!-- &#45;4196729854513107824 -->
<g id="node12" class="node">
<title>&#45;4196729854513107824</title>
<path fill="none" stroke="black" stroke-width="0.25" d="M189.33,-105C189.33,-105 157.67,-105 157.67,-105 153.83,-105 150,-101.17 150,-97.33 150,-97.33 150,-89.67 150,-89.67 150,-85.83 153.83,-82 157.67,-82 157.67,-82 189.33,-82 189.33,-82 193.17,-82 197,-85.83 197,-89.67 197,-89.67 197,-97.33 197,-97.33 197,-101.17 193.17,-105 189.33,-105"/>
<text text-anchor="middle" x="173.5" y="-89.8" font-family="Times,serif" font-size="14.00">Integer</text>
</g>
<!-- &#45;955786344410734764&#45;&gt;&#45;4196729854513107824 -->
<g id="edge14" class="edge">
<title>&#45;955786344410734764&#45;&gt;&#45;4196729854513107824</title>
<path fill="none" stroke="black" stroke-width="0.5" d="M161.87,-122.84C164.13,-117.34 166.88,-110.65 169.13,-105.14"/>
</g>
<!-- &#45;4745593962005875050 -->
<g id="node15" class="node">
<title>&#45;4745593962005875050</title>
<path fill="none" stroke="black" stroke-width="1.25" d="M225,-105C225,-105 220,-105 220,-105 217.5,-105 215,-102.5 215,-100 215,-100 215,-87 215,-87 215,-84.5 217.5,-82 220,-82 220,-82 225,-82 225,-82 227.5,-82 230,-84.5 230,-87 230,-87 230,-100 230,-100 230,-102.5 227.5,-105 225,-105"/>
<text text-anchor="middle" x="222.5" y="-89.8" font-family="Times,serif" font-size="14.00">e</text>
</g>
<!-- &#45;4145995253550890552&#45;&gt;&#45;4745593962005875050 -->
<g id="edge18" class="edge">
<title>&#45;4145995253550890552&#45;&gt;&#45;4745593962005875050</title>
<path fill="none" stroke="black" stroke-width="0.5" d="M222.5,-122.84C222.5,-117.34 222.5,-110.65 222.5,-105.14"/>
</g>
<!-- &#45;3872810110470242094 -->
<g id="node16" class="node">
<title>&#45;3872810110470242094</title>
<path fill="none" stroke="black" stroke-width="0.25" d="M273.33,-105C273.33,-105 255.67,-105 255.67,-105 251.83,-105 248,-101.17 248,-97.33 248,-97.33 248,-89.67 248,-89.67 248,-85.83 251.83,-82 255.67,-82 255.67,-82 273.33,-82 273.33,-82 277.17,-82 281,-85.83 281,-89.67 281,-89.67 281,-97.33 281,-97.33 281,-101.17 277.17,-105 273.33,-105"/>
<text text-anchor="middle" x="264.5" y="-89.8" font-family="Times,serif" font-size="14.00">Sign</text>
</g>
<!-- &#45;4145995253550890552&#45;&gt;&#45;3872810110470242094 -->
<g id="edge19" class="edge">
<title>&#45;4145995253550890552&#45;&gt;&#45;3872810110470242094</title>
<path fill="none" stroke="black" stroke-width="0.5" d="M233.98,-122.84C239.9,-117.34 247.11,-110.65 253.04,-105.14"/>
</g>
<!-- &#45;5429225015828941647 -->
<g id="node17" class="node">
<title>&#45;5429225015828941647</title>
<path fill="none" stroke="black" stroke-width="0.25" d="M338.33,-105C338.33,-105 306.67,-105 306.67,-105 302.83,-105 299,-101.17 299,-97.33 299,-97.33 299,-89.67 299,-89.67 299,-85.83 302.83,-82 306.67,-82 306.67,-82 338.33,-82 338.33,-82 342.17,-82 346,-85.83 346,-89.67 346,-89.67 346,-97.33 346,-97.33 346,-101.17 342.17,-105 338.33,-105"/>
<text text-anchor="middle" x="322.5" y="-89.8" font-family="Times,serif" font-size="14.00">Integer</text>
</g>
<!-- &#45;4145995253550890552&#45;&gt;&#45;5429225015828941647 -->
<g id="edge20" class="edge">
<title>&#45;4145995253550890552&#45;&gt;&#45;5429225015828941647</title>
<path fill="none" stroke="black" stroke-width="0.5" d="M241.78,-125.98C258.01,-119.65 281.3,-110.57 298.69,-103.79"/>
</g>
<!-- &#45;1413668560086967262&#45;&gt;&#45;6475183597374223520 -->
<!-- 7425219256477452106 -->
<g id="node8" class="node">
<title>7425219256477452106</title>
<path fill="none" stroke="black" stroke-width="0.25" d="M33.83,-64C33.83,-64 13.17,-64 13.17,-64 9.33,-64 5.5,-60.17 5.5,-56.33 5.5,-56.33 5.5,-48.67 5.5,-48.67 5.5,-44.83 9.33,-41 13.17,-41 13.17,-41 33.83,-41 33.83,-41 37.67,-41 41.5,-44.83 41.5,-48.67 41.5,-48.67 41.5,-56.33 41.5,-56.33 41.5,-60.17 37.67,-64 33.83,-64"/>
<text text-anchor="middle" x="23.5" y="-48.8" font-family="Times,serif" font-size="14.00">Digit</text>
</g>
<!-- &#45;1413668560086967262&#45;&gt;7425219256477452106 -->
<g id="edge10" class="edge">
<title>&#45;1413668560086967262&#45;&gt;7425219256477452106</title>
<path fill="none" stroke="black" stroke-width="0.5" d="M23.5,-81.84C23.5,-76.34 23.5,-69.65 23.5,-64.14"/>
</g>
<!-- 5996084112641083533 -->
<g id="node10" class="node">
<title>5996084112641083533</title>
<path fill="none" stroke="black" stroke-width="1.25" d="M86,-64C86,-64 81,-64 81,-64 78.5,-64 76,-61.5 76,-59 76,-59 76,-46 76,-46 76,-43.5 78.5,-41 81,-41 81,-41 86,-41 86,-41 88.5,-41 91,-43.5 91,-46 91,-46 91,-59 91,-59 91,-61.5 88.5,-64 86,-64"/>
<text text-anchor="middle" x="83.5" y="-48.8" font-family="Times,serif" font-size="14.00">2</text>
</g>
<!-- &#45;6475183597374223520&#45;&gt;5996084112641083533 -->
<g id="edge12" class="edge">
<title>&#45;6475183597374223520&#45;&gt;5996084112641083533</title>
<path fill="none" stroke="black" stroke-width="0.5" d="M83.5,-81.84C83.5,-76.34 83.5,-69.65 83.5,-64.14"/>
</g>
<!-- 413520643764249461 -->
<g id="node9" class="node">
<title>413520643764249461</title>
<path fill="none" stroke="black" stroke-width="1.25" d="M26,-23C26,-23 21,-23 21,-23 18.5,-23 16,-20.5 16,-18 16,-18 16,-5 16,-5 16,-2.5 18.5,0 21,0 21,0 26,0 26,0 28.5,0 31,-2.5 31,-5 31,-5 31,-18 31,-18 31,-20.5 28.5,-23 26,-23"/>
<text text-anchor="middle" x="23.5" y="-7.8" font-family="Times,serif" font-size="14.00">3</text>
</g>
<!-- 7425219256477452106&#45;&gt;413520643764249461 -->
<g id="edge11" class="edge">
<title>7425219256477452106&#45;&gt;413520643764249461</title>
<path fill="none" stroke="black" stroke-width="0.5" d="M23.5,-40.84C23.5,-35.34 23.5,-28.65 23.5,-23.14"/>
</g>
<!-- 7882247763102726669&#45;&gt;&#45;4196729854513107824 -->
<!-- &#45;8911512082685543706 -->
<g id="node13" class="node">
<title>&#45;8911512082685543706</title>
<path fill="none" stroke="black" stroke-width="0.25" d="M183.83,-64C183.83,-64 163.17,-64 163.17,-64 159.33,-64 155.5,-60.17 155.5,-56.33 155.5,-56.33 155.5,-48.67 155.5,-48.67 155.5,-44.83 159.33,-41 163.17,-41 163.17,-41 183.83,-41 183.83,-41 187.67,-41 191.5,-44.83 191.5,-48.67 191.5,-48.67 191.5,-56.33 191.5,-56.33 191.5,-60.17 187.67,-64 183.83,-64"/>
<text text-anchor="middle" x="173.5" y="-48.8" font-family="Times,serif" font-size="14.00">Digit</text>
</g>
<!-- &#45;4196729854513107824&#45;&gt;&#45;8911512082685543706 -->
<g id="edge16" class="edge">
<title>&#45;4196729854513107824&#45;&gt;&#45;8911512082685543706</title>
<path fill="none" stroke="black" stroke-width="0.5" d="M173.5,-81.84C173.5,-76.34 173.5,-69.65 173.5,-64.14"/>
</g>
<!-- &#45;5511339641503126303 -->
<g id="node14" class="node">
<title>&#45;5511339641503126303</title>
<path fill="none" stroke="black" stroke-width="1.25" d="M176,-23C176,-23 171,-23 171,-23 168.5,-23 166,-20.5 166,-18 166,-18 166,-5 166,-5 166,-2.5 168.5,0 171,0 171,0 176,0 176,0 178.5,0 181,-2.5 181,-5 181,-5 181,-18 181,-18 181,-20.5 178.5,-23 176,-23"/>
<text text-anchor="middle" x="173.5" y="-7.8" font-family="Times,serif" font-size="14.00">5</text>
</g>
<!-- &#45;8911512082685543706&#45;&gt;&#45;5511339641503126303 -->
<g id="edge17" class="edge">
<title>&#45;8911512082685543706&#45;&gt;&#45;5511339641503126303</title>
<path fill="none" stroke="black" stroke-width="0.5" d="M173.5,-40.84C173.5,-35.34 173.5,-28.65 173.5,-23.14"/>
</g>
<!-- &#45;4745593962005875050&#45;&gt;&#45;3872810110470242094 -->
<!-- &#45;3872810110470242094&#45;&gt;&#45;5429225015828941647 -->
<!-- &#45;7733880613058041162 -->
<g id="node18" class="node">
<title>&#45;7733880613058041162</title>
<path fill="none" stroke="black" stroke-width="1.25" d="M267.33,-64C267.33,-64 261.67,-64 261.67,-64 258.83,-64 256,-61.17 256,-58.33 256,-58.33 256,-46.67 256,-46.67 256,-43.83 258.83,-41 261.67,-41 261.67,-41 267.33,-41 267.33,-41 270.17,-41 273,-43.83 273,-46.67 273,-46.67 273,-58.33 273,-58.33 273,-61.17 270.17,-64 267.33,-64"/>
<text text-anchor="middle" x="264.5" y="-48.8" font-family="Times,serif" font-size="14.00">+</text>
</g>
<!-- &#45;3872810110470242094&#45;&gt;&#45;7733880613058041162 -->
<g id="edge23" class="edge">
<title>&#45;3872810110470242094&#45;&gt;&#45;7733880613058041162</title>
<path fill="none" stroke="black" stroke-width="0.5" d="M264.5,-81.84C264.5,-76.34 264.5,-69.65 264.5,-64.14"/>
</g>
<!-- &#45;641961773134070031 -->
<g id="node19" class="node">
<title>&#45;641961773134070031</title>
<path fill="none" stroke="black" stroke-width="0.25" d="M332.83,-64C332.83,-64 312.17,-64 312.17,-64 308.33,-64 304.5,-60.17 304.5,-56.33 304.5,-56.33 304.5,-48.67 304.5,-48.67 304.5,-44.83 308.33,-41 312.17,-41 312.17,-41 332.83,-41 332.83,-41 336.67,-41 340.5,-44.83 340.5,-48.67 340.5,-48.67 340.5,-56.33 340.5,-56.33 340.5,-60.17 336.67,-64 332.83,-64"/>
<text text-anchor="middle" x="322.5" y="-48.8" font-family="Times,serif" font-size="14.00">Digit</text>
</g>
<!-- &#45;5429225015828941647&#45;&gt;&#45;641961773134070031 -->
<g id="edge24" class="edge">
<title>&#45;5429225015828941647&#45;&gt;&#45;641961773134070031</title>
<path fill="none" stroke="black" stroke-width="0.5" d="M322.5,-81.84C322.5,-76.34 322.5,-69.65 322.5,-64.14"/>
</g>
<!-- 7450456351479026167 -->
<g id="node20" class="node">
<title>7450456351479026167</title>
<path fill="none" stroke="black" stroke-width="1.25" d="M325,-23C325,-23 320,-23 320,-23 317.5,-23 315,-20.5 315,-18 315,-18 315,-5 315,-5 315,-2.5 317.5,0 320,0 320,0 325,0 325,0 327.5,0 330,-2.5 330,-5 330,-5 330,-18 330,-18 330,-20.5 327.5,-23 325,-23"/>
<text text-anchor="middle" x="322.5" y="-7.8" font-family="Times,serif" font-size="14.00">1</text>
</g>
<!-- &#45;641961773134070031&#45;&gt;7450456351479026167 -->
<g id="edge25" class="edge">
<title>&#45;641961773134070031&#45;&gt;7450456351479026167</title>
<path fill="none" stroke="black" stroke-width="0.5" d="M322.5,-40.84C322.5,-35.34 322.5,-28.65 322.5,-23.14"/>
</g>
</g>
</svg>
