<?xml version="1.0" encoding="UTF-8" standalone="no"?>
<!DOCTYPE svg PUBLIC "-//W3C//DTD SVG 1.1//EN"
 "http://www.w3.org/Graphics/SVG/1.1/DTD/svg11.dtd">
<!-- Generated by graphviz version 2.40.1 (20161225.0304)
 -->
<!-- Title: %3 Pages: 1 -->
<svg width="342pt" height="190pt"
 viewBox="0.00 0.00 342.32 190.00" xmlns="http://www.w3.org/2000/svg" xmlns:xlink="http://www.w3.org/1999/xlink">
<g id="graph0" class="graph" transform="scale(1 1) rotate(0) translate(4 186)">
<title>%3</title>
<polygon fill="#ffffff" stroke="transparent" points="-4,4 -4,-186 338.3208,-186 338.3208,4 -4,4"/>
<!-- 5528759662833301645 -->
<g id="node1" class="node">
<title>5528759662833301645</title>
<path fill="none" stroke="#000000" stroke-width=".25" d="M217.3636,-182C217.3636,-182 178.278,-182 178.278,-182 174.6113,-182 170.9447,-178.3333 170.9447,-174.6667 170.9447,-174.6667 170.9447,-167.3333 170.9447,-167.3333 170.9447,-163.6667 174.6113,-160 178.278,-160 178.278,-160 217.3636,-160 217.3636,-160 221.0303,-160 224.6969,-163.6667 224.6969,-167.3333 224.6969,-167.3333 224.6969,-174.6667 224.6969,-174.6667 224.6969,-178.3333 221.0303,-182 217.3636,-182"/>
<text text-anchor="middle" x="197.8208" y="-166.8" font-family="Times,serif" font-size="14.00" fill="#000000">Number</text>
</g>
<!-- &#45;2880083170211249459 -->
<g id="node2" class="node">
<title>&#45;2880083170211249459</title>
<path fill="none" stroke="#000000" stroke-width=".25" d="M185.8636,-142C185.8636,-142 139.778,-142 139.778,-142 136.1114,-142 132.4447,-138.3333 132.4447,-134.6667 132.4447,-134.6667 132.4447,-127.3333 132.4447,-127.3333 132.4447,-123.6667 136.1114,-120 139.778,-120 139.778,-120 185.8636,-120 185.8636,-120 189.5302,-120 193.1969,-123.6667 193.1969,-127.3333 193.1969,-127.3333 193.1969,-134.6667 193.1969,-134.6667 193.1969,-138.3333 189.5302,-142 185.8636,-142"/>
<text text-anchor="middle" x="162.8208" y="-126.8" font-family="Times,serif" font-size="14.00" fill="#000000">Number1</text>
</g>
<!-- 5528759662833301645&#45;&gt;&#45;2880083170211249459 -->
<g id="edge1" class="edge">
<title>5528759662833301645&#45;&gt;&#45;2880083170211249459</title>
<path fill="none" stroke="#000000" stroke-width=".5" d="M187.8848,-159.6446C183.1153,-154.1937 177.4174,-147.6819 172.6605,-142.2453"/>
</g>
<!-- &#45;7007578387713966241 -->
<g id="node3" class="node">
<title>&#45;7007578387713966241</title>
<path fill="none" stroke="#000000" stroke-width=".25" d="M250.967,-142C250.967,-142 222.6746,-142 222.6746,-142 219.008,-142 215.3413,-138.3333 215.3413,-134.6667 215.3413,-134.6667 215.3413,-127.3333 215.3413,-127.3333 215.3413,-123.6667 219.008,-120 222.6746,-120 222.6746,-120 250.967,-120 250.967,-120 254.6336,-120 258.3003,-123.6667 258.3003,-127.3333 258.3003,-127.3333 258.3003,-134.6667 258.3003,-134.6667 258.3003,-138.3333 254.6336,-142 250.967,-142"/>
<text text-anchor="middle" x="236.8208" y="-126.8" font-family="Times,serif" font-size="14.00" fill="#000000">Scale’</text>
</g>
<!-- 5528759662833301645&#45;&gt;&#45;7007578387713966241 -->
<g id="edge2" class="edge">
<title>5528759662833301645&#45;&gt;&#45;7007578387713966241</title>
<path fill="none" stroke="#000000" stroke-width=".5" d="M208.8923,-159.6446C214.207,-154.1937 220.556,-147.6819 225.8566,-142.2453"/>
</g>
<!-- &#45;2880083170211249459&#45;&gt;&#45;7007578387713966241 -->
<!-- 5682002853527492051 -->
<g id="node4" class="node">
<title>5682002853527492051</title>
<path fill="none" stroke="#000000" stroke-width=".25" d="M102.1304,-102C102.1304,-102 69.5112,-102 69.5112,-102 65.8445,-102 62.1779,-98.3333 62.1779,-94.6667 62.1779,-94.6667 62.1779,-87.3333 62.1779,-87.3333 62.1779,-83.6667 65.8445,-80 69.5112,-80 69.5112,-80 102.1304,-80 102.1304,-80 105.7971,-80 109.4637,-83.6667 109.4637,-87.3333 109.4637,-87.3333 109.4637,-94.6667 109.4637,-94.6667 109.4637,-98.3333 105.7971,-102 102.1304,-102"/>
<text text-anchor="middle" x="85.8208" y="-86.8" font-family="Times,serif" font-size="14.00" fill="#000000">Integer</text>
</g>
<!-- &#45;2880083170211249459&#45;&gt;5682002853527492051 -->
<g id="edge4" class="edge">
<title>&#45;2880083170211249459&#45;&gt;5682002853527492051</title>
<path fill="none" stroke="#000000" stroke-width=".5" d="M141.372,-119.8578C130.6922,-114.3098 117.8186,-107.6222 107.1546,-102.0825"/>
</g>
<!-- 952065951441685944 -->
<g id="node5" class="node">
<title>952065951441685944</title>
<path fill="none" stroke="#000000" stroke-width=".25" d="M175.6438,-102C175.6438,-102 135.9978,-102 135.9978,-102 132.3311,-102 128.6644,-98.3333 128.6644,-94.6667 128.6644,-94.6667 128.6644,-87.3333 128.6644,-87.3333 128.6644,-83.6667 132.3311,-80 135.9978,-80 135.9978,-80 175.6438,-80 175.6438,-80 179.3105,-80 182.9772,-83.6667 182.9772,-87.3333 182.9772,-87.3333 182.9772,-94.6667 182.9772,-94.6667 182.9772,-98.3333 179.3105,-102 175.6438,-102"/>
<text text-anchor="middle" x="155.8208" y="-86.8" font-family="Times,serif" font-size="14.00" fill="#000000">Fraction</text>
</g>
<!-- &#45;2880083170211249459&#45;&gt;952065951441685944 -->
<g id="edge5" class="edge">
<title>&#45;2880083170211249459&#45;&gt;952065951441685944</title>
<path fill="none" stroke="#000000" stroke-width=".5" d="M160.8336,-119.6446C159.8797,-114.1937 158.7401,-107.6819 157.7887,-102.2453"/>
</g>
<!-- &#45;3663340185036056619 -->
<g id="node14" class="node">
<title>&#45;3663340185036056619</title>
<path fill="none" stroke="#000000" stroke-width=".25" d="M255.467,-102C255.467,-102 220.1746,-102 220.1746,-102 216.508,-102 212.8413,-98.3333 212.8413,-94.6667 212.8413,-94.6667 212.8413,-87.3333 212.8413,-87.3333 212.8413,-83.6667 216.508,-80 220.1746,-80 220.1746,-80 255.467,-80 255.467,-80 259.1336,-80 262.8003,-83.6667 262.8003,-87.3333 262.8003,-87.3333 262.8003,-94.6667 262.8003,-94.6667 262.8003,-98.3333 259.1336,-102 255.467,-102"/>
<text text-anchor="middle" x="237.8208" y="-86.8" font-family="Times,serif" font-size="14.00" fill="#000000">Scale’1</text>
</g>
<!-- &#45;7007578387713966241&#45;&gt;&#45;3663340185036056619 -->
<g id="edge17" class="edge">
<title>&#45;7007578387713966241&#45;&gt;&#45;3663340185036056619</title>
<path fill="none" stroke="#000000" stroke-width=".5" d="M237.1047,-119.6446C237.241,-114.1937 237.4038,-107.6819 237.5397,-102.2453"/>
</g>
<!-- 5681996547541332887 -->
<g id="node15" class="node">
<title>5681996547541332887</title>
<path fill="none" stroke="#000000" stroke-width=".25" d="M321.1304,-102C321.1304,-102 288.5112,-102 288.5112,-102 284.8445,-102 281.1779,-98.3333 281.1779,-94.6667 281.1779,-94.6667 281.1779,-87.3333 281.1779,-87.3333 281.1779,-83.6667 284.8445,-80 288.5112,-80 288.5112,-80 321.1304,-80 321.1304,-80 324.7971,-80 328.4637,-83.6667 328.4637,-87.3333 328.4637,-87.3333 328.4637,-94.6667 328.4637,-94.6667 328.4637,-98.3333 324.7971,-102 321.1304,-102"/>
<text text-anchor="middle" x="304.8208" y="-86.8" font-family="Times,serif" font-size="14.00" fill="#000000">Integer</text>
</g>
<!-- &#45;7007578387713966241&#45;&gt;5681996547541332887 -->
<g id="edge18" class="edge">
<title>&#45;7007578387713966241&#45;&gt;5681996547541332887</title>
<path fill="none" stroke="#000000" stroke-width=".5" d="M255.7626,-119.8578C265.1941,-114.3098 276.563,-107.6222 285.9806,-102.0825"/>
</g>
<!-- 5682002853527492051&#45;&gt;952065951441685944 -->
<!-- 5682004114724490874 -->
<g id="node6" class="node">
<title>5682004114724490874</title>
<path fill="none" stroke="#000000" stroke-width=".25" d="M40.1304,-62C40.1304,-62 7.5112,-62 7.5112,-62 3.8445,-62 .1779,-58.3333 .1779,-54.6667 .1779,-54.6667 .1779,-47.3333 .1779,-47.3333 .1779,-43.6667 3.8445,-40 7.5112,-40 7.5112,-40 40.1304,-40 40.1304,-40 43.7971,-40 47.4637,-43.6667 47.4637,-47.3333 47.4637,-47.3333 47.4637,-54.6667 47.4637,-54.6667 47.4637,-58.3333 43.7971,-62 40.1304,-62"/>
<text text-anchor="middle" x="23.8208" y="-46.8" font-family="Times,serif" font-size="14.00" fill="#000000">Integer</text>
</g>
<!-- 5682002853527492051&#45;&gt;5682004114724490874 -->
<g id="edge7" class="edge">
<title>5682002853527492051&#45;&gt;5682004114724490874</title>
<path fill="none" stroke="#000000" stroke-width=".5" d="M68.5503,-79.8578C59.951,-74.3098 49.5853,-67.6222 40.9986,-62.0825"/>
</g>
<!-- &#45;5381896590471602417 -->
<g id="node7" class="node">
<title>&#45;5381896590471602417</title>
<path fill="none" stroke="#000000" stroke-width=".25" d="M94.7674,-62C94.7674,-62 72.8742,-62 72.8742,-62 69.2075,-62 65.5408,-58.3333 65.5408,-54.6667 65.5408,-54.6667 65.5408,-47.3333 65.5408,-47.3333 65.5408,-43.6667 69.2075,-40 72.8742,-40 72.8742,-40 94.7674,-40 94.7674,-40 98.4341,-40 102.1008,-43.6667 102.1008,-47.3333 102.1008,-47.3333 102.1008,-54.6667 102.1008,-54.6667 102.1008,-58.3333 98.4341,-62 94.7674,-62"/>
<text text-anchor="middle" x="83.8208" y="-46.8" font-family="Times,serif" font-size="14.00" fill="#000000">Digit</text>
</g>
<!-- 5682002853527492051&#45;&gt;&#45;5381896590471602417 -->
<g id="edge8" class="edge">
<title>5682002853527492051&#45;&gt;&#45;5381896590471602417</title>
<path fill="none" stroke="#000000" stroke-width=".5" d="M85.253,-79.6446C84.9805,-74.1937 84.6549,-67.6819 84.3831,-62.2453"/>
</g>
<!-- &#45;6384145070986069769 -->
<g id="node10" class="node">
<title>&#45;6384145070986069769</title>
<path fill="none" stroke="#000000" stroke-width=".25" d="M134.3587,-62C134.3587,-62 127.2829,-62 127.2829,-62 123.7449,-62 120.207,-58.4621 120.207,-54.9241 120.207,-54.9241 120.207,-47.0759 120.207,-47.0759 120.207,-43.5379 123.7449,-40 127.2829,-40 127.2829,-40 134.3587,-40 134.3587,-40 137.8967,-40 141.4346,-43.5379 141.4346,-47.0759 141.4346,-47.0759 141.4346,-54.9241 141.4346,-54.9241 141.4346,-58.4621 137.8967,-62 134.3587,-62"/>
<text text-anchor="middle" x="130.8208" y="-46.8" font-family="Times,serif" font-size="14.00" fill="#000000">N.</text>
</g>
<!-- 952065951441685944&#45;&gt;&#45;6384145070986069769 -->
<g id="edge12" class="edge">
<title>952065951441685944&#45;&gt;&#45;6384145070986069769</title>
<path fill="none" stroke="#000000" stroke-width=".5" d="M148.7237,-79.6446C145.3168,-74.1937 141.247,-67.6819 137.8491,-62.2453"/>
</g>
<!-- 5682007898316652392 -->
<g id="node11" class="node">
<title>5682007898316652392</title>
<path fill="none" stroke="#000000" stroke-width=".25" d="M200.1304,-62C200.1304,-62 167.5112,-62 167.5112,-62 163.8445,-62 160.1779,-58.3333 160.1779,-54.6667 160.1779,-54.6667 160.1779,-47.3333 160.1779,-47.3333 160.1779,-43.6667 163.8445,-40 167.5112,-40 167.5112,-40 200.1304,-40 200.1304,-40 203.7971,-40 207.4637,-43.6667 207.4637,-47.3333 207.4637,-47.3333 207.4637,-54.6667 207.4637,-54.6667 207.4637,-58.3333 203.7971,-62 200.1304,-62"/>
<text text-anchor="middle" x="183.8208" y="-46.8" font-family="Times,serif" font-size="14.00" fill="#000000">Integer</text>
</g>
<!-- 952065951441685944&#45;&gt;5682007898316652392 -->
<g id="edge13" class="edge">
<title>952065951441685944&#45;&gt;5682007898316652392</title>
<path fill="none" stroke="#000000" stroke-width=".5" d="M163.7696,-79.6446C167.5852,-74.1937 172.1435,-67.6819 175.9491,-62.2453"/>
</g>
<!-- 5682004114724490874&#45;&gt;&#45;5381896590471602417 -->
<!-- &#45;4977705450597253636 -->
<g id="node8" class="node">
<title>&#45;4977705450597253636</title>
<path fill="none" stroke="#000000" stroke-width="1.25" d="M26.3208,-22C26.3208,-22 21.3208,-22 21.3208,-22 18.8208,-22 16.3208,-19.5 16.3208,-17 16.3208,-17 16.3208,-5 16.3208,-5 16.3208,-2.5 18.8208,0 21.3208,0 21.3208,0 26.3208,0 26.3208,0 28.8208,0 31.3208,-2.5 31.3208,-5 31.3208,-5 31.3208,-17 31.3208,-17 31.3208,-19.5 28.8208,-22 26.3208,-22"/>
<text text-anchor="middle" x="23.8208" y="-6.8" font-family="Times,serif" font-size="14.00" fill="#000000">3</text>
</g>
<!-- 5682004114724490874&#45;&gt;&#45;4977705450597253636 -->
<g id="edge10" class="edge">
<title>5682004114724490874&#45;&gt;&#45;4977705450597253636</title>
<path fill="none" stroke="#000000" stroke-width=".5" d="M23.8208,-39.6446C23.8208,-34.1937 23.8208,-27.6819 23.8208,-22.2453"/>
</g>
<!-- 7393243982047580206 -->
<g id="node9" class="node">
<title>7393243982047580206</title>
<path fill="none" stroke="#000000" stroke-width="1.25" d="M86.3208,-22C86.3208,-22 81.3208,-22 81.3208,-22 78.8208,-22 76.3208,-19.5 76.3208,-17 76.3208,-17 76.3208,-5 76.3208,-5 76.3208,-2.5 78.8208,0 81.3208,0 81.3208,0 86.3208,0 86.3208,0 88.8208,0 91.3208,-2.5 91.3208,-5 91.3208,-5 91.3208,-17 91.3208,-17 91.3208,-19.5 88.8208,-22 86.3208,-22"/>
<text text-anchor="middle" x="83.8208" y="-6.8" font-family="Times,serif" font-size="14.00" fill="#000000">2</text>
</g>
<!-- &#45;5381896590471602417&#45;&gt;7393243982047580206 -->
<g id="edge11" class="edge">
<title>&#45;5381896590471602417&#45;&gt;7393243982047580206</title>
<path fill="none" stroke="#000000" stroke-width=".5" d="M83.8208,-39.6446C83.8208,-34.1937 83.8208,-27.6819 83.8208,-22.2453"/>
</g>
<!-- &#45;6384145070986069769&#45;&gt;5682007898316652392 -->
<!-- 7725281946515502424 -->
<g id="node12" class="node">
<title>7725281946515502424</title>
<path fill="none" stroke="#000000" stroke-width="1.25" d="M132.6576,-22C132.6576,-22 128.984,-22 128.984,-22 127.1472,-22 125.3104,-20.1632 125.3104,-18.3264 125.3104,-18.3264 125.3104,-3.6736 125.3104,-3.6736 125.3104,-1.8368 127.1472,0 128.984,0 128.984,0 132.6576,0 132.6576,0 134.4944,0 136.3312,-1.8368 136.3312,-3.6736 136.3312,-3.6736 136.3312,-18.3264 136.3312,-18.3264 136.3312,-20.1632 134.4944,-22 132.6576,-22"/>
<text text-anchor="middle" x="130.8208" y="-6.8" font-family="Times,serif" font-size="14.00" fill="#000000">.</text>
</g>
<!-- &#45;6384145070986069769&#45;&gt;7725281946515502424 -->
<g id="edge15" class="edge">
<title>&#45;6384145070986069769&#45;&gt;7725281946515502424</title>
<path fill="none" stroke="#000000" stroke-width=".5" d="M130.8208,-39.6446C130.8208,-34.1937 130.8208,-27.6819 130.8208,-22.2453"/>
</g>
<!-- &#45;485095802104242419 -->
<g id="node13" class="node">
<title>&#45;485095802104242419</title>
<path fill="none" stroke="#000000" stroke-width="1.25" d="M186.3208,-22C186.3208,-22 181.3208,-22 181.3208,-22 178.8208,-22 176.3208,-19.5 176.3208,-17 176.3208,-17 176.3208,-5 176.3208,-5 176.3208,-2.5 178.8208,0 181.3208,0 181.3208,0 186.3208,0 186.3208,0 188.8208,0 191.3208,-2.5 191.3208,-5 191.3208,-5 191.3208,-17 191.3208,-17 191.3208,-19.5 188.8208,-22 186.3208,-22"/>
<text text-anchor="middle" x="183.8208" y="-6.8" font-family="Times,serif" font-size="14.00" fill="#000000">5</text>
</g>
<!-- 5682007898316652392&#45;&gt;&#45;485095802104242419 -->
<g id="edge16" class="edge">
<title>5682007898316652392&#45;&gt;&#45;485095802104242419</title>
<path fill="none" stroke="#000000" stroke-width=".5" d="M183.8208,-39.6446C183.8208,-34.1937 183.8208,-27.6819 183.8208,-22.2453"/>
</g>
<!-- &#45;3663340185036056619&#45;&gt;5681996547541332887 -->
<!-- 7484502831854379474 -->
<g id="node16" class="node">
<title>7484502831854379474</title>
<path fill="none" stroke="#000000" stroke-width=".25" d="M242.8139,-62C242.8139,-62 232.8277,-62 232.8277,-62 229.1611,-62 225.4944,-58.3333 225.4944,-54.6667 225.4944,-54.6667 225.4944,-47.3333 225.4944,-47.3333 225.4944,-43.6667 229.1611,-40 232.8277,-40 232.8277,-40 242.8139,-40 242.8139,-40 246.4805,-40 250.1472,-43.6667 250.1472,-47.3333 250.1472,-47.3333 250.1472,-54.6667 250.1472,-54.6667 250.1472,-58.3333 246.4805,-62 242.8139,-62"/>
<text text-anchor="middle" x="237.8208" y="-46.8" font-family="Times,serif" font-size="14.00" fill="#000000">Ne</text>
</g>
<!-- &#45;3663340185036056619&#45;&gt;7484502831854379474 -->
<g id="edge20" class="edge">
<title>&#45;3663340185036056619&#45;&gt;7484502831854379474</title>
<path fill="none" stroke="#000000" stroke-width=".5" d="M237.8208,-79.6446C237.8208,-74.1937 237.8208,-67.6819 237.8208,-62.2453"/>
</g>
<!-- 5753399593017094335 -->
<g id="node17" class="node">
<title>5753399593017094335</title>
<path fill="none" stroke="#000000" stroke-width=".25" d="M294.1648,-62C294.1648,-62 275.4768,-62 275.4768,-62 271.8101,-62 268.1435,-58.3333 268.1435,-54.6667 268.1435,-54.6667 268.1435,-47.3333 268.1435,-47.3333 268.1435,-43.6667 271.8101,-40 275.4768,-40 275.4768,-40 294.1648,-40 294.1648,-40 297.8315,-40 301.4981,-43.6667 301.4981,-47.3333 301.4981,-47.3333 301.4981,-54.6667 301.4981,-54.6667 301.4981,-58.3333 297.8315,-62 294.1648,-62"/>
<text text-anchor="middle" x="284.8208" y="-46.8" font-family="Times,serif" font-size="14.00" fill="#000000">Sign</text>
</g>
<!-- &#45;3663340185036056619&#45;&gt;5753399593017094335 -->
<g id="edge21" class="edge">
<title>&#45;3663340185036056619&#45;&gt;5753399593017094335</title>
<path fill="none" stroke="#000000" stroke-width=".5" d="M250.9129,-79.8578C257.4318,-74.3098 265.2897,-67.6222 271.7989,-62.0825"/>
</g>
<!-- &#45;3141143747761181689 -->
<g id="node20" class="node">
<title>&#45;3141143747761181689</title>
<path fill="none" stroke="#000000" stroke-width="1.25" d="M329.3208,-62C329.3208,-62 324.3208,-62 324.3208,-62 321.8208,-62 319.3208,-59.5 319.3208,-57 319.3208,-57 319.3208,-45 319.3208,-45 319.3208,-42.5 321.8208,-40 324.3208,-40 324.3208,-40 329.3208,-40 329.3208,-40 331.8208,-40 334.3208,-42.5 334.3208,-45 334.3208,-45 334.3208,-57 334.3208,-57 334.3208,-59.5 331.8208,-62 329.3208,-62"/>
<text text-anchor="middle" x="326.8208" y="-46.8" font-family="Times,serif" font-size="14.00" fill="#000000">1</text>
</g>
<!-- 5681996547541332887&#45;&gt;&#45;3141143747761181689 -->
<g id="edge25" class="edge">
<title>5681996547541332887&#45;&gt;&#45;3141143747761181689</title>
<path fill="none" stroke="#000000" stroke-width=".5" d="M311.0663,-79.6446C314.0643,-74.1937 317.6458,-67.6819 320.6359,-62.2453"/>
</g>
<!-- 7484502831854379474&#45;&gt;5753399593017094335 -->
<!-- 6387065636051153135 -->
<g id="node18" class="node">
<title>6387065636051153135</title>
<path fill="none" stroke="#000000" stroke-width="1.25" d="M240.226,-22C240.226,-22 235.4156,-22 235.4156,-22 233.0105,-22 230.6053,-19.5948 230.6053,-17.1897 230.6053,-17.1897 230.6053,-4.8103 230.6053,-4.8103 230.6053,-2.4052 233.0105,0 235.4156,0 235.4156,0 240.226,0 240.226,0 242.6311,0 245.0363,-2.4052 245.0363,-4.8103 245.0363,-4.8103 245.0363,-17.1897 245.0363,-17.1897 245.0363,-19.5948 242.6311,-22 240.226,-22"/>
<text text-anchor="middle" x="237.8208" y="-6.8" font-family="Times,serif" font-size="14.00" fill="#000000">e</text>
</g>
<!-- 7484502831854379474&#45;&gt;6387065636051153135 -->
<g id="edge23" class="edge">
<title>7484502831854379474&#45;&gt;6387065636051153135</title>
<path fill="none" stroke="#000000" stroke-width=".5" d="M237.8208,-39.6446C237.8208,-34.1937 237.8208,-27.6819 237.8208,-22.2453"/>
</g>
<!-- 9048499829673685364 -->
<g id="node19" class="node">
<title>9048499829673685364</title>
<path fill="none" stroke="#000000" stroke-width="1.25" d="M287.4528,-22C287.4528,-22 282.1889,-22 282.1889,-22 279.5569,-22 276.925,-19.3681 276.925,-16.7361 276.925,-16.7361 276.925,-5.2639 276.925,-5.2639 276.925,-2.6319 279.5569,0 282.1889,0 282.1889,0 287.4528,0 287.4528,0 290.0847,0 292.7166,-2.6319 292.7166,-5.2639 292.7166,-5.2639 292.7166,-16.7361 292.7166,-16.7361 292.7166,-19.3681 290.0847,-22 287.4528,-22"/>
<text text-anchor="middle" x="284.8208" y="-6.8" font-family="Times,serif" font-size="14.00" fill="#000000">+</text>
</g>
<!-- 5753399593017094335&#45;&gt;9048499829673685364 -->
<g id="edge24" class="edge">
<title>5753399593017094335&#45;&gt;9048499829673685364</title>
<path fill="none" stroke="#000000" stroke-width=".5" d="M284.8208,-39.6446C284.8208,-34.1937 284.8208,-27.6819 284.8208,-22.2453"/>
</g>
</g>
</svg>
