<?xml version="1.0" encoding="UTF-8" standalone="no"?>
<!DOCTYPE svg PUBLIC "-//W3C//DTD SVG 1.1//EN"
 "http://www.w3.org/Graphics/SVG/1.1/DTD/svg11.dtd">
<!-- Generated by graphviz version 2.43.0 (0)
 -->
<!-- Title: %3 Pages: 1 -->
<svg width="356pt" height="230pt"
 viewBox="0.00 0.00 355.64 230.00" xmlns="http://www.w3.org/2000/svg" xmlns:xlink="http://www.w3.org/1999/xlink">
<g id="graph0" class="graph" transform="scale(1 1) rotate(0) translate(4 226)">
<title>%3</title>
<polygon fill="white" stroke="transparent" points="-4,4 -4,-226 351.64,-226 351.64,4 -4,4"/>
<!-- &#45;7961835644453728019 -->
<g id="node1" class="node">
<title>&#45;7961835644453728019</title>
<path fill="none" stroke="black" stroke-width="0.25" d="M177.36,-222C177.36,-222 138.28,-222 138.28,-222 134.61,-222 130.94,-218.33 130.94,-214.67 130.94,-214.67 130.94,-207.33 130.94,-207.33 130.94,-203.67 134.61,-200 138.28,-200 138.28,-200 177.36,-200 177.36,-200 181.03,-200 184.7,-203.67 184.7,-207.33 184.7,-207.33 184.7,-214.67 184.7,-214.67 184.7,-218.33 181.03,-222 177.36,-222"/>
<text text-anchor="middle" x="157.82" y="-206.8" font-family="Times,serif" font-size="14.00">Number</text>
</g>
<!-- &#45;6532728823117321585 -->
<g id="node2" class="node">
<title>&#45;6532728823117321585</title>
<path fill="none" stroke="black" stroke-width="0.25" d="M167.14,-182C167.14,-182 148.5,-182 148.5,-182 144.83,-182 141.16,-178.33 141.16,-174.67 141.16,-174.67 141.16,-167.33 141.16,-167.33 141.16,-163.67 144.83,-160 148.5,-160 148.5,-160 167.14,-160 167.14,-160 170.81,-160 174.48,-163.67 174.48,-167.33 174.48,-167.33 174.48,-174.67 174.48,-174.67 174.48,-178.33 170.81,-182 167.14,-182"/>
<text text-anchor="middle" x="157.82" y="-166.8" font-family="Times,serif" font-size="14.00">Real</text>
</g>
<!-- &#45;7961835644453728019&#45;&gt;&#45;6532728823117321585 -->
<g id="edge1" class="edge">
<title>&#45;7961835644453728019&#45;&gt;&#45;6532728823117321585</title>
<path fill="none" stroke="black" stroke-width="0.5" d="M157.82,-199.62C157.82,-194.17 157.82,-187.52 157.82,-182.11"/>
</g>
<!-- &#45;5761243209823156733 -->
<g id="node3" class="node">
<title>&#45;5761243209823156733</title>
<path fill="none" stroke="black" stroke-width="0.25" d="M102.13,-142C102.13,-142 69.51,-142 69.51,-142 65.84,-142 62.18,-138.33 62.18,-134.67 62.18,-134.67 62.18,-127.33 62.18,-127.33 62.18,-123.67 65.84,-120 69.51,-120 69.51,-120 102.13,-120 102.13,-120 105.8,-120 109.46,-123.67 109.46,-127.33 109.46,-127.33 109.46,-134.67 109.46,-134.67 109.46,-138.33 105.8,-142 102.13,-142"/>
<text text-anchor="middle" x="85.82" y="-126.8" font-family="Times,serif" font-size="14.00">Integer</text>
</g>
<!-- &#45;6532728823117321585&#45;&gt;&#45;5761243209823156733 -->
<g id="edge2" class="edge">
<title>&#45;6532728823117321585&#45;&gt;&#45;5761243209823156733</title>
<path fill="none" stroke="black" stroke-width="0.5" d="M141.12,-161.19C130.32,-155.49 116.23,-148.05 104.97,-142.11"/>
</g>
<!-- 4302599549392366080 -->
<g id="node4" class="node">
<title>4302599549392366080</title>
<path fill="none" stroke="black" stroke-width="0.25" d="M177.64,-142C177.64,-142 138,-142 138,-142 134.33,-142 130.66,-138.33 130.66,-134.67 130.66,-134.67 130.66,-127.33 130.66,-127.33 130.66,-123.67 134.33,-120 138,-120 138,-120 177.64,-120 177.64,-120 181.31,-120 184.98,-123.67 184.98,-127.33 184.98,-127.33 184.98,-134.67 184.98,-134.67 184.98,-138.33 181.31,-142 177.64,-142"/>
<text text-anchor="middle" x="157.82" y="-126.8" font-family="Times,serif" font-size="14.00">Fraction</text>
</g>
<!-- &#45;6532728823117321585&#45;&gt;4302599549392366080 -->
<g id="edge3" class="edge">
<title>&#45;6532728823117321585&#45;&gt;4302599549392366080</title>
<path fill="none" stroke="black" stroke-width="0.5" d="M157.82,-159.62C157.82,-154.17 157.82,-147.52 157.82,-142.11"/>
</g>
<!-- 8443870500751294251 -->
<g id="node5" class="node">
<title>8443870500751294251</title>
<path fill="none" stroke="black" stroke-width="0.25" d="M234.81,-142C234.81,-142 210.84,-142 210.84,-142 207.17,-142 203.5,-138.33 203.5,-134.67 203.5,-134.67 203.5,-127.33 203.5,-127.33 203.5,-123.67 207.17,-120 210.84,-120 210.84,-120 234.81,-120 234.81,-120 238.47,-120 242.14,-123.67 242.14,-127.33 242.14,-127.33 242.14,-134.67 242.14,-134.67 242.14,-138.33 238.47,-142 234.81,-142"/>
<text text-anchor="middle" x="222.82" y="-126.8" font-family="Times,serif" font-size="14.00">Scale</text>
</g>
<!-- &#45;6532728823117321585&#45;&gt;8443870500751294251 -->
<g id="edge4" class="edge">
<title>&#45;6532728823117321585&#45;&gt;8443870500751294251</title>
<path fill="none" stroke="black" stroke-width="0.5" d="M174.56,-160.21C184.04,-154.67 195.88,-147.75 205.46,-142.15"/>
</g>
<!-- &#45;5761243209823156733&#45;&gt;4302599549392366080 -->
<!-- &#45;5761241948626157910 -->
<g id="node6" class="node">
<title>&#45;5761241948626157910</title>
<path fill="none" stroke="black" stroke-width="0.25" d="M40.13,-102C40.13,-102 7.51,-102 7.51,-102 3.84,-102 0.18,-98.33 0.18,-94.67 0.18,-94.67 0.18,-87.33 0.18,-87.33 0.18,-83.67 3.84,-80 7.51,-80 7.51,-80 40.13,-80 40.13,-80 43.8,-80 47.46,-83.67 47.46,-87.33 47.46,-87.33 47.46,-94.67 47.46,-94.67 47.46,-98.33 43.8,-102 40.13,-102"/>
<text text-anchor="middle" x="23.82" y="-86.8" font-family="Times,serif" font-size="14.00">Integer</text>
</g>
<!-- &#45;5761243209823156733&#45;&gt;&#45;5761241948626157910 -->
<g id="edge7" class="edge">
<title>&#45;5761243209823156733&#45;&gt;&#45;5761241948626157910</title>
<path fill="none" stroke="black" stroke-width="0.5" d="M69.21,-119.82C60.31,-114.36 49.38,-107.67 40.48,-102.21"/>
</g>
<!-- &#45;2988908847467014086 -->
<g id="node7" class="node">
<title>&#45;2988908847467014086</title>
<path fill="none" stroke="black" stroke-width="0.25" d="M94.77,-102C94.77,-102 72.87,-102 72.87,-102 69.21,-102 65.54,-98.33 65.54,-94.67 65.54,-94.67 65.54,-87.33 65.54,-87.33 65.54,-83.67 69.21,-80 72.87,-80 72.87,-80 94.77,-80 94.77,-80 98.43,-80 102.1,-83.67 102.1,-87.33 102.1,-87.33 102.1,-94.67 102.1,-94.67 102.1,-98.33 98.43,-102 94.77,-102"/>
<text text-anchor="middle" x="83.82" y="-86.8" font-family="Times,serif" font-size="14.00">Digit</text>
</g>
<!-- &#45;5761243209823156733&#45;&gt;&#45;2988908847467014086 -->
<g id="edge8" class="edge">
<title>&#45;5761243209823156733&#45;&gt;&#45;2988908847467014086</title>
<path fill="none" stroke="black" stroke-width="0.5" d="M85.27,-119.62C84.99,-114.17 84.64,-107.52 84.35,-102.11"/>
</g>
<!-- 4302599549392366080&#45;&gt;8443870500751294251 -->
<!-- 2808293679531064656 -->
<g id="node11" class="node">
<title>2808293679531064656</title>
<path fill="none" stroke="black" stroke-width="1.25" d="M127.66,-102C127.66,-102 123.98,-102 123.98,-102 122.15,-102 120.31,-100.16 120.31,-98.33 120.31,-98.33 120.31,-83.67 120.31,-83.67 120.31,-81.84 122.15,-80 123.98,-80 123.98,-80 127.66,-80 127.66,-80 129.49,-80 131.33,-81.84 131.33,-83.67 131.33,-83.67 131.33,-98.33 131.33,-98.33 131.33,-100.16 129.49,-102 127.66,-102"/>
<text text-anchor="middle" x="125.82" y="-86.8" font-family="Times,serif" font-size="14.00">.</text>
</g>
<!-- 4302599549392366080&#45;&gt;2808293679531064656 -->
<g id="edge13" class="edge">
<title>4302599549392366080&#45;&gt;2808293679531064656</title>
<path fill="none" stroke="black" stroke-width="0.5" d="M149.08,-119.62C143.45,-112.94 136.31,-104.45 131.43,-98.66"/>
</g>
<!-- &#45;5761236903839327667 -->
<g id="node12" class="node">
<title>&#45;5761236903839327667</title>
<path fill="none" stroke="black" stroke-width="0.25" d="M190.13,-102C190.13,-102 157.51,-102 157.51,-102 153.84,-102 150.18,-98.33 150.18,-94.67 150.18,-94.67 150.18,-87.33 150.18,-87.33 150.18,-83.67 153.84,-80 157.51,-80 157.51,-80 190.13,-80 190.13,-80 193.8,-80 197.46,-83.67 197.46,-87.33 197.46,-87.33 197.46,-94.67 197.46,-94.67 197.46,-98.33 193.8,-102 190.13,-102"/>
<text text-anchor="middle" x="173.82" y="-86.8" font-family="Times,serif" font-size="14.00">Integer</text>
</g>
<!-- 4302599549392366080&#45;&gt;&#45;5761236903839327667 -->
<g id="edge14" class="edge">
<title>4302599549392366080&#45;&gt;&#45;5761236903839327667</title>
<path fill="none" stroke="black" stroke-width="0.5" d="M162.19,-119.62C164.49,-114.17 167.29,-107.52 169.56,-102.11"/>
</g>
<!-- 602653818241806847 -->
<g id="node15" class="node">
<title>602653818241806847</title>
<path fill="none" stroke="black" stroke-width="1.25" d="M225.23,-102C225.23,-102 220.42,-102 220.42,-102 218.01,-102 215.61,-99.59 215.61,-97.19 215.61,-97.19 215.61,-84.81 215.61,-84.81 215.61,-82.41 218.01,-80 220.42,-80 220.42,-80 225.23,-80 225.23,-80 227.63,-80 230.04,-82.41 230.04,-84.81 230.04,-84.81 230.04,-97.19 230.04,-97.19 230.04,-99.59 227.63,-102 225.23,-102"/>
<text text-anchor="middle" x="222.82" y="-86.8" font-family="Times,serif" font-size="14.00">e</text>
</g>
<!-- 8443870500751294251&#45;&gt;602653818241806847 -->
<g id="edge18" class="edge">
<title>8443870500751294251&#45;&gt;602653818241806847</title>
<path fill="none" stroke="black" stroke-width="0.5" d="M222.82,-119.62C222.82,-114.17 222.82,-107.52 222.82,-102.11"/>
</g>
<!-- &#45;5566814927317930394 -->
<g id="node16" class="node">
<title>&#45;5566814927317930394</title>
<path fill="none" stroke="black" stroke-width="0.25" d="M274.16,-102C274.16,-102 255.48,-102 255.48,-102 251.81,-102 248.14,-98.33 248.14,-94.67 248.14,-94.67 248.14,-87.33 248.14,-87.33 248.14,-83.67 251.81,-80 255.48,-80 255.48,-80 274.16,-80 274.16,-80 277.83,-80 281.5,-83.67 281.5,-87.33 281.5,-87.33 281.5,-94.67 281.5,-94.67 281.5,-98.33 277.83,-102 274.16,-102"/>
<text text-anchor="middle" x="264.82" y="-86.8" font-family="Times,serif" font-size="14.00">Sign</text>
</g>
<!-- 8443870500751294251&#45;&gt;&#45;5566814927317930394 -->
<g id="edge19" class="edge">
<title>8443870500751294251&#45;&gt;&#45;5566814927317930394</title>
<path fill="none" stroke="black" stroke-width="0.5" d="M234.3,-119.62C240.32,-114.17 247.67,-107.52 253.65,-102.11"/>
</g>
<!-- &#45;5761253299396817219 -->
<g id="node17" class="node">
<title>&#45;5761253299396817219</title>
<path fill="none" stroke="black" stroke-width="0.25" d="M340.13,-102C340.13,-102 307.51,-102 307.51,-102 303.84,-102 300.18,-98.33 300.18,-94.67 300.18,-94.67 300.18,-87.33 300.18,-87.33 300.18,-83.67 303.84,-80 307.51,-80 307.51,-80 340.13,-80 340.13,-80 343.8,-80 347.46,-83.67 347.46,-87.33 347.46,-87.33 347.46,-94.67 347.46,-94.67 347.46,-98.33 343.8,-102 340.13,-102"/>
<text text-anchor="middle" x="323.82" y="-86.8" font-family="Times,serif" font-size="14.00">Integer</text>
</g>
<!-- 8443870500751294251&#45;&gt;&#45;5761253299396817219 -->
<g id="edge20" class="edge">
<title>8443870500751294251&#45;&gt;&#45;5761253299396817219</title>
<path fill="none" stroke="black" stroke-width="0.5" d="M242.29,-122.67C258.8,-116.46 282.54,-107.53 300.14,-100.91"/>
</g>
<!-- &#45;5761241948626157910&#45;&gt;&#45;2988908847467014086 -->
<!-- &#45;2988905063877182666 -->
<g id="node8" class="node">
<title>&#45;2988905063877182666</title>
<path fill="none" stroke="black" stroke-width="0.25" d="M34.77,-62C34.77,-62 12.87,-62 12.87,-62 9.21,-62 5.54,-58.33 5.54,-54.67 5.54,-54.67 5.54,-47.33 5.54,-47.33 5.54,-43.67 9.21,-40 12.87,-40 12.87,-40 34.77,-40 34.77,-40 38.43,-40 42.1,-43.67 42.1,-47.33 42.1,-47.33 42.1,-54.67 42.1,-54.67 42.1,-58.33 38.43,-62 34.77,-62"/>
<text text-anchor="middle" x="23.82" y="-46.8" font-family="Times,serif" font-size="14.00">Digit</text>
</g>
<!-- &#45;5761241948626157910&#45;&gt;&#45;2988905063877182666 -->
<g id="edge10" class="edge">
<title>&#45;5761241948626157910&#45;&gt;&#45;2988905063877182666</title>
<path fill="none" stroke="black" stroke-width="0.5" d="M23.82,-79.62C23.82,-74.17 23.82,-67.52 23.82,-62.11"/>
</g>
<!-- &#45;5917095910606206980 -->
<g id="node10" class="node">
<title>&#45;5917095910606206980</title>
<path fill="none" stroke="black" stroke-width="1.25" d="M86.32,-62C86.32,-62 81.32,-62 81.32,-62 78.82,-62 76.32,-59.5 76.32,-57 76.32,-57 76.32,-45 76.32,-45 76.32,-42.5 78.82,-40 81.32,-40 81.32,-40 86.32,-40 86.32,-40 88.82,-40 91.32,-42.5 91.32,-45 91.32,-45 91.32,-57 91.32,-57 91.32,-59.5 88.82,-62 86.32,-62"/>
<text text-anchor="middle" x="83.82" y="-46.8" font-family="Times,serif" font-size="14.00">2</text>
</g>
<!-- &#45;2988908847467014086&#45;&gt;&#45;5917095910606206980 -->
<g id="edge12" class="edge">
<title>&#45;2988908847467014086&#45;&gt;&#45;5917095910606206980</title>
<path fill="none" stroke="black" stroke-width="0.5" d="M83.82,-79.62C83.82,-74.17 83.82,-67.52 83.82,-62.11"/>
</g>
<!-- &#45;7742303038560211840 -->
<g id="node9" class="node">
<title>&#45;7742303038560211840</title>
<path fill="none" stroke="black" stroke-width="1.25" d="M26.32,-22C26.32,-22 21.32,-22 21.32,-22 18.82,-22 16.32,-19.5 16.32,-17 16.32,-17 16.32,-5 16.32,-5 16.32,-2.5 18.82,0 21.32,0 21.32,0 26.32,0 26.32,0 28.82,0 31.32,-2.5 31.32,-5 31.32,-5 31.32,-17 31.32,-17 31.32,-19.5 28.82,-22 26.32,-22"/>
<text text-anchor="middle" x="23.82" y="-6.8" font-family="Times,serif" font-size="14.00">3</text>
</g>
<!-- &#45;2988905063877182666&#45;&gt;&#45;7742303038560211840 -->
<g id="edge11" class="edge">
<title>&#45;2988905063877182666&#45;&gt;&#45;7742303038560211840</title>
<path fill="none" stroke="black" stroke-width="0.5" d="M23.82,-39.62C23.82,-34.17 23.82,-27.52 23.82,-22.11"/>
</g>
<!-- 2808293679531064656&#45;&gt;&#45;5761236903839327667 -->
<!-- &#45;2988920198241168542 -->
<g id="node13" class="node">
<title>&#45;2988920198241168542</title>
<path fill="none" stroke="black" stroke-width="0.25" d="M184.77,-62C184.77,-62 162.87,-62 162.87,-62 159.21,-62 155.54,-58.33 155.54,-54.67 155.54,-54.67 155.54,-47.33 155.54,-47.33 155.54,-43.67 159.21,-40 162.87,-40 162.87,-40 184.77,-40 184.77,-40 188.43,-40 192.1,-43.67 192.1,-47.33 192.1,-47.33 192.1,-54.67 192.1,-54.67 192.1,-58.33 188.43,-62 184.77,-62"/>
<text text-anchor="middle" x="173.82" y="-46.8" font-family="Times,serif" font-size="14.00">Digit</text>
</g>
<!-- &#45;5761236903839327667&#45;&gt;&#45;2988920198241168542 -->
<g id="edge16" class="edge">
<title>&#45;5761236903839327667&#45;&gt;&#45;2988920198241168542</title>
<path fill="none" stroke="black" stroke-width="0.5" d="M173.82,-79.62C173.82,-74.17 173.82,-67.52 173.82,-62.11"/>
</g>
<!-- &#45;9137206306498954064 -->
<g id="node14" class="node">
<title>&#45;9137206306498954064</title>
<path fill="none" stroke="black" stroke-width="1.25" d="M176.32,-22C176.32,-22 171.32,-22 171.32,-22 168.82,-22 166.32,-19.5 166.32,-17 166.32,-17 166.32,-5 166.32,-5 166.32,-2.5 168.82,0 171.32,0 171.32,0 176.32,0 176.32,0 178.82,0 181.32,-2.5 181.32,-5 181.32,-5 181.32,-17 181.32,-17 181.32,-19.5 178.82,-22 176.32,-22"/>
<text text-anchor="middle" x="173.82" y="-6.8" font-family="Times,serif" font-size="14.00">5</text>
</g>
<!-- &#45;2988920198241168542&#45;&gt;&#45;9137206306498954064 -->
<g id="edge17" class="edge">
<title>&#45;2988920198241168542&#45;&gt;&#45;9137206306498954064</title>
<path fill="none" stroke="black" stroke-width="0.5" d="M173.82,-39.62C173.82,-34.17 173.82,-27.52 173.82,-22.11"/>
</g>
<!-- 602653818241806847&#45;&gt;&#45;5566814927317930394 -->
<!-- &#45;5566814927317930394&#45;&gt;&#45;5761253299396817219 -->
<!-- &#45;3631974661370616773 -->
<g id="node18" class="node">
<title>&#45;3631974661370616773</title>
<path fill="none" stroke="black" stroke-width="1.25" d="M267.45,-62C267.45,-62 262.19,-62 262.19,-62 259.56,-62 256.92,-59.37 256.92,-56.74 256.92,-56.74 256.92,-45.26 256.92,-45.26 256.92,-42.63 259.56,-40 262.19,-40 262.19,-40 267.45,-40 267.45,-40 270.08,-40 272.72,-42.63 272.72,-45.26 272.72,-45.26 272.72,-56.74 272.72,-56.74 272.72,-59.37 270.08,-62 267.45,-62"/>
<text text-anchor="middle" x="264.82" y="-46.8" font-family="Times,serif" font-size="14.00">+</text>
</g>
<!-- &#45;5566814927317930394&#45;&gt;&#45;3631974661370616773 -->
<g id="edge23" class="edge">
<title>&#45;5566814927317930394&#45;&gt;&#45;3631974661370616773</title>
<path fill="none" stroke="black" stroke-width="0.5" d="M264.82,-79.62C264.82,-74.17 264.82,-67.52 264.82,-62.11"/>
</g>
<!-- &#45;2988915153453173250 -->
<g id="node19" class="node">
<title>&#45;2988915153453173250</title>
<path fill="none" stroke="black" stroke-width="0.25" d="M334.77,-62C334.77,-62 312.87,-62 312.87,-62 309.21,-62 305.54,-58.33 305.54,-54.67 305.54,-54.67 305.54,-47.33 305.54,-47.33 305.54,-43.67 309.21,-40 312.87,-40 312.87,-40 334.77,-40 334.77,-40 338.43,-40 342.1,-43.67 342.1,-47.33 342.1,-47.33 342.1,-54.67 342.1,-54.67 342.1,-58.33 338.43,-62 334.77,-62"/>
<text text-anchor="middle" x="323.82" y="-46.8" font-family="Times,serif" font-size="14.00">Digit</text>
</g>
<!-- &#45;5761253299396817219&#45;&gt;&#45;2988915153453173250 -->
<g id="edge24" class="edge">
<title>&#45;5761253299396817219&#45;&gt;&#45;2988915153453173250</title>
<path fill="none" stroke="black" stroke-width="0.5" d="M323.82,-79.62C323.82,-74.17 323.82,-67.52 323.82,-62.11"/>
</g>
<!-- &#45;2423517074123187402 -->
<g id="node20" class="node">
<title>&#45;2423517074123187402</title>
<path fill="none" stroke="black" stroke-width="1.25" d="M326.32,-22C326.32,-22 321.32,-22 321.32,-22 318.82,-22 316.32,-19.5 316.32,-17 316.32,-17 316.32,-5 316.32,-5 316.32,-2.5 318.82,0 321.32,0 321.32,0 326.32,0 326.32,0 328.82,0 331.32,-2.5 331.32,-5 331.32,-5 331.32,-17 331.32,-17 331.32,-19.5 328.82,-22 326.32,-22"/>
<text text-anchor="middle" x="323.82" y="-6.8" font-family="Times,serif" font-size="14.00">1</text>
</g>
<!-- &#45;2988915153453173250&#45;&gt;&#45;2423517074123187402 -->
<g id="edge25" class="edge">
<title>&#45;2988915153453173250&#45;&gt;&#45;2423517074123187402</title>
<path fill="none" stroke="black" stroke-width="0.5" d="M323.82,-39.62C323.82,-34.17 323.82,-27.52 323.82,-22.11"/>
</g>
</g>
</svg>
