<?xml version="1.0" encoding="UTF-8" standalone="no"?>
<!DOCTYPE svg PUBLIC "-//W3C//DTD SVG 1.1//EN"
 "http://www.w3.org/Graphics/SVG/1.1/DTD/svg11.dtd">
<!-- Generated by graphviz version 2.43.0 (0)
 -->
<!-- Title: %3 Pages: 1 -->
<svg width="342pt" height="190pt"
 viewBox="0.00 0.00 342.32 190.00" xmlns="http://www.w3.org/2000/svg" xmlns:xlink="http://www.w3.org/1999/xlink">
<g id="graph0" class="graph" transform="scale(1 1) rotate(0) translate(4 186)">
<title>%3</title>
<polygon fill="white" stroke="transparent" points="-4,4 -4,-186 338.32,-186 338.32,4 -4,4"/>
<!-- &#45;7961835644453728019 -->
<g id="node1" class="node">
<title>&#45;7961835644453728019</title>
<path fill="none" stroke="black" stroke-width="0.25" d="M217.36,-182C217.36,-182 178.28,-182 178.28,-182 174.61,-182 170.94,-178.33 170.94,-174.67 170.94,-174.67 170.94,-167.33 170.94,-167.33 170.94,-163.67 174.61,-160 178.28,-160 178.28,-160 217.36,-160 217.36,-160 221.03,-160 224.7,-163.67 224.7,-167.33 224.7,-167.33 224.7,-174.67 224.7,-174.67 224.7,-178.33 221.03,-182 217.36,-182"/>
<text text-anchor="middle" x="197.82" y="-166.8" font-family="Times,serif" font-size="14.00">Number</text>
</g>
<!-- 3392319263713174171 -->
<g id="node2" class="node">
<title>3392319263713174171</title>
<path fill="none" stroke="black" stroke-width="0.25" d="M185.86,-142C185.86,-142 139.78,-142 139.78,-142 136.11,-142 132.44,-138.33 132.44,-134.67 132.44,-134.67 132.44,-127.33 132.44,-127.33 132.44,-123.67 136.11,-120 139.78,-120 139.78,-120 185.86,-120 185.86,-120 189.53,-120 193.2,-123.67 193.2,-127.33 193.2,-127.33 193.2,-134.67 193.2,-134.67 193.2,-138.33 189.53,-142 185.86,-142"/>
<text text-anchor="middle" x="162.82" y="-126.8" font-family="Times,serif" font-size="14.00">Number1</text>
</g>
<!-- &#45;7961835644453728019&#45;&gt;3392319263713174171 -->
<g id="edge1" class="edge">
<title>&#45;7961835644453728019&#45;&gt;3392319263713174171</title>
<path fill="none" stroke="black" stroke-width="0.5" d="M188.26,-159.62C183.24,-154.17 177.11,-147.52 172.13,-142.11"/>
</g>
<!-- &#45;2362742692521578340 -->
<g id="node3" class="node">
<title>&#45;2362742692521578340</title>
<path fill="none" stroke="black" stroke-width="0.25" d="M250.97,-142C250.97,-142 222.67,-142 222.67,-142 219.01,-142 215.34,-138.33 215.34,-134.67 215.34,-134.67 215.34,-127.33 215.34,-127.33 215.34,-123.67 219.01,-120 222.67,-120 222.67,-120 250.97,-120 250.97,-120 254.63,-120 258.3,-123.67 258.3,-127.33 258.3,-127.33 258.3,-134.67 258.3,-134.67 258.3,-138.33 254.63,-142 250.97,-142"/>
<text text-anchor="middle" x="236.82" y="-126.8" font-family="Times,serif" font-size="14.00">Scale’</text>
</g>
<!-- &#45;7961835644453728019&#45;&gt;&#45;2362742692521578340 -->
<g id="edge2" class="edge">
<title>&#45;7961835644453728019&#45;&gt;&#45;2362742692521578340</title>
<path fill="none" stroke="black" stroke-width="0.5" d="M208.48,-159.62C214.07,-154.17 220.9,-147.52 226.45,-142.11"/>
</g>
<!-- 3392319263713174171&#45;&gt;&#45;2362742692521578340 -->
<!-- &#45;5761243209823156733 -->
<g id="node4" class="node">
<title>&#45;5761243209823156733</title>
<path fill="none" stroke="black" stroke-width="0.25" d="M102.13,-102C102.13,-102 69.51,-102 69.51,-102 65.84,-102 62.18,-98.33 62.18,-94.67 62.18,-94.67 62.18,-87.33 62.18,-87.33 62.18,-83.67 65.84,-80 69.51,-80 69.51,-80 102.13,-80 102.13,-80 105.8,-80 109.46,-83.67 109.46,-87.33 109.46,-87.33 109.46,-94.67 109.46,-94.67 109.46,-98.33 105.8,-102 102.13,-102"/>
<text text-anchor="middle" x="85.82" y="-86.8" font-family="Times,serif" font-size="14.00">Integer</text>
</g>
<!-- 3392319263713174171&#45;&gt;&#45;5761243209823156733 -->
<g id="edge4" class="edge">
<title>3392319263713174171&#45;&gt;&#45;5761243209823156733</title>
<path fill="none" stroke="black" stroke-width="0.5" d="M142.19,-119.82C131.05,-114.32 117.35,-107.56 106.25,-102.08"/>
</g>
<!-- 4302599549392366080 -->
<g id="node5" class="node">
<title>4302599549392366080</title>
<path fill="none" stroke="black" stroke-width="0.25" d="M175.64,-102C175.64,-102 136,-102 136,-102 132.33,-102 128.66,-98.33 128.66,-94.67 128.66,-94.67 128.66,-87.33 128.66,-87.33 128.66,-83.67 132.33,-80 136,-80 136,-80 175.64,-80 175.64,-80 179.31,-80 182.98,-83.67 182.98,-87.33 182.98,-87.33 182.98,-94.67 182.98,-94.67 182.98,-98.33 179.31,-102 175.64,-102"/>
<text text-anchor="middle" x="155.82" y="-86.8" font-family="Times,serif" font-size="14.00">Fraction</text>
</g>
<!-- 3392319263713174171&#45;&gt;4302599549392366080 -->
<g id="edge5" class="edge">
<title>3392319263713174171&#45;&gt;4302599549392366080</title>
<path fill="none" stroke="black" stroke-width="0.5" d="M160.91,-119.62C159.9,-114.17 158.68,-107.52 157.68,-102.11"/>
</g>
<!-- &#45;1752428036063408908 -->
<g id="node14" class="node">
<title>&#45;1752428036063408908</title>
<path fill="none" stroke="black" stroke-width="0.25" d="M255.47,-102C255.47,-102 220.17,-102 220.17,-102 216.51,-102 212.84,-98.33 212.84,-94.67 212.84,-94.67 212.84,-87.33 212.84,-87.33 212.84,-83.67 216.51,-80 220.17,-80 220.17,-80 255.47,-80 255.47,-80 259.13,-80 262.8,-83.67 262.8,-87.33 262.8,-87.33 262.8,-94.67 262.8,-94.67 262.8,-98.33 259.13,-102 255.47,-102"/>
<text text-anchor="middle" x="237.82" y="-86.8" font-family="Times,serif" font-size="14.00">Scale’1</text>
</g>
<!-- &#45;2362742692521578340&#45;&gt;&#45;1752428036063408908 -->
<g id="edge17" class="edge">
<title>&#45;2362742692521578340&#45;&gt;&#45;1752428036063408908</title>
<path fill="none" stroke="black" stroke-width="0.5" d="M237.09,-119.62C237.24,-114.17 237.41,-107.52 237.55,-102.11"/>
</g>
<!-- &#45;5761249515809315897 -->
<g id="node15" class="node">
<title>&#45;5761249515809315897</title>
<path fill="none" stroke="black" stroke-width="0.25" d="M321.13,-102C321.13,-102 288.51,-102 288.51,-102 284.84,-102 281.18,-98.33 281.18,-94.67 281.18,-94.67 281.18,-87.33 281.18,-87.33 281.18,-83.67 284.84,-80 288.51,-80 288.51,-80 321.13,-80 321.13,-80 324.8,-80 328.46,-83.67 328.46,-87.33 328.46,-87.33 328.46,-94.67 328.46,-94.67 328.46,-98.33 324.8,-102 321.13,-102"/>
<text text-anchor="middle" x="304.82" y="-86.8" font-family="Times,serif" font-size="14.00">Integer</text>
</g>
<!-- &#45;2362742692521578340&#45;&gt;&#45;5761249515809315897 -->
<g id="edge18" class="edge">
<title>&#45;2362742692521578340&#45;&gt;&#45;5761249515809315897</title>
<path fill="none" stroke="black" stroke-width="0.5" d="M255.04,-119.82C264.8,-114.36 276.78,-107.67 286.55,-102.21"/>
</g>
<!-- &#45;5761243209823156733&#45;&gt;4302599549392366080 -->
<!-- &#45;5761241948626157910 -->
<g id="node6" class="node">
<title>&#45;5761241948626157910</title>
<path fill="none" stroke="black" stroke-width="0.25" d="M40.13,-62C40.13,-62 7.51,-62 7.51,-62 3.84,-62 0.18,-58.33 0.18,-54.67 0.18,-54.67 0.18,-47.33 0.18,-47.33 0.18,-43.67 3.84,-40 7.51,-40 7.51,-40 40.13,-40 40.13,-40 43.8,-40 47.46,-43.67 47.46,-47.33 47.46,-47.33 47.46,-54.67 47.46,-54.67 47.46,-58.33 43.8,-62 40.13,-62"/>
<text text-anchor="middle" x="23.82" y="-46.8" font-family="Times,serif" font-size="14.00">Integer</text>
</g>
<!-- &#45;5761243209823156733&#45;&gt;&#45;5761241948626157910 -->
<g id="edge7" class="edge">
<title>&#45;5761243209823156733&#45;&gt;&#45;5761241948626157910</title>
<path fill="none" stroke="black" stroke-width="0.5" d="M69.21,-79.82C60.31,-74.36 49.38,-67.67 40.48,-62.21"/>
</g>
<!-- &#45;2988908847467014086 -->
<g id="node7" class="node">
<title>&#45;2988908847467014086</title>
<path fill="none" stroke="black" stroke-width="0.25" d="M94.77,-62C94.77,-62 72.87,-62 72.87,-62 69.21,-62 65.54,-58.33 65.54,-54.67 65.54,-54.67 65.54,-47.33 65.54,-47.33 65.54,-43.67 69.21,-40 72.87,-40 72.87,-40 94.77,-40 94.77,-40 98.43,-40 102.1,-43.67 102.1,-47.33 102.1,-47.33 102.1,-54.67 102.1,-54.67 102.1,-58.33 98.43,-62 94.77,-62"/>
<text text-anchor="middle" x="83.82" y="-46.8" font-family="Times,serif" font-size="14.00">Digit</text>
</g>
<!-- &#45;5761243209823156733&#45;&gt;&#45;2988908847467014086 -->
<g id="edge8" class="edge">
<title>&#45;5761243209823156733&#45;&gt;&#45;2988908847467014086</title>
<path fill="none" stroke="black" stroke-width="0.5" d="M85.27,-79.62C84.99,-74.17 84.64,-67.52 84.35,-62.11"/>
</g>
<!-- 2294533510559279264 -->
<g id="node10" class="node">
<title>2294533510559279264</title>
<path fill="none" stroke="black" stroke-width="0.25" d="M134.36,-62C134.36,-62 127.28,-62 127.28,-62 123.74,-62 120.21,-58.46 120.21,-54.92 120.21,-54.92 120.21,-47.08 120.21,-47.08 120.21,-43.54 123.74,-40 127.28,-40 127.28,-40 134.36,-40 134.36,-40 137.9,-40 141.43,-43.54 141.43,-47.08 141.43,-47.08 141.43,-54.92 141.43,-54.92 141.43,-58.46 137.9,-62 134.36,-62"/>
<text text-anchor="middle" x="130.82" y="-46.8" font-family="Times,serif" font-size="14.00">N.</text>
</g>
<!-- 4302599549392366080&#45;&gt;2294533510559279264 -->
<g id="edge12" class="edge">
<title>4302599549392366080&#45;&gt;2294533510559279264</title>
<path fill="none" stroke="black" stroke-width="0.5" d="M148.99,-79.62C145.4,-74.17 141.03,-67.52 137.47,-62.11"/>
</g>
<!-- &#45;5761238165033996392 -->
<g id="node11" class="node">
<title>&#45;5761238165033996392</title>
<path fill="none" stroke="black" stroke-width="0.25" d="M200.13,-62C200.13,-62 167.51,-62 167.51,-62 163.84,-62 160.18,-58.33 160.18,-54.67 160.18,-54.67 160.18,-47.33 160.18,-47.33 160.18,-43.67 163.84,-40 167.51,-40 167.51,-40 200.13,-40 200.13,-40 203.8,-40 207.46,-43.67 207.46,-47.33 207.46,-47.33 207.46,-54.67 207.46,-54.67 207.46,-58.33 203.8,-62 200.13,-62"/>
<text text-anchor="middle" x="183.82" y="-46.8" font-family="Times,serif" font-size="14.00">Integer</text>
</g>
<!-- 4302599549392366080&#45;&gt;&#45;5761238165033996392 -->
<g id="edge13" class="edge">
<title>4302599549392366080&#45;&gt;&#45;5761238165033996392</title>
<path fill="none" stroke="black" stroke-width="0.5" d="M163.47,-79.62C167.49,-74.17 172.39,-67.52 176.37,-62.11"/>
</g>
<!-- &#45;5761241948626157910&#45;&gt;&#45;2988908847467014086 -->
<!-- &#45;7742304299757210663 -->
<g id="node8" class="node">
<title>&#45;7742304299757210663</title>
<path fill="none" stroke="black" stroke-width="1.25" d="M26.32,-22C26.32,-22 21.32,-22 21.32,-22 18.82,-22 16.32,-19.5 16.32,-17 16.32,-17 16.32,-5 16.32,-5 16.32,-2.5 18.82,0 21.32,0 21.32,0 26.32,0 26.32,0 28.82,0 31.32,-2.5 31.32,-5 31.32,-5 31.32,-17 31.32,-17 31.32,-19.5 28.82,-22 26.32,-22"/>
<text text-anchor="middle" x="23.82" y="-6.8" font-family="Times,serif" font-size="14.00">3</text>
</g>
<!-- &#45;5761241948626157910&#45;&gt;&#45;7742304299757210663 -->
<g id="edge10" class="edge">
<title>&#45;5761241948626157910&#45;&gt;&#45;7742304299757210663</title>
<path fill="none" stroke="black" stroke-width="0.5" d="M23.82,-39.62C23.82,-34.17 23.82,-27.52 23.82,-22.11"/>
</g>
<!-- &#45;5917099694197203449 -->
<g id="node9" class="node">
<title>&#45;5917099694197203449</title>
<path fill="none" stroke="black" stroke-width="1.25" d="M86.32,-22C86.32,-22 81.32,-22 81.32,-22 78.82,-22 76.32,-19.5 76.32,-17 76.32,-17 76.32,-5 76.32,-5 76.32,-2.5 78.82,0 81.32,0 81.32,0 86.32,0 86.32,0 88.82,0 91.32,-2.5 91.32,-5 91.32,-5 91.32,-17 91.32,-17 91.32,-19.5 88.82,-22 86.32,-22"/>
<text text-anchor="middle" x="83.82" y="-6.8" font-family="Times,serif" font-size="14.00">2</text>
</g>
<!-- &#45;2988908847467014086&#45;&gt;&#45;5917099694197203449 -->
<g id="edge11" class="edge">
<title>&#45;2988908847467014086&#45;&gt;&#45;5917099694197203449</title>
<path fill="none" stroke="black" stroke-width="0.5" d="M83.82,-39.62C83.82,-34.17 83.82,-27.52 83.82,-22.11"/>
</g>
<!-- 2294533510559279264&#45;&gt;&#45;5761238165033996392 -->
<!-- 2808293679531064656 -->
<g id="node12" class="node">
<title>2808293679531064656</title>
<path fill="none" stroke="black" stroke-width="1.25" d="M132.66,-22C132.66,-22 128.98,-22 128.98,-22 127.15,-22 125.31,-20.16 125.31,-18.33 125.31,-18.33 125.31,-3.67 125.31,-3.67 125.31,-1.84 127.15,0 128.98,0 128.98,0 132.66,0 132.66,0 134.49,0 136.33,-1.84 136.33,-3.67 136.33,-3.67 136.33,-18.33 136.33,-18.33 136.33,-20.16 134.49,-22 132.66,-22"/>
<text text-anchor="middle" x="130.82" y="-6.8" font-family="Times,serif" font-size="14.00">.</text>
</g>
<!-- 2294533510559279264&#45;&gt;2808293679531064656 -->
<g id="edge15" class="edge">
<title>2294533510559279264&#45;&gt;2808293679531064656</title>
<path fill="none" stroke="black" stroke-width="0.5" d="M130.82,-39.62C130.82,-34.17 130.82,-27.52 130.82,-22.11"/>
</g>
<!-- &#45;9137207567695952887 -->
<g id="node13" class="node">
<title>&#45;9137207567695952887</title>
<path fill="none" stroke="black" stroke-width="1.25" d="M186.32,-22C186.32,-22 181.32,-22 181.32,-22 178.82,-22 176.32,-19.5 176.32,-17 176.32,-17 176.32,-5 176.32,-5 176.32,-2.5 178.82,0 181.32,0 181.32,0 186.32,0 186.32,0 188.82,0 191.32,-2.5 191.32,-5 191.32,-5 191.32,-17 191.32,-17 191.32,-19.5 188.82,-22 186.32,-22"/>
<text text-anchor="middle" x="183.82" y="-6.8" font-family="Times,serif" font-size="14.00">5</text>
</g>
<!-- &#45;5761238165033996392&#45;&gt;&#45;9137207567695952887 -->
<g id="edge16" class="edge">
<title>&#45;5761238165033996392&#45;&gt;&#45;9137207567695952887</title>
<path fill="none" stroke="black" stroke-width="0.5" d="M183.82,-39.62C183.82,-34.17 183.82,-27.52 183.82,-22.11"/>
</g>
<!-- &#45;1752428036063408908&#45;&gt;&#45;5761249515809315897 -->
<!-- &#45;2894727579332750179 -->
<g id="node16" class="node">
<title>&#45;2894727579332750179</title>
<path fill="none" stroke="black" stroke-width="0.25" d="M242.81,-62C242.81,-62 232.83,-62 232.83,-62 229.16,-62 225.49,-58.33 225.49,-54.67 225.49,-54.67 225.49,-47.33 225.49,-47.33 225.49,-43.67 229.16,-40 232.83,-40 232.83,-40 242.81,-40 242.81,-40 246.48,-40 250.15,-43.67 250.15,-47.33 250.15,-47.33 250.15,-54.67 250.15,-54.67 250.15,-58.33 246.48,-62 242.81,-62"/>
<text text-anchor="middle" x="237.82" y="-46.8" font-family="Times,serif" font-size="14.00">Ne</text>
</g>
<!-- &#45;1752428036063408908&#45;&gt;&#45;2894727579332750179 -->
<g id="edge20" class="edge">
<title>&#45;1752428036063408908&#45;&gt;&#45;2894727579332750179</title>
<path fill="none" stroke="black" stroke-width="0.5" d="M237.82,-79.62C237.82,-74.17 237.82,-67.52 237.82,-62.11"/>
</g>
<!-- &#45;5566814927317930394 -->
<g id="node17" class="node">
<title>&#45;5566814927317930394</title>
<path fill="none" stroke="black" stroke-width="0.25" d="M294.16,-62C294.16,-62 275.48,-62 275.48,-62 271.81,-62 268.14,-58.33 268.14,-54.67 268.14,-54.67 268.14,-47.33 268.14,-47.33 268.14,-43.67 271.81,-40 275.48,-40 275.48,-40 294.16,-40 294.16,-40 297.83,-40 301.5,-43.67 301.5,-47.33 301.5,-47.33 301.5,-54.67 301.5,-54.67 301.5,-58.33 297.83,-62 294.16,-62"/>
<text text-anchor="middle" x="284.82" y="-46.8" font-family="Times,serif" font-size="14.00">Sign</text>
</g>
<!-- &#45;1752428036063408908&#45;&gt;&#45;5566814927317930394 -->
<g id="edge21" class="edge">
<title>&#45;1752428036063408908&#45;&gt;&#45;5566814927317930394</title>
<path fill="none" stroke="black" stroke-width="0.5" d="M250.66,-79.62C257.4,-74.17 265.63,-67.52 272.32,-62.11"/>
</g>
<!-- &#45;2423517074123187402 -->
<g id="node20" class="node">
<title>&#45;2423517074123187402</title>
<path fill="none" stroke="black" stroke-width="1.25" d="M329.32,-62C329.32,-62 324.32,-62 324.32,-62 321.82,-62 319.32,-59.5 319.32,-57 319.32,-57 319.32,-45 319.32,-45 319.32,-42.5 321.82,-40 324.32,-40 324.32,-40 329.32,-40 329.32,-40 331.82,-40 334.32,-42.5 334.32,-45 334.32,-45 334.32,-57 334.32,-57 334.32,-59.5 331.82,-62 329.32,-62"/>
<text text-anchor="middle" x="326.82" y="-46.8" font-family="Times,serif" font-size="14.00">1</text>
</g>
<!-- &#45;5761249515809315897&#45;&gt;&#45;2423517074123187402 -->
<g id="edge25" class="edge">
<title>&#45;5761249515809315897&#45;&gt;&#45;2423517074123187402</title>
<path fill="none" stroke="black" stroke-width="0.5" d="M310.83,-79.62C313.99,-74.17 317.84,-67.52 320.97,-62.11"/>
</g>
<!-- &#45;2894727579332750179&#45;&gt;&#45;5566814927317930394 -->
<!-- 602655079438805670 -->
<g id="node18" class="node">
<title>602655079438805670</title>
<path fill="none" stroke="black" stroke-width="1.25" d="M240.23,-22C240.23,-22 235.42,-22 235.42,-22 233.01,-22 230.61,-19.59 230.61,-17.19 230.61,-17.19 230.61,-4.81 230.61,-4.81 230.61,-2.41 233.01,0 235.42,0 235.42,0 240.23,0 240.23,0 242.63,0 245.04,-2.41 245.04,-4.81 245.04,-4.81 245.04,-17.19 245.04,-17.19 245.04,-19.59 242.63,-22 240.23,-22"/>
<text text-anchor="middle" x="237.82" y="-6.8" font-family="Times,serif" font-size="14.00">e</text>
</g>
<!-- &#45;2894727579332750179&#45;&gt;602655079438805670 -->
<g id="edge23" class="edge">
<title>&#45;2894727579332750179&#45;&gt;602655079438805670</title>
<path fill="none" stroke="black" stroke-width="0.5" d="M237.82,-39.62C237.82,-34.17 237.82,-27.52 237.82,-22.11"/>
</g>
<!-- &#45;3631965832991625012 -->
<g id="node19" class="node">
<title>&#45;3631965832991625012</title>
<path fill="none" stroke="black" stroke-width="1.25" d="M287.45,-22C287.45,-22 282.19,-22 282.19,-22 279.56,-22 276.92,-19.37 276.92,-16.74 276.92,-16.74 276.92,-5.26 276.92,-5.26 276.92,-2.63 279.56,0 282.19,0 282.19,0 287.45,0 287.45,0 290.08,0 292.72,-2.63 292.72,-5.26 292.72,-5.26 292.72,-16.74 292.72,-16.74 292.72,-19.37 290.08,-22 287.45,-22"/>
<text text-anchor="middle" x="284.82" y="-6.8" font-family="Times,serif" font-size="14.00">+</text>
</g>
<!-- &#45;5566814927317930394&#45;&gt;&#45;3631965832991625012 -->
<g id="edge24" class="edge">
<title>&#45;5566814927317930394&#45;&gt;&#45;3631965832991625012</title>
<path fill="none" stroke="black" stroke-width="0.5" d="M284.82,-39.62C284.82,-34.17 284.82,-27.52 284.82,-22.11"/>
</g>
</g>
</svg>
