<?xml version="1.0" encoding="UTF-8" standalone="no"?>
<!DOCTYPE svg PUBLIC "-//W3C//DTD SVG 1.1//EN"
 "http://www.w3.org/Graphics/SVG/1.1/DTD/svg11.dtd">
<!-- Generated by graphviz version 2.43.0 (0)
 -->
<!-- Title: %3 Pages: 1 -->
<svg width="342pt" height="195pt"
 viewBox="0.00 0.00 342.00 195.00" xmlns="http://www.w3.org/2000/svg" xmlns:xlink="http://www.w3.org/1999/xlink">
<g id="graph0" class="graph" transform="scale(1 1) rotate(0) translate(4 191)">
<title>%3</title>
<polygon fill="white" stroke="transparent" points="-4,4 -4,-191 338,-191 338,4 -4,4"/>
<!-- 8582667480115501468 -->
<g id="node1" class="node">
<title>8582667480115501468</title>
<path fill="none" stroke="black" stroke-width="0.25" d="M216.83,-187C216.83,-187 178.17,-187 178.17,-187 174.33,-187 170.5,-183.17 170.5,-179.33 170.5,-179.33 170.5,-171.67 170.5,-171.67 170.5,-167.83 174.33,-164 178.17,-164 178.17,-164 216.83,-164 216.83,-164 220.67,-164 224.5,-167.83 224.5,-171.67 224.5,-171.67 224.5,-179.33 224.5,-179.33 224.5,-183.17 220.67,-187 216.83,-187"/>
<text text-anchor="middle" x="197.5" y="-171.8" font-family="Times,serif" font-size="14.00">Number</text>
</g>
<!-- &#45;3406939549907008982 -->
<g id="node2" class="node">
<title>&#45;3406939549907008982</title>
<path fill="none" stroke="black" stroke-width="0.25" d="M185.83,-146C185.83,-146 141.17,-146 141.17,-146 137.33,-146 133.5,-142.17 133.5,-138.33 133.5,-138.33 133.5,-130.67 133.5,-130.67 133.5,-126.83 137.33,-123 141.17,-123 141.17,-123 185.83,-123 185.83,-123 189.67,-123 193.5,-126.83 193.5,-130.67 193.5,-130.67 193.5,-138.33 193.5,-138.33 193.5,-142.17 189.67,-146 185.83,-146"/>
<text text-anchor="middle" x="163.5" y="-130.8" font-family="Times,serif" font-size="14.00">Number1</text>
</g>
<!-- 8582667480115501468&#45;&gt;&#45;3406939549907008982 -->
<g id="edge1" class="edge">
<title>8582667480115501468&#45;&gt;&#45;3406939549907008982</title>
<path fill="none" stroke="black" stroke-width="0.5" d="M188.21,-163.84C183.41,-158.34 177.58,-151.65 172.78,-146.14"/>
</g>
<!-- 785783266513079649 -->
<g id="node3" class="node">
<title>785783266513079649</title>
<path fill="none" stroke="black" stroke-width="0.25" d="M249.33,-146C249.33,-146 223.67,-146 223.67,-146 219.83,-146 216,-142.17 216,-138.33 216,-138.33 216,-130.67 216,-130.67 216,-126.83 219.83,-123 223.67,-123 223.67,-123 249.33,-123 249.33,-123 253.17,-123 257,-126.83 257,-130.67 257,-130.67 257,-138.33 257,-138.33 257,-142.17 253.17,-146 249.33,-146"/>
<text text-anchor="middle" x="236.5" y="-130.8" font-family="Times,serif" font-size="14.00">Scale′</text>
</g>
<!-- 8582667480115501468&#45;&gt;785783266513079649 -->
<g id="edge2" class="edge">
<title>8582667480115501468&#45;&gt;785783266513079649</title>
<path fill="none" stroke="black" stroke-width="0.5" d="M208.16,-163.84C213.66,-158.34 220.35,-151.65 225.86,-146.14"/>
</g>
<!-- &#45;3406939549907008982&#45;&gt;785783266513079649 -->
<!-- 1023389286653278431 -->
<g id="node4" class="node">
<title>1023389286653278431</title>
<path fill="none" stroke="black" stroke-width="0.25" d="M101.33,-105C101.33,-105 69.67,-105 69.67,-105 65.83,-105 62,-101.17 62,-97.33 62,-97.33 62,-89.67 62,-89.67 62,-85.83 65.83,-82 69.67,-82 69.67,-82 101.33,-82 101.33,-82 105.17,-82 109,-85.83 109,-89.67 109,-89.67 109,-97.33 109,-97.33 109,-101.17 105.17,-105 101.33,-105"/>
<text text-anchor="middle" x="85.5" y="-89.8" font-family="Times,serif" font-size="14.00">Integer</text>
</g>
<!-- &#45;3406939549907008982&#45;&gt;1023389286653278431 -->
<g id="edge4" class="edge">
<title>&#45;3406939549907008982&#45;&gt;1023389286653278431</title>
<path fill="none" stroke="black" stroke-width="0.5" d="M142.19,-122.84C131.09,-117.3 117.57,-110.54 106.52,-105.01"/>
</g>
<!-- &#45;955786344410734764 -->
<g id="node5" class="node">
<title>&#45;955786344410734764</title>
<path fill="none" stroke="black" stroke-width="0.25" d="M174.83,-105C174.83,-105 136.17,-105 136.17,-105 132.33,-105 128.5,-101.17 128.5,-97.33 128.5,-97.33 128.5,-89.67 128.5,-89.67 128.5,-85.83 132.33,-82 136.17,-82 136.17,-82 174.83,-82 174.83,-82 178.67,-82 182.5,-85.83 182.5,-89.67 182.5,-89.67 182.5,-97.33 182.5,-97.33 182.5,-101.17 178.67,-105 174.83,-105"/>
<text text-anchor="middle" x="155.5" y="-89.8" font-family="Times,serif" font-size="14.00">Fraction</text>
</g>
<!-- &#45;3406939549907008982&#45;&gt;&#45;955786344410734764 -->
<g id="edge5" class="edge">
<title>&#45;3406939549907008982&#45;&gt;&#45;955786344410734764</title>
<path fill="none" stroke="black" stroke-width="0.5" d="M161.31,-122.84C160.19,-117.34 158.81,-110.65 157.68,-105.14"/>
</g>
<!-- &#45;2689582822586559811 -->
<g id="node14" class="node">
<title>&#45;2689582822586559811</title>
<path fill="none" stroke="black" stroke-width="0.25" d="M253.83,-105C253.83,-105 221.17,-105 221.17,-105 217.33,-105 213.5,-101.17 213.5,-97.33 213.5,-97.33 213.5,-89.67 213.5,-89.67 213.5,-85.83 217.33,-82 221.17,-82 221.17,-82 253.83,-82 253.83,-82 257.67,-82 261.5,-85.83 261.5,-89.67 261.5,-89.67 261.5,-97.33 261.5,-97.33 261.5,-101.17 257.67,-105 253.83,-105"/>
<text text-anchor="middle" x="237.5" y="-89.8" font-family="Times,serif" font-size="14.00">Scale′1</text>
</g>
<!-- 785783266513079649&#45;&gt;&#45;2689582822586559811 -->
<g id="edge17" class="edge">
<title>785783266513079649&#45;&gt;&#45;2689582822586559811</title>
<path fill="none" stroke="black" stroke-width="0.5" d="M236.77,-122.84C236.91,-117.34 237.09,-110.65 237.23,-105.14"/>
</g>
<!-- 8946936148518857237 -->
<g id="node15" class="node">
<title>8946936148518857237</title>
<path fill="none" stroke="black" stroke-width="0.25" d="M319.33,-105C319.33,-105 287.67,-105 287.67,-105 283.83,-105 280,-101.17 280,-97.33 280,-97.33 280,-89.67 280,-89.67 280,-85.83 283.83,-82 287.67,-82 287.67,-82 319.33,-82 319.33,-82 323.17,-82 327,-85.83 327,-89.67 327,-89.67 327,-97.33 327,-97.33 327,-101.17 323.17,-105 319.33,-105"/>
<text text-anchor="middle" x="303.5" y="-89.8" font-family="Times,serif" font-size="14.00">Integer</text>
</g>
<!-- 785783266513079649&#45;&gt;8946936148518857237 -->
<g id="edge18" class="edge">
<title>785783266513079649&#45;&gt;8946936148518857237</title>
<path fill="none" stroke="black" stroke-width="0.5" d="M254.81,-122.84C264.26,-117.34 275.76,-110.65 285.21,-105.14"/>
</g>
<!-- 1023389286653278431&#45;&gt;&#45;955786344410734764 -->
<!-- &#45;1413668560086967262 -->
<g id="node6" class="node">
<title>&#45;1413668560086967262</title>
<path fill="none" stroke="black" stroke-width="0.25" d="M39.33,-64C39.33,-64 7.67,-64 7.67,-64 3.83,-64 0,-60.17 0,-56.33 0,-56.33 0,-48.67 0,-48.67 0,-44.83 3.83,-41 7.67,-41 7.67,-41 39.33,-41 39.33,-41 43.17,-41 47,-44.83 47,-48.67 47,-48.67 47,-56.33 47,-56.33 47,-60.17 43.17,-64 39.33,-64"/>
<text text-anchor="middle" x="23.5" y="-48.8" font-family="Times,serif" font-size="14.00">Integer</text>
</g>
<!-- 1023389286653278431&#45;&gt;&#45;1413668560086967262 -->
<g id="edge7" class="edge">
<title>1023389286653278431&#45;&gt;&#45;1413668560086967262</title>
<path fill="none" stroke="black" stroke-width="0.5" d="M68.56,-81.84C59.81,-76.34 49.17,-69.65 40.42,-64.14"/>
</g>
<!-- &#45;6475183597374223520 -->
<g id="node7" class="node">
<title>&#45;6475183597374223520</title>
<path fill="none" stroke="black" stroke-width="0.25" d="M93.83,-64C93.83,-64 73.17,-64 73.17,-64 69.33,-64 65.5,-60.17 65.5,-56.33 65.5,-56.33 65.5,-48.67 65.5,-48.67 65.5,-44.83 69.33,-41 73.17,-41 73.17,-41 93.83,-41 93.83,-41 97.67,-41 101.5,-44.83 101.5,-48.67 101.5,-48.67 101.5,-56.33 101.5,-56.33 101.5,-60.17 97.67,-64 93.83,-64"/>
<text text-anchor="middle" x="83.5" y="-48.8" font-family="Times,serif" font-size="14.00">Digit</text>
</g>
<!-- 1023389286653278431&#45;&gt;&#45;6475183597374223520 -->
<g id="edge8" class="edge">
<title>1023389286653278431&#45;&gt;&#45;6475183597374223520</title>
<path fill="none" stroke="black" stroke-width="0.5" d="M84.95,-81.84C84.67,-76.34 84.33,-69.65 84.05,-64.14"/>
</g>
<!-- &#45;55198529345760272 -->
<g id="node10" class="node">
<title>&#45;55198529345760272</title>
<path fill="none" stroke="black" stroke-width="0.25" d="M134.17,-64C134.17,-64 126.83,-64 126.83,-64 123.17,-64 119.5,-60.33 119.5,-56.67 119.5,-56.67 119.5,-48.33 119.5,-48.33 119.5,-44.67 123.17,-41 126.83,-41 126.83,-41 134.17,-41 134.17,-41 137.83,-41 141.5,-44.67 141.5,-48.33 141.5,-48.33 141.5,-56.67 141.5,-56.67 141.5,-60.33 137.83,-64 134.17,-64"/>
<text text-anchor="middle" x="130.5" y="-48.8" font-family="Times,serif" font-size="14.00">N.</text>
</g>
<!-- &#45;955786344410734764&#45;&gt;&#45;55198529345760272 -->
<g id="edge12" class="edge">
<title>&#45;955786344410734764&#45;&gt;&#45;55198529345760272</title>
<path fill="none" stroke="black" stroke-width="0.5" d="M148.67,-81.84C145.14,-76.34 140.85,-69.65 137.32,-64.14"/>
</g>
<!-- &#45;1759672007772862131 -->
<g id="node11" class="node">
<title>&#45;1759672007772862131</title>
<path fill="none" stroke="black" stroke-width="0.25" d="M199.33,-64C199.33,-64 167.67,-64 167.67,-64 163.83,-64 160,-60.17 160,-56.33 160,-56.33 160,-48.67 160,-48.67 160,-44.83 163.83,-41 167.67,-41 167.67,-41 199.33,-41 199.33,-41 203.17,-41 207,-44.83 207,-48.67 207,-48.67 207,-56.33 207,-56.33 207,-60.17 203.17,-64 199.33,-64"/>
<text text-anchor="middle" x="183.5" y="-48.8" font-family="Times,serif" font-size="14.00">Integer</text>
</g>
<!-- &#45;955786344410734764&#45;&gt;&#45;1759672007772862131 -->
<g id="edge13" class="edge">
<title>&#45;955786344410734764&#45;&gt;&#45;1759672007772862131</title>
<path fill="none" stroke="black" stroke-width="0.5" d="M163.15,-81.84C167.1,-76.34 171.91,-69.65 175.86,-64.14"/>
</g>
<!-- &#45;1413668560086967262&#45;&gt;&#45;6475183597374223520 -->
<!-- 9010116065509413025 -->
<g id="node8" class="node">
<title>9010116065509413025</title>
<path fill="none" stroke="black" stroke-width="1.25" d="M26,-23C26,-23 21,-23 21,-23 18.5,-23 16,-20.5 16,-18 16,-18 16,-5 16,-5 16,-2.5 18.5,0 21,0 21,0 26,0 26,0 28.5,0 31,-2.5 31,-5 31,-5 31,-18 31,-18 31,-20.5 28.5,-23 26,-23"/>
<text text-anchor="middle" x="23.5" y="-7.8" font-family="Times,serif" font-size="14.00">3</text>
</g>
<!-- &#45;1413668560086967262&#45;&gt;9010116065509413025 -->
<g id="edge10" class="edge">
<title>&#45;1413668560086967262&#45;&gt;9010116065509413025</title>
<path fill="none" stroke="black" stroke-width="0.5" d="M23.5,-40.84C23.5,-35.34 23.5,-28.65 23.5,-23.14"/>
</g>
<!-- 8862104336578424395 -->
<g id="node9" class="node">
<title>8862104336578424395</title>
<path fill="none" stroke="black" stroke-width="1.25" d="M86,-23C86,-23 81,-23 81,-23 78.5,-23 76,-20.5 76,-18 76,-18 76,-5 76,-5 76,-2.5 78.5,0 81,0 81,0 86,0 86,0 88.5,0 91,-2.5 91,-5 91,-5 91,-18 91,-18 91,-20.5 88.5,-23 86,-23"/>
<text text-anchor="middle" x="83.5" y="-7.8" font-family="Times,serif" font-size="14.00">2</text>
</g>
<!-- &#45;6475183597374223520&#45;&gt;8862104336578424395 -->
<g id="edge11" class="edge">
<title>&#45;6475183597374223520&#45;&gt;8862104336578424395</title>
<path fill="none" stroke="black" stroke-width="0.5" d="M83.5,-40.84C83.5,-35.34 83.5,-28.65 83.5,-23.14"/>
</g>
<!-- &#45;55198529345760272&#45;&gt;&#45;1759672007772862131 -->
<!-- 7882247763102726669 -->
<g id="node12" class="node">
<title>7882247763102726669</title>
<path fill="none" stroke="black" stroke-width="1.25" d="M132.5,-23C132.5,-23 128.5,-23 128.5,-23 126.5,-23 124.5,-21 124.5,-19 124.5,-19 124.5,-4 124.5,-4 124.5,-2 126.5,0 128.5,0 128.5,0 132.5,0 132.5,0 134.5,0 136.5,-2 136.5,-4 136.5,-4 136.5,-19 136.5,-19 136.5,-21 134.5,-23 132.5,-23"/>
<text text-anchor="middle" x="130.5" y="-7.8" font-family="Times,serif" font-size="14.00">.</text>
</g>
<!-- &#45;55198529345760272&#45;&gt;7882247763102726669 -->
<g id="edge15" class="edge">
<title>&#45;55198529345760272&#45;&gt;7882247763102726669</title>
<path fill="none" stroke="black" stroke-width="0.5" d="M130.5,-40.84C130.5,-35.34 130.5,-28.65 130.5,-23.14"/>
</g>
<!-- &#45;3074281794762880610 -->
<g id="node13" class="node">
<title>&#45;3074281794762880610</title>
<path fill="none" stroke="black" stroke-width="1.25" d="M186,-23C186,-23 181,-23 181,-23 178.5,-23 176,-20.5 176,-18 176,-18 176,-5 176,-5 176,-2.5 178.5,0 181,0 181,0 186,0 186,0 188.5,0 191,-2.5 191,-5 191,-5 191,-18 191,-18 191,-20.5 188.5,-23 186,-23"/>
<text text-anchor="middle" x="183.5" y="-7.8" font-family="Times,serif" font-size="14.00">5</text>
</g>
<!-- &#45;1759672007772862131&#45;&gt;&#45;3074281794762880610 -->
<g id="edge16" class="edge">
<title>&#45;1759672007772862131&#45;&gt;&#45;3074281794762880610</title>
<path fill="none" stroke="black" stroke-width="0.5" d="M183.5,-40.84C183.5,-35.34 183.5,-28.65 183.5,-23.14"/>
</g>
<!-- &#45;2689582822586559811&#45;&gt;8946936148518857237 -->
<!-- 2013926165017356813 -->
<g id="node16" class="node">
<title>2013926165017356813</title>
<path fill="none" stroke="black" stroke-width="0.25" d="M241.83,-64C241.83,-64 233.17,-64 233.17,-64 229.33,-64 225.5,-60.17 225.5,-56.33 225.5,-56.33 225.5,-48.67 225.5,-48.67 225.5,-44.83 229.33,-41 233.17,-41 233.17,-41 241.83,-41 241.83,-41 245.67,-41 249.5,-44.83 249.5,-48.67 249.5,-48.67 249.5,-56.33 249.5,-56.33 249.5,-60.17 245.67,-64 241.83,-64"/>
<text text-anchor="middle" x="237.5" y="-48.8" font-family="Times,serif" font-size="14.00">Ne</text>
</g>
<!-- &#45;2689582822586559811&#45;&gt;2013926165017356813 -->
<g id="edge20" class="edge">
<title>&#45;2689582822586559811&#45;&gt;2013926165017356813</title>
<path fill="none" stroke="black" stroke-width="0.5" d="M237.5,-81.84C237.5,-76.34 237.5,-69.65 237.5,-64.14"/>
</g>
<!-- &#45;3872810110470242094 -->
<g id="node17" class="node">
<title>&#45;3872810110470242094</title>
<path fill="none" stroke="black" stroke-width="0.25" d="M293.33,-64C293.33,-64 275.67,-64 275.67,-64 271.83,-64 268,-60.17 268,-56.33 268,-56.33 268,-48.67 268,-48.67 268,-44.83 271.83,-41 275.67,-41 275.67,-41 293.33,-41 293.33,-41 297.17,-41 301,-44.83 301,-48.67 301,-48.67 301,-56.33 301,-56.33 301,-60.17 297.17,-64 293.33,-64"/>
<text text-anchor="middle" x="284.5" y="-48.8" font-family="Times,serif" font-size="14.00">Sign</text>
</g>
<!-- &#45;2689582822586559811&#45;&gt;&#45;3872810110470242094 -->
<g id="edge21" class="edge">
<title>&#45;2689582822586559811&#45;&gt;&#45;3872810110470242094</title>
<path fill="none" stroke="black" stroke-width="0.5" d="M250.34,-81.84C256.97,-76.34 265.04,-69.65 271.67,-64.14"/>
</g>
<!-- 7450456351479026167 -->
<g id="node20" class="node">
<title>7450456351479026167</title>
<path fill="none" stroke="black" stroke-width="1.25" d="M329,-64C329,-64 324,-64 324,-64 321.5,-64 319,-61.5 319,-59 319,-59 319,-46 319,-46 319,-43.5 321.5,-41 324,-41 324,-41 329,-41 329,-41 331.5,-41 334,-43.5 334,-46 334,-46 334,-59 334,-59 334,-61.5 331.5,-64 329,-64"/>
<text text-anchor="middle" x="326.5" y="-48.8" font-family="Times,serif" font-size="14.00">1</text>
</g>
<!-- 8946936148518857237&#45;&gt;7450456351479026167 -->
<g id="edge25" class="edge">
<title>8946936148518857237&#45;&gt;7450456351479026167</title>
<path fill="none" stroke="black" stroke-width="0.5" d="M309.78,-81.84C313.03,-76.34 316.98,-69.65 320.22,-64.14"/>
</g>
<!-- 2013926165017356813&#45;&gt;&#45;3872810110470242094 -->
<!-- &#45;2784294425761752615 -->
<g id="node18" class="node">
<title>&#45;2784294425761752615</title>
<path fill="none" stroke="black" stroke-width="1.25" d="M240,-23C240,-23 235,-23 235,-23 232.5,-23 230,-20.5 230,-18 230,-18 230,-5 230,-5 230,-2.5 232.5,0 235,0 235,0 240,0 240,0 242.5,0 245,-2.5 245,-5 245,-5 245,-18 245,-18 245,-20.5 242.5,-23 240,-23"/>
<text text-anchor="middle" x="237.5" y="-7.8" font-family="Times,serif" font-size="14.00">e</text>
</g>
<!-- 2013926165017356813&#45;&gt;&#45;2784294425761752615 -->
<g id="edge23" class="edge">
<title>2013926165017356813&#45;&gt;&#45;2784294425761752615</title>
<path fill="none" stroke="black" stroke-width="0.5" d="M237.5,-40.84C237.5,-35.34 237.5,-28.65 237.5,-23.14"/>
</g>
<!-- &#45;4929761249728509935 -->
<g id="node19" class="node">
<title>&#45;4929761249728509935</title>
<path fill="none" stroke="black" stroke-width="1.25" d="M287.33,-23C287.33,-23 281.67,-23 281.67,-23 278.83,-23 276,-20.17 276,-17.33 276,-17.33 276,-5.67 276,-5.67 276,-2.83 278.83,0 281.67,0 281.67,0 287.33,0 287.33,0 290.17,0 293,-2.83 293,-5.67 293,-5.67 293,-17.33 293,-17.33 293,-20.17 290.17,-23 287.33,-23"/>
<text text-anchor="middle" x="284.5" y="-7.8" font-family="Times,serif" font-size="14.00">+</text>
</g>
<!-- &#45;3872810110470242094&#45;&gt;&#45;4929761249728509935 -->
<g id="edge24" class="edge">
<title>&#45;3872810110470242094&#45;&gt;&#45;4929761249728509935</title>
<path fill="none" stroke="black" stroke-width="0.5" d="M284.5,-40.84C284.5,-35.34 284.5,-28.65 284.5,-23.14"/>
</g>
</g>
</svg>
