<?xml version="1.0" encoding="UTF-8" standalone="no"?>
<!DOCTYPE svg PUBLIC "-//W3C//DTD SVG 1.1//EN"
 "http://www.w3.org/Graphics/SVG/1.1/DTD/svg11.dtd">
<!-- Generated by graphviz version 2.43.0 (0)
 -->
<!-- Title: %3 Pages: 1 -->
<svg width="262pt" height="241pt"
 viewBox="0.00 0.00 261.50 241.08" xmlns="http://www.w3.org/2000/svg" xmlns:xlink="http://www.w3.org/1999/xlink">
<g id="graph0" class="graph" transform="scale(1 1) rotate(0) translate(4 237.08)">
<title>%3</title>
<polygon fill="white" stroke="transparent" points="-4,4 -4,-237.08 257.5,-237.08 257.5,4 -4,4"/>
<!-- &#45;2497975376552954387 -->
<!-- &#45;2988782854136741815 -->
<!-- &#45;2497975376552954387&#45;&gt;&#45;2988782854136741815 -->
<!-- &#45;1967679676425381137 -->
<g id="node2" class="node">
<title>&#45;1967679676425381137</title>
<path fill="none" stroke="black" stroke-width="0.25" d="M170.67,-233.08C170.67,-233.08 165.33,-233.08 165.33,-233.08 162.67,-233.08 160,-230.41 160,-227.75 160,-227.75 160,-215.41 160,-215.41 160,-212.75 162.67,-210.08 165.33,-210.08 165.33,-210.08 170.67,-210.08 170.67,-210.08 173.33,-210.08 176,-212.75 176,-215.41 176,-215.41 176,-227.75 176,-227.75 176,-230.41 173.33,-233.08 170.67,-233.08"/>
<text text-anchor="middle" x="168" y="-217.88" font-family="Times,serif" font-size="14.00">S</text>
</g>
<!-- &#45;8225004565957093418 -->
<g id="node4" class="node">
<title>&#45;8225004565957093418</title>
<path fill="none" stroke="black" stroke-width="1.25" d="M136.5,-192.08C136.5,-192.08 131.5,-192.08 131.5,-192.08 129,-192.08 126.5,-189.58 126.5,-187.08 126.5,-187.08 126.5,-174.08 126.5,-174.08 126.5,-171.58 129,-169.08 131.5,-169.08 131.5,-169.08 136.5,-169.08 136.5,-169.08 139,-169.08 141.5,-171.58 141.5,-174.08 141.5,-174.08 141.5,-187.08 141.5,-187.08 141.5,-189.58 139,-192.08 136.5,-192.08"/>
<text text-anchor="middle" x="134" y="-176.88" font-family="Times,serif" font-size="14.00">a</text>
</g>
<!-- &#45;1967679676425381137&#45;&gt;&#45;8225004565957093418 -->
<g id="edge2" class="edge">
<title>&#45;1967679676425381137&#45;&gt;&#45;8225004565957093418</title>
<path fill="none" stroke="black" stroke-width="0.5" d="M159.77,-211.14C154.27,-204.83 147.08,-196.58 141.69,-190.4"/>
</g>
<!-- 2102903232936371595 -->
<g id="node5" class="node">
<title>2102903232936371595</title>
<path fill="none" stroke="black" stroke-width="0.25" d="M170.67,-192.08C170.67,-192.08 165.33,-192.08 165.33,-192.08 162.67,-192.08 160,-189.41 160,-186.75 160,-186.75 160,-174.41 160,-174.41 160,-171.75 162.67,-169.08 165.33,-169.08 165.33,-169.08 170.67,-169.08 170.67,-169.08 173.33,-169.08 176,-171.75 176,-174.41 176,-174.41 176,-186.75 176,-186.75 176,-189.41 173.33,-192.08 170.67,-192.08"/>
<text text-anchor="middle" x="168" y="-176.88" font-family="Times,serif" font-size="14.00">S</text>
</g>
<!-- &#45;1967679676425381137&#45;&gt;2102903232936371595 -->
<g id="edge3" class="edge">
<title>&#45;1967679676425381137&#45;&gt;2102903232936371595</title>
<path fill="none" stroke="black" stroke-width="0.5" d="M168,-209.92C168,-204.42 168,-197.73 168,-192.22"/>
</g>
<!-- &#45;1136431787081324470 -->
<g id="node6" class="node">
<title>&#45;1136431787081324470</title>
<path fill="none" stroke="black" stroke-width="0.25" d="M206,-192.08C206,-192.08 200,-192.08 200,-192.08 197,-192.08 194,-189.08 194,-186.08 194,-186.08 194,-175.08 194,-175.08 194,-172.08 197,-169.08 200,-169.08 200,-169.08 206,-169.08 206,-169.08 209,-169.08 212,-172.08 212,-175.08 212,-175.08 212,-186.08 212,-186.08 212,-189.08 209,-192.08 206,-192.08"/>
<text text-anchor="middle" x="203" y="-176.88" font-family="Times,serif" font-size="14.00">Q</text>
</g>
<!-- &#45;1967679676425381137&#45;&gt;&#45;1136431787081324470 -->
<g id="edge4" class="edge">
<title>&#45;1967679676425381137&#45;&gt;&#45;1136431787081324470</title>
<path fill="none" stroke="black" stroke-width="0.5" d="M176.12,-211.53C181.45,-205.59 188.43,-197.82 193.94,-191.67"/>
</g>
<!-- 4691606175810621273 -->
<!-- &#45;2988782854136741815&#45;&gt;4691606175810621273 -->
<!-- &#45;8225004565957093418&#45;&gt;2102903232936371595 -->
<!-- 2102903232936371595&#45;&gt;&#45;1136431787081324470 -->
<!-- &#45;2773213296977073494 -->
<g id="node8" class="node">
<title>&#45;2773213296977073494</title>
<path fill="none" stroke="black" stroke-width="1.25" d="M128.5,-151.08C128.5,-151.08 123.5,-151.08 123.5,-151.08 121,-151.08 118.5,-148.58 118.5,-146.08 118.5,-146.08 118.5,-133.08 118.5,-133.08 118.5,-130.58 121,-128.08 123.5,-128.08 123.5,-128.08 128.5,-128.08 128.5,-128.08 131,-128.08 133.5,-130.58 133.5,-133.08 133.5,-133.08 133.5,-146.08 133.5,-146.08 133.5,-148.58 131,-151.08 128.5,-151.08"/>
<text text-anchor="middle" x="126" y="-135.88" font-family="Times,serif" font-size="14.00">a</text>
</g>
<!-- 2102903232936371595&#45;&gt;&#45;2773213296977073494 -->
<g id="edge8" class="edge">
<title>2102903232936371595&#45;&gt;&#45;2773213296977073494</title>
<path fill="none" stroke="black" stroke-width="0.5" d="M159.9,-172.06C152.27,-164.98 140.94,-154.45 133.51,-147.55"/>
</g>
<!-- &#45;3857463025694073429 -->
<g id="node9" class="node">
<title>&#45;3857463025694073429</title>
<path fill="none" stroke="black" stroke-width="0.25" d="M161.5,-151.08C161.5,-151.08 156.5,-151.08 156.5,-151.08 154,-151.08 151.5,-148.58 151.5,-146.08 151.5,-146.08 151.5,-133.08 151.5,-133.08 151.5,-130.58 154,-128.08 156.5,-128.08 156.5,-128.08 161.5,-128.08 161.5,-128.08 164,-128.08 166.5,-130.58 166.5,-133.08 166.5,-133.08 166.5,-146.08 166.5,-146.08 166.5,-148.58 164,-151.08 161.5,-151.08"/>
<text text-anchor="middle" x="159" y="-135.88" font-family="Times,serif" font-size="14.00">b</text>
</g>
<!-- 2102903232936371595&#45;&gt;&#45;3857463025694073429 -->
<g id="edge9" class="edge">
<title>2102903232936371595&#45;&gt;&#45;3857463025694073429</title>
<path fill="none" stroke="black" stroke-width="0.5" d="M165.54,-168.92C164.27,-163.42 162.73,-156.73 161.46,-151.22"/>
</g>
<!-- &#45;143222375574591353 -->
<g id="node10" class="node">
<title>&#45;143222375574591353</title>
<path fill="none" stroke="black" stroke-width="0.25" d="M194.5,-151.08C194.5,-151.08 189.5,-151.08 189.5,-151.08 187,-151.08 184.5,-148.58 184.5,-146.08 184.5,-146.08 184.5,-133.08 184.5,-133.08 184.5,-130.58 187,-128.08 189.5,-128.08 189.5,-128.08 194.5,-128.08 194.5,-128.08 197,-128.08 199.5,-130.58 199.5,-133.08 199.5,-133.08 199.5,-146.08 199.5,-146.08 199.5,-148.58 197,-151.08 194.5,-151.08"/>
<text text-anchor="middle" x="192" y="-135.88" font-family="Times,serif" font-size="14.00">c</text>
</g>
<!-- 2102903232936371595&#45;&gt;&#45;143222375574591353 -->
<g id="edge10" class="edge">
<title>2102903232936371595&#45;&gt;&#45;143222375574591353</title>
<path fill="none" stroke="black" stroke-width="0.5" d="M174.56,-168.92C177.94,-163.42 182.06,-156.73 185.45,-151.22"/>
</g>
<!-- 852332233398812946 -->
<g id="node14" class="node">
<title>852332233398812946</title>
<ellipse fill="black" stroke="black" cx="212" cy="-107.56" rx="2.52" ry="2.52"/>
</g>
<!-- &#45;1136431787081324470&#45;&gt;852332233398812946 -->
<g id="edge15" class="edge">
<title>&#45;1136431787081324470&#45;&gt;852332233398812946</title>
<path fill="none" stroke="black" stroke-width="0.5" d="M205.05,-169.05C206.05,-163.69 207.2,-157.05 208,-151.08 210.14,-135.21 211.51,-115.85 211.89,-110.19"/>
</g>
<!-- &#45;8331102943151163754 -->
<!-- 4691606175810621273&#45;&gt;&#45;8331102943151163754 -->
<!-- &#45;2773213296977073494&#45;&gt;&#45;3857463025694073429 -->
<!-- &#45;3857463025694073429&#45;&gt;&#45;143222375574591353 -->
<!-- &#45;1435439566052770764 -->
<g id="node20" class="node">
<title>&#45;1435439566052770764</title>
<ellipse fill="black" stroke="black" cx="196" cy="-43.52" rx="2.52" ry="2.52"/>
</g>
<!-- &#45;3857463025694073429&#45;&gt;&#45;1435439566052770764 -->
<g id="edge20" class="edge">
<title>&#45;3857463025694073429&#45;&gt;&#45;1435439566052770764</title>
<path fill="none" stroke="black" stroke-width="0.5" d="M160.06,-127.86C161.9,-112.81 166.66,-84.93 178,-64.04 182.4,-55.94 190.91,-48.58 194.42,-45.75"/>
</g>
<!-- &#45;143222375574591353&#45;&gt;852332233398812946 -->
<g id="edge14" class="edge">
<title>&#45;143222375574591353&#45;&gt;852332233398812946</title>
<path fill="none" stroke="black" stroke-width="0.5" d="M199.22,-127.74C203.7,-121.02 208.98,-113.1 211.08,-109.95"/>
</g>
<!-- &#45;5696891287307294872 -->
<!-- &#45;8331102943151163754&#45;&gt;&#45;5696891287307294872 -->
<!-- &#45;8054076584888213084 -->
<g id="node12" class="node">
<title>&#45;8054076584888213084</title>
<path fill="none" stroke="black" stroke-width="0.25" d="M199,-87.04C199,-87.04 193,-87.04 193,-87.04 190,-87.04 187,-84.04 187,-81.04 187,-81.04 187,-70.04 187,-70.04 187,-67.04 190,-64.04 193,-64.04 193,-64.04 199,-64.04 199,-64.04 202,-64.04 205,-67.04 205,-70.04 205,-70.04 205,-81.04 205,-81.04 205,-84.04 202,-87.04 199,-87.04"/>
<text text-anchor="middle" x="196" y="-71.84" font-family="Times,serif" font-size="14.00">Q</text>
</g>
<!-- &#45;9087920978416835471 -->
<g id="node13" class="node">
<title>&#45;9087920978416835471</title>
<path fill="none" stroke="black" stroke-width="0.25" d="M233.5,-87.04C233.5,-87.04 228.5,-87.04 228.5,-87.04 226,-87.04 223.5,-84.54 223.5,-82.04 223.5,-82.04 223.5,-69.04 223.5,-69.04 223.5,-66.54 226,-64.04 228.5,-64.04 228.5,-64.04 233.5,-64.04 233.5,-64.04 236,-64.04 238.5,-66.54 238.5,-69.04 238.5,-69.04 238.5,-82.04 238.5,-82.04 238.5,-84.54 236,-87.04 233.5,-87.04"/>
<text text-anchor="middle" x="231" y="-71.84" font-family="Times,serif" font-size="14.00">c</text>
</g>
<!-- &#45;8054076584888213084&#45;&gt;&#45;9087920978416835471 -->
<!-- &#45;8054076584888213084&#45;&gt;&#45;1435439566052770764 -->
<g id="edge21" class="edge">
<title>&#45;8054076584888213084&#45;&gt;&#45;1435439566052770764</title>
<path fill="none" stroke="black" stroke-width="0.5" d="M196,-63.7C196,-57.25 196,-49.69 196,-46.31"/>
</g>
<!-- &#45;9087920978416835471&#45;&gt;&#45;1435439566052770764 -->
<g id="edge22" class="edge">
<title>&#45;9087920978416835471&#45;&gt;&#45;1435439566052770764</title>
<path fill="none" stroke="black" stroke-width="0.5" d="M223.23,-67.88C214.85,-60.69 202.11,-49.76 197.63,-45.92"/>
</g>
<!-- 852332233398812946&#45;&gt;&#45;8054076584888213084 -->
<g id="edge16" class="edge">
<title>852332233398812946&#45;&gt;&#45;8054076584888213084</title>
<path fill="none" stroke="black" stroke-width="0.5" d="M211.14,-104.95C209.37,-101.63 205.21,-93.82 201.7,-87.23"/>
</g>
<!-- 852332233398812946&#45;&gt;&#45;9087920978416835471 -->
<g id="edge17" class="edge">
<title>852332233398812946&#45;&gt;&#45;9087920978416835471</title>
<path fill="none" stroke="black" stroke-width="0.5" d="M213.02,-104.95C215.12,-101.63 220.06,-93.82 224.23,-87.23"/>
</g>
<!-- 2778562221235893207 -->
<g id="node16" class="node">
<title>2778562221235893207</title>
<path fill="none" stroke="black" stroke-width="1.25" d="M149.5,-23C149.5,-23 144.5,-23 144.5,-23 142,-23 139.5,-20.5 139.5,-18 139.5,-18 139.5,-5 139.5,-5 139.5,-2.5 142,0 144.5,0 144.5,0 149.5,0 149.5,0 152,0 154.5,-2.5 154.5,-5 154.5,-5 154.5,-18 154.5,-18 154.5,-20.5 152,-23 149.5,-23"/>
<text text-anchor="middle" x="147" y="-7.8" font-family="Times,serif" font-size="14.00">b</text>
</g>
<!-- &#45;9160541096371659984 -->
<g id="node17" class="node">
<title>&#45;9160541096371659984</title>
<path fill="none" stroke="black" stroke-width="1.25" d="M182.5,-23C182.5,-23 177.5,-23 177.5,-23 175,-23 172.5,-20.5 172.5,-18 172.5,-18 172.5,-5 172.5,-5 172.5,-2.5 175,0 177.5,0 177.5,0 182.5,0 182.5,0 185,0 187.5,-2.5 187.5,-5 187.5,-5 187.5,-18 187.5,-18 187.5,-20.5 185,-23 182.5,-23"/>
<text text-anchor="middle" x="180" y="-7.8" font-family="Times,serif" font-size="14.00">b</text>
</g>
<!-- 2778562221235893207&#45;&gt;&#45;9160541096371659984 -->
<!-- &#45;5446300446252177908 -->
<g id="node18" class="node">
<title>&#45;5446300446252177908</title>
<path fill="none" stroke="black" stroke-width="1.25" d="M215.5,-23C215.5,-23 210.5,-23 210.5,-23 208,-23 205.5,-20.5 205.5,-18 205.5,-18 205.5,-5 205.5,-5 205.5,-2.5 208,0 210.5,0 210.5,0 215.5,0 215.5,0 218,0 220.5,-2.5 220.5,-5 220.5,-5 220.5,-18 220.5,-18 220.5,-20.5 218,-23 215.5,-23"/>
<text text-anchor="middle" x="213" y="-7.8" font-family="Times,serif" font-size="14.00">c</text>
</g>
<!-- &#45;9160541096371659984&#45;&gt;&#45;5446300446252177908 -->
<!-- 3709012215500309214 -->
<g id="node19" class="node">
<title>3709012215500309214</title>
<path fill="none" stroke="black" stroke-width="1.25" d="M248.5,-23C248.5,-23 243.5,-23 243.5,-23 241,-23 238.5,-20.5 238.5,-18 238.5,-18 238.5,-5 238.5,-5 238.5,-2.5 241,0 243.5,0 243.5,0 248.5,0 248.5,0 251,0 253.5,-2.5 253.5,-5 253.5,-5 253.5,-18 253.5,-18 253.5,-20.5 251,-23 248.5,-23"/>
<text text-anchor="middle" x="246" y="-7.8" font-family="Times,serif" font-size="14.00">c</text>
</g>
<!-- &#45;5446300446252177908&#45;&gt;3709012215500309214 -->
<!-- &#45;1435439566052770764&#45;&gt;2778562221235893207 -->
<g id="edge23" class="edge">
<title>&#45;1435439566052770764&#45;&gt;2778562221235893207</title>
<path fill="none" stroke="black" stroke-width="0.5" d="M194.19,-41.49C189.19,-38.63 174.75,-30.32 163,-23 160.29,-21.31 157.37,-19.41 154.77,-17.7"/>
</g>
<!-- &#45;1435439566052770764&#45;&gt;&#45;9160541096371659984 -->
<g id="edge24" class="edge">
<title>&#45;1435439566052770764&#45;&gt;&#45;9160541096371659984</title>
<path fill="none" stroke="black" stroke-width="0.5" d="M195.14,-40.91C193.37,-37.59 189.21,-29.78 185.7,-23.19"/>
</g>
<!-- &#45;1435439566052770764&#45;&gt;&#45;5446300446252177908 -->
<g id="edge25" class="edge">
<title>&#45;1435439566052770764&#45;&gt;&#45;5446300446252177908</title>
<path fill="none" stroke="black" stroke-width="0.5" d="M196.91,-40.91C198.79,-37.59 203.21,-29.78 206.95,-23.19"/>
</g>
<!-- &#45;1435439566052770764&#45;&gt;3709012215500309214 -->
<g id="edge26" class="edge">
<title>&#45;1435439566052770764&#45;&gt;3709012215500309214</title>
<path fill="none" stroke="black" stroke-width="0.5" d="M197.8,-41.47C202.77,-38.57 217.15,-30.16 229,-23 232.09,-21.13 235.47,-19.05 238.4,-17.24"/>
</g>
</g>
</svg>
