<?xml version="1.0" encoding="UTF-8" standalone="no"?>
<!DOCTYPE svg PUBLIC "-//W3C//DTD SVG 1.1//EN"
 "http://www.w3.org/Graphics/SVG/1.1/DTD/svg11.dtd">
<!-- Generated by graphviz version 2.40.1 (20161225.0304)
 -->
<!-- Title: %3 Pages: 1 -->
<svg width="118pt" height="70pt"
 viewBox="0.00 0.00 118.39 70.00" xmlns="http://www.w3.org/2000/svg" xmlns:xlink="http://www.w3.org/1999/xlink">
<g id="graph0" class="graph" transform="scale(1 1) rotate(0) translate(4 66)">
<title>%3</title>
<polygon fill="#ffffff" stroke="transparent" points="-4,4 -4,-66 114.3906,-66 114.3906,4 -4,4"/>
<!-- 4337853776 -->
<g id="node1" class="node">
<title>4337853776</title>
<path fill="none" stroke="#000000" stroke-width=".25" d="M50.5999,-62C50.5999,-62 44.5261,-62 44.5261,-62 41.4892,-62 38.4523,-58.9631 38.4523,-55.9262 38.4523,-55.9262 38.4523,-46.0738 38.4523,-46.0738 38.4523,-43.0369 41.4892,-40 44.5261,-40 44.5261,-40 50.5999,-40 50.5999,-40 53.6368,-40 56.6737,-43.0369 56.6737,-46.0738 56.6737,-46.0738 56.6737,-55.9262 56.6737,-55.9262 56.6737,-58.9631 53.6368,-62 50.5999,-62"/>
<text text-anchor="middle" x="47.563" y="-46.8" font-family="Times,serif" font-size="14.00" fill="#000000">A</text>
</g>
<!-- 4337853720 -->
<g id="node2" class="node">
<title>4337853720</title>
<path fill="none" stroke="#000000" stroke-width=".25" d="M23.8559,-22C23.8559,-22 7.2701,-22 7.2701,-22 3.6034,-22 -.0632,-18.3333 -.0632,-14.6667 -.0632,-14.6667 -.0632,-7.3333 -.0632,-7.3333 -.0632,-3.6667 3.6034,0 7.2701,0 7.2701,0 23.8559,0 23.8559,0 27.5226,0 31.1892,-3.6667 31.1892,-7.3333 31.1892,-7.3333 31.1892,-14.6667 31.1892,-14.6667 31.1892,-18.3333 27.5226,-22 23.8559,-22"/>
<text text-anchor="middle" x="15.563" y="-6.8" font-family="Times,serif" font-size="14.00" fill="#000000">Test</text>
</g>
<!-- 4337853776&#45;&gt;4337853720 -->
<g id="edge2" class="edge">
<title>4337853776&#45;&gt;4337853720</title>
<path fill="none" stroke="#000000" d="M38.4787,-39.6446C34.1179,-34.1937 28.9085,-27.6819 24.5593,-22.2453"/>
</g>
<!-- 4337853608 -->
<g id="node3" class="node">
<title>4337853608</title>
<path fill="none" stroke="#000000" stroke-width=".25" d="M102.8859,-22C102.8859,-22 56.2401,-22 56.2401,-22 52.5734,-22 48.9068,-18.3333 48.9068,-14.6667 48.9068,-14.6667 48.9068,-7.3333 48.9068,-7.3333 48.9068,-3.6667 52.5734,0 56.2401,0 56.2401,0 102.8859,0 102.8859,0 106.5526,0 110.2192,-3.6667 110.2192,-7.3333 110.2192,-7.3333 110.2192,-14.6667 110.2192,-14.6667 110.2192,-18.3333 106.5526,-22 102.8859,-22"/>
<text text-anchor="middle" x="79.563" y="-6.8" font-family="Times,serif" font-size="14.00" fill="#000000">Of the lib</text>
</g>
<!-- 4337853776&#45;&gt;4337853608 -->
<g id="edge3" class="edge">
<title>4337853776&#45;&gt;4337853608</title>
<path fill="none" stroke="#000000" d="M56.6473,-39.6446C61.0081,-34.1937 66.2175,-27.6819 70.5667,-22.2453"/>
</g>
<!-- 4337853720&#45;&gt;4337853608 -->
</g>
</svg>
