<svg width="212pt" height="165pt"
 viewBox="0.00 0.00 424.00 331.00" xmlns="http://www.w3.org/2000/svg" xmlns:xlink="http://www.w3.org/1999/xlink">
<g id="graph0" class="graph" transform="scale(1 1) rotate(0) translate(4 327)">
<title>%3</title>
<polygon fill="white" stroke="transparent" points="-4,4 -4,-327 420,-327 420,4 -4,4"/>
<!-- N1 -->
<g id="node1" class="node">
<title>N1</title>
<polygon fill="none" stroke="black" points="142,-304 142,-323 179,-323 179,-304 142,-304"/>
<text text-anchor="start" x="145" y="-310.4" font-family="Fira Code" font-size="12.00">type</text>
<polygon fill="none" stroke="black" points="179,-304 179,-323 261,-323 261,-304 179,-304"/>
<text text-anchor="start" x="208.5" y="-310.4" font-family="Fira Code" font-size="12.00">ast</text>
<polygon fill="none" stroke="black" points="142,-285 142,-304 179,-304 179,-285 142,-285"/>
<text text-anchor="start" x="145" y="-291.4" font-family="Fira Code" font-size="12.00">name</text>
<polygon fill="none" stroke="black" points="179,-285 179,-304 261,-304 261,-285 179,-285"/>
<text text-anchor="start" x="182" y="-291.4" font-family="Fira Code" font-size="12.00">Expression</text>
</g>
<!-- N2 -->
<g id="node2" class="node">
<title>N2</title>
<path fill="none" stroke="black" stroke-width="0.25" d="M213.5,-267C213.5,-267 188.5,-267 188.5,-267 185,-267 181.5,-263.5 181.5,-260 181.5,-260 181.5,-253 181.5,-253 181.5,-249.5 185,-246 188.5,-246 188.5,-246 213.5,-246 213.5,-246 217,-246 220.5,-249.5 220.5,-253 220.5,-253 220.5,-260 220.5,-260 220.5,-263.5 217,-267 213.5,-267"/>
<text text-anchor="middle" x="201" y="-253.4" font-family="Fira Code" font-size="12.00">body</text>
</g>
<!-- N1&#45;&gt;N2 -->
<g id="edge1" class="edge">
<title>N1&#45;&gt;N2</title>
<path fill="none" stroke="black" d="M201,-284.76C201,-278.72 201,-272.25 201,-267.13"/>
</g>
<!-- N3 -->
<g id="node3" class="node">
<title>N3</title>
<polygon fill="none" stroke="black" points="161,-209 161,-228 198,-228 198,-209 161,-209"/>
<text text-anchor="start" x="164" y="-215.4" font-family="Fira Code" font-size="12.00">type</text>
<polygon fill="none" stroke="black" points="198,-209 198,-228 242,-228 242,-209 198,-209"/>
<text text-anchor="start" x="208.5" y="-215.4" font-family="Fira Code" font-size="12.00">ast</text>
<polygon fill="none" stroke="black" points="161,-190 161,-209 198,-209 198,-190 161,-190"/>
<text text-anchor="start" x="164" y="-196.4" font-family="Fira Code" font-size="12.00">name</text>
<polygon fill="none" stroke="black" points="198,-190 198,-209 242,-209 242,-190 198,-190"/>
<text text-anchor="start" x="201" y="-196.4" font-family="Fira Code" font-size="12.00">BinOp</text>
</g>
<!-- N2&#45;&gt;N3 -->
<g id="edge2" class="edge">
<title>N2&#45;&gt;N3</title>
<path fill="none" stroke="black" d="M201,-245.85C201,-240.74 201,-234.29 201,-228.27"/>
</g>
<!-- N4 -->
<g id="node4" class="node">
<title>N4</title>
<path fill="none" stroke="black" stroke-width="0.25" d="M163.5,-172C163.5,-172 138.5,-172 138.5,-172 135,-172 131.5,-168.5 131.5,-165 131.5,-165 131.5,-158 131.5,-158 131.5,-154.5 135,-151 138.5,-151 138.5,-151 163.5,-151 163.5,-151 167,-151 170.5,-154.5 170.5,-158 170.5,-158 170.5,-165 170.5,-165 170.5,-168.5 167,-172 163.5,-172"/>
<text text-anchor="middle" x="151" y="-158.4" font-family="Fira Code" font-size="12.00">left</text>
</g>
<!-- N3&#45;&gt;N4 -->
<g id="edge3" class="edge">
<title>N3&#45;&gt;N4</title>
<path fill="none" stroke="black" d="M180.95,-189.76C174.32,-183.72 167.21,-177.25 161.58,-172.13"/>
</g>
<!-- N5 -->
<g id="node5" class="node">
<title>N5</title>
<path fill="none" stroke="black" stroke-width="0.25" d="M206,-172C206,-172 196,-172 196,-172 192.5,-172 189,-168.5 189,-165 189,-165 189,-158 189,-158 189,-154.5 192.5,-151 196,-151 196,-151 206,-151 206,-151 209.5,-151 213,-154.5 213,-158 213,-158 213,-165 213,-165 213,-168.5 209.5,-172 206,-172"/>
<text text-anchor="middle" x="201" y="-158.4" font-family="Fira Code" font-size="12.00">op</text>
</g>
<!-- N3&#45;&gt;N5 -->
<g id="edge4" class="edge">
<title>N3&#45;&gt;N5</title>
<path fill="none" stroke="black" d="M201,-189.76C201,-183.72 201,-177.25 201,-172.13"/>
</g>
<!-- N6 -->
<g id="node6" class="node">
<title>N6</title>
<path fill="none" stroke="black" stroke-width="0.25" d="M270,-172C270,-172 238,-172 238,-172 234.5,-172 231,-168.5 231,-165 231,-165 231,-158 231,-158 231,-154.5 234.5,-151 238,-151 238,-151 270,-151 270,-151 273.5,-151 277,-154.5 277,-158 277,-158 277,-165 277,-165 277,-168.5 273.5,-172 270,-172"/>
<text text-anchor="middle" x="254" y="-158.4" font-family="Fira Code" font-size="12.00">right</text>
</g>
<!-- N3&#45;&gt;N6 -->
<g id="edge5" class="edge">
<title>N3&#45;&gt;N6</title>
<path fill="none" stroke="black" d="M222.25,-189.76C229.28,-183.72 236.82,-177.25 242.79,-172.13"/>
</g>
<!-- N4&#45;&gt;N5 -->
<!-- N7 -->
<g id="node7" class="node">
<title>N7</title>
<polygon fill="none" stroke="black" points="46,-114 46,-133 83,-133 83,-114 46,-114"/>
<text text-anchor="start" x="49" y="-120.4" font-family="Fira Code" font-size="12.00">type</text>
<polygon fill="none" stroke="black" points="83,-114 83,-133 150,-133 150,-114 83,-114"/>
<text text-anchor="start" x="105" y="-120.4" font-family="Fira Code" font-size="12.00">ast</text>
<polygon fill="none" stroke="black" points="46,-95 46,-114 83,-114 83,-95 46,-95"/>
<text text-anchor="start" x="49" y="-101.4" font-family="Fira Code" font-size="12.00">name</text>
<polygon fill="none" stroke="black" points="83,-95 83,-114 150,-114 150,-95 83,-95"/>
<text text-anchor="start" x="86" y="-101.4" font-family="Fira Code" font-size="12.00">Constant</text>
</g>
<!-- N4&#45;&gt;N7 -->
<g id="edge8" class="edge">
<title>N4&#45;&gt;N7</title>
<path fill="none" stroke="black" d="M139.76,-150.85C133.8,-145.74 126.29,-139.29 119.28,-133.27"/>
</g>
<!-- N5&#45;&gt;N6 -->
<!-- N12 -->
<g id="node12" class="node">
<title>N12</title>
<polygon fill="none" stroke="black" points="168,-114 168,-133 205,-133 205,-114 168,-114"/>
<text text-anchor="start" x="171" y="-120.4" font-family="Fira Code" font-size="12.00">type</text>
<polygon fill="none" stroke="black" points="205,-114 205,-133 234,-133 234,-114 205,-114"/>
<text text-anchor="start" x="208" y="-120.4" font-family="Fira Code" font-size="12.00">ast</text>
<polygon fill="none" stroke="black" points="168,-95 168,-114 205,-114 205,-95 168,-95"/>
<text text-anchor="start" x="171" y="-101.4" font-family="Fira Code" font-size="12.00">name</text>
<polygon fill="none" stroke="black" points="205,-95 205,-114 234,-114 234,-95 205,-95"/>
<text text-anchor="start" x="208" y="-101.4" font-family="Fira Code" font-size="12.00">Add</text>
</g>
<!-- N5&#45;&gt;N12 -->
<g id="edge14" class="edge">
<title>N5&#45;&gt;N12</title>
<path fill="none" stroke="black" d="M201,-150.85C201,-145.74 201,-139.29 201,-133.27"/>
</g>
<!-- N13 -->
<g id="node13" class="node">
<title>N13</title>
<polygon fill="none" stroke="black" points="252,-114 252,-133 289,-133 289,-114 252,-114"/>
<text text-anchor="start" x="255" y="-120.4" font-family="Fira Code" font-size="12.00">type</text>
<polygon fill="none" stroke="black" points="289,-114 289,-133 356,-133 356,-114 289,-114"/>
<text text-anchor="start" x="311" y="-120.4" font-family="Fira Code" font-size="12.00">ast</text>
<polygon fill="none" stroke="black" points="252,-95 252,-114 289,-114 289,-95 252,-95"/>
<text text-anchor="start" x="255" y="-101.4" font-family="Fira Code" font-size="12.00">name</text>
<polygon fill="none" stroke="black" points="289,-95 289,-114 356,-114 356,-95 289,-95"/>
<text text-anchor="start" x="292" y="-101.4" font-family="Fira Code" font-size="12.00">Constant</text>
</g>
<!-- N6&#45;&gt;N13 -->
<g id="edge15" class="edge">
<title>N6&#45;&gt;N13</title>
<path fill="none" stroke="black" d="M264.6,-150.85C270.22,-145.74 277.31,-139.29 283.92,-133.27"/>
</g>
<!-- N8 -->
<g id="node8" class="node">
<title>N8</title>
<path fill="none" stroke="black" stroke-width="0.25" d="M86,-77C86,-77 54,-77 54,-77 50.5,-77 47,-73.5 47,-70 47,-70 47,-63 47,-63 47,-59.5 50.5,-56 54,-56 54,-56 86,-56 86,-56 89.5,-56 93,-59.5 93,-63 93,-63 93,-70 93,-70 93,-73.5 89.5,-77 86,-77"/>
<text text-anchor="middle" x="70" y="-63.4" font-family="Fira Code" font-size="12.00">value</text>
</g>
<!-- N7&#45;&gt;N8 -->
<g id="edge9" class="edge">
<title>N7&#45;&gt;N8</title>
<path fill="none" stroke="black" d="M86.77,-94.76C83.06,-88.72 79.08,-82.25 75.92,-77.13"/>
</g>
<!-- N9 -->
<g id="node9" class="node">
<title>N9</title>
<path fill="none" stroke="black" stroke-width="0.25" d="M143.5,-77C143.5,-77 118.5,-77 118.5,-77 115,-77 111.5,-73.5 111.5,-70 111.5,-70 111.5,-63 111.5,-63 111.5,-59.5 115,-56 118.5,-56 118.5,-56 143.5,-56 143.5,-56 147,-56 150.5,-59.5 150.5,-63 150.5,-63 150.5,-70 150.5,-70 150.5,-73.5 147,-77 143.5,-77"/>
<text text-anchor="middle" x="131" y="-63.4" font-family="Fira Code" font-size="12.00">kind</text>
</g>
<!-- N7&#45;&gt;N9 -->
<g id="edge10" class="edge">
<title>N7&#45;&gt;N9</title>
<path fill="none" stroke="black" d="M111.23,-94.76C115.61,-88.72 120.3,-82.25 124.02,-77.13"/>
</g>
<!-- N8&#45;&gt;N9 -->
<!-- N10 -->
<g id="node10" class="node">
<title>N10</title>
<polygon fill="none" stroke="black" points="0,-19 0,-38 44,-38 44,-19 0,-19"/>
<text text-anchor="start" x="6.5" y="-25.4" font-family="Fira Code" font-size="12.00">type</text>
<polygon fill="none" stroke="black" points="44,-19 44,-38 88,-38 88,-19 44,-19"/>
<text text-anchor="start" x="47" y="-25.4" font-family="Fira Code" font-size="12.00">token</text>
<polygon fill="none" stroke="black" points="0,0 0,-19 44,-19 44,0 0,0"/>
<text text-anchor="start" x="3" y="-6.4" font-family="Fira Code" font-size="12.00">value</text>
<polygon fill="none" stroke="black" points="44,0 44,-19 88,-19 88,0 44,0"/>
<text text-anchor="start" x="62" y="-6.4" font-family="Fira Code" font-size="12.00">1</text>
</g>
<!-- N8&#45;&gt;N10 -->
<g id="edge12" class="edge">
<title>N8&#45;&gt;N10</title>
<path fill="none" stroke="black" d="M64.49,-55.85C61.56,-50.74 57.88,-44.29 54.44,-38.27"/>
</g>
<!-- N11 -->
<g id="node11" class="node">
<title>N11</title>
<polygon fill="none" stroke="black" points="106,-19 106,-38 150,-38 150,-19 106,-19"/>
<text text-anchor="start" x="112.5" y="-25.4" font-family="Fira Code" font-size="12.00">type</text>
<polygon fill="none" stroke="black" points="150,-19 150,-38 194,-38 194,-19 150,-19"/>
<text text-anchor="start" x="153" y="-25.4" font-family="Fira Code" font-size="12.00">token</text>
<polygon fill="none" stroke="black" points="106,0 106,-19 150,-19 150,0 106,0"/>
<text text-anchor="start" x="109" y="-6.4" font-family="Fira Code" font-size="12.00">value</text>
<polygon fill="none" stroke="black" points="150,0 150,-19 194,-19 194,0 150,0"/>
<text text-anchor="start" x="156.5" y="-6.4" font-family="Fira Code" font-size="12.00">None</text>
</g>
<!-- N9&#45;&gt;N11 -->
<g id="edge13" class="edge">
<title>N9&#45;&gt;N11</title>
<path fill="none" stroke="black" d="M135.03,-55.85C137.16,-50.74 139.86,-44.29 142.37,-38.27"/>
</g>
<!-- N14 -->
<g id="node14" class="node">
<title>N14</title>
<path fill="none" stroke="black" stroke-width="0.25" d="M287,-77C287,-77 255,-77 255,-77 251.5,-77 248,-73.5 248,-70 248,-70 248,-63 248,-63 248,-59.5 251.5,-56 255,-56 255,-56 287,-56 287,-56 290.5,-56 294,-59.5 294,-63 294,-63 294,-70 294,-70 294,-73.5 290.5,-77 287,-77"/>
<text text-anchor="middle" x="271" y="-63.4" font-family="Fira Code" font-size="12.00">value</text>
</g>
<!-- N13&#45;&gt;N14 -->
<g id="edge16" class="edge">
<title>N13&#45;&gt;N14</title>
<path fill="none" stroke="black" d="M290.77,-94.76C286.39,-88.72 281.7,-82.25 277.98,-77.13"/>
</g>
<!-- N15 -->
<g id="node15" class="node">
<title>N15</title>
<path fill="none" stroke="black" stroke-width="0.25" d="M344.5,-77C344.5,-77 319.5,-77 319.5,-77 316,-77 312.5,-73.5 312.5,-70 312.5,-70 312.5,-63 312.5,-63 312.5,-59.5 316,-56 319.5,-56 319.5,-56 344.5,-56 344.5,-56 348,-56 351.5,-59.5 351.5,-63 351.5,-63 351.5,-70 351.5,-70 351.5,-73.5 348,-77 344.5,-77"/>
<text text-anchor="middle" x="332" y="-63.4" font-family="Fira Code" font-size="12.00">kind</text>
</g>
<!-- N13&#45;&gt;N15 -->
<g id="edge17" class="edge">
<title>N13&#45;&gt;N15</title>
<path fill="none" stroke="black" d="M315.23,-94.76C318.94,-88.72 322.92,-82.25 326.08,-77.13"/>
</g>
<!-- N14&#45;&gt;N15 -->
<!-- N16 -->
<g id="node16" class="node">
<title>N16</title>
<polygon fill="none" stroke="black" points="222,-19 222,-38 266,-38 266,-19 222,-19"/>
<text text-anchor="start" x="228.5" y="-25.4" font-family="Fira Code" font-size="12.00">type</text>
<polygon fill="none" stroke="black" points="266,-19 266,-38 310,-38 310,-19 266,-19"/>
<text text-anchor="start" x="269" y="-25.4" font-family="Fira Code" font-size="12.00">token</text>
<polygon fill="none" stroke="black" points="222,0 222,-19 266,-19 266,0 222,0"/>
<text text-anchor="start" x="225" y="-6.4" font-family="Fira Code" font-size="12.00">value</text>
<polygon fill="none" stroke="black" points="266,0 266,-19 310,-19 310,0 266,0"/>
<text text-anchor="start" x="284" y="-6.4" font-family="Fira Code" font-size="12.00">2</text>
</g>
<!-- N14&#45;&gt;N16 -->
<g id="edge19" class="edge">
<title>N14&#45;&gt;N16</title>
<path fill="none" stroke="black" d="M269.94,-55.85C269.38,-50.74 268.67,-44.29 268.01,-38.27"/>
</g>
<!-- N17 -->
<g id="node17" class="node">
<title>N17</title>
<polygon fill="none" stroke="black" points="328,-19 328,-38 372,-38 372,-19 328,-19"/>
<text text-anchor="start" x="334.5" y="-25.4" font-family="Fira Code" font-size="12.00">type</text>
<polygon fill="none" stroke="black" points="372,-19 372,-38 416,-38 416,-19 372,-19"/>
<text text-anchor="start" x="375" y="-25.4" font-family="Fira Code" font-size="12.00">token</text>
<polygon fill="none" stroke="black" points="328,0 328,-19 372,-19 372,0 328,0"/>
<text text-anchor="start" x="331" y="-6.4" font-family="Fira Code" font-size="12.00">value</text>
<polygon fill="none" stroke="black" points="372,0 372,-19 416,-19 416,0 372,0"/>
<text text-anchor="start" x="378.5" y="-6.4" font-family="Fira Code" font-size="12.00">None</text>
</g>
<!-- N15&#45;&gt;N17 -->
<g id="edge20" class="edge">
<title>N15&#45;&gt;N17</title>
<path fill="none" stroke="black" d="M340.48,-55.85C344.98,-50.74 350.65,-44.29 355.94,-38.27"/>
</g>
</g>
</svg>
