<?xml version="1.0" encoding="UTF-8" standalone="no"?>
<!DOCTYPE svg PUBLIC "-//W3C//DTD SVG 1.1//EN"
 "http://www.w3.org/Graphics/SVG/1.1/DTD/svg11.dtd">
<!-- Generated by graphviz version 2.40.1 (20161225.0304)
 -->
<!-- Title: %3 Pages: 1 -->
<svg width="477pt" height="86pt"
 viewBox="0.00 0.00 477.35 86.00" xmlns="http://www.w3.org/2000/svg" xmlns:xlink="http://www.w3.org/1999/xlink">
<g id="graph0" class="graph" transform="scale(1 1) rotate(0) translate(4 82)">
<title>%3</title>
<polygon fill="#ffffff" stroke="transparent" points="-4,4 -4,-82 473.3482,-82 473.3482,4 -4,4"/>
<!-- 4578288728 -->
<g id="node1" class="node">
<title>4578288728</title>
</g>
<!-- 9092243235136336477 -->
<g id="node2" class="node">
<title>9092243235136336477</title>
<ellipse fill="none" stroke="#000000" cx="124.4332" cy="-18" rx="33.3665" ry="18"/>
<text text-anchor="middle" x="124.4332" y="-13.8" font-family="Times,serif" font-size="14.00" fill="#000000">node a</text>
</g>
<!-- 4578288728&#45;&gt;9092243235136336477 -->
<g id="edge1" class="edge">
<title>4578288728&#45;&gt;9092243235136336477</title>
<path fill="none" stroke="#000000" d="M54.1406,-18C62.4047,-18 71.7068,-18 80.7728,-18"/>
<polygon fill="#000000" stroke="#000000" points="80.8404,-21.5001 90.8404,-18 80.8404,-14.5001 80.8404,-21.5001"/>
</g>
<!-- 1922009898377855521 -->
<g id="node3" class="node">
<title>1922009898377855521</title>
<ellipse fill="none" stroke="#000000" cx="278.4241" cy="-56" rx="33.8671" ry="18"/>
<ellipse fill="none" stroke="#000000" cx="278.4241" cy="-56" rx="37.8597" ry="22"/>
<text text-anchor="middle" x="278.4241" y="-51.8" font-family="Times,serif" font-size="14.00" fill="#000000">node b</text>
</g>
<!-- 9092243235136336477&#45;&gt;1922009898377855521 -->
<g id="edge2" class="edge">
<title>9092243235136336477&#45;&gt;1922009898377855521</title>
<path fill="none" stroke="#000000" d="M154.8568,-25.5076C177.3744,-31.0642 208.4044,-38.7214 233.7356,-44.9723"/>
<polygon fill="#000000" stroke="#000000" points="232.9414,-48.3812 243.4887,-47.3791 234.6185,-41.5851 232.9414,-48.3812"/>
<text text-anchor="middle" x="199.1803" y="-43.8" font-family="Times,serif" font-size="14.00" fill="#000000">arc (a,b)</text>
</g>
<!-- 7324779742177162445 -->
<g id="node4" class="node">
<title>7324779742177162445</title>
<ellipse fill="none" stroke="#000000" cx="435.915" cy="-18" rx="33.3665" ry="18"/>
<text text-anchor="middle" x="435.915" y="-13.8" font-family="Times,serif" font-size="14.00" fill="#000000">node c</text>
</g>
<!-- 9092243235136336477&#45;&gt;7324779742177162445 -->
<g id="edge3" class="edge">
<title>9092243235136336477&#45;&gt;7324779742177162445</title>
<path fill="none" stroke="#000000" d="M157.678,-15.4618C180.8707,-13.8218 212.5492,-11.842 240.4943,-11 274.1944,-9.9846 282.6529,-10.0143 316.3538,-11 341.6768,-11.7407 369.978,-13.3619 392.6865,-14.8578"/>
<polygon fill="#000000" stroke="#000000" points="392.4829,-18.3519 402.6957,-15.5326 392.9539,-11.3678 392.4829,-18.3519"/>
<text text-anchor="middle" x="278.4241" y="-13.8" font-family="Times,serif" font-size="14.00" fill="#000000">arc (a,c)</text>
</g>
<!-- 1922009898377855521&#45;&gt;7324779742177162445 -->
<g id="edge4" class="edge">
<title>1922009898377855521&#45;&gt;7324779742177162445</title>
<path fill="none" stroke="#000000" d="M313.7681,-47.4721C337.9198,-41.6447 369.9928,-33.906 395.2128,-27.8208"/>
<polygon fill="#000000" stroke="#000000" points="396.3081,-31.157 405.2082,-25.409 394.6662,-24.3523 396.3081,-31.157"/>
<text text-anchor="middle" x="359.4178" y="-43.8" font-family="Times,serif" font-size="14.00" fill="#000000">arc (b, c)</text>
</g>
</g>
</svg>
