<svg width="76pt" height="124pt" viewBox="0.00 0.00 76.21 124.00" xmlns="http://www.w3.org/2000/svg" xmlns:xlink="http://www.w3.org/1999/xlink" style="width: 100%; height: 100%;">
<g id="graph0" class="graph" transform="scale(1 1) rotate(0) translate(4 120)">
<title>%3</title>
<polygon fill="#ffffff" stroke="transparent" points="-4,4 -4,-120 72.2104,-120 72.2104,4 -4,4"></polygon>
<!-- 4558707904 -->
<g id="node1" class="node">
<title>4558707904</title>
<polygon fill="none" stroke="#000000" points="25.7104,-98 25.7104,-116 48.7104,-116 48.7104,-98 25.7104,-98"></polygon>
<text text-anchor="start" x="28.5415" y="-103.4" font-family="Times,serif" font-size="12.00" fill="#000000">this</text>
<polygon fill="none" stroke="#000000" points="48.7104,-98 48.7104,-116 62.7104,-116 62.7104,-98 48.7104,-98"></polygon>
<text text-anchor="start" x="51.7085" y="-103.4" font-family="Times,serif" font-size="12.00" fill="#000000">is</text>
<polygon fill="none" stroke="#000000" points="25.7104,-80 25.7104,-98 48.7104,-98 48.7104,-80 25.7104,-80"></polygon>
<text text-anchor="start" x="31.5474" y="-85.4" font-family="Times,serif" font-size="12.00" fill="#000000">an</text>
<polygon fill="none" stroke="#000000" points="48.7104,-80 48.7104,-98 62.7104,-98 62.7104,-80 48.7104,-80"></polygon>
<text text-anchor="start" x="52.7104" y="-85.4" font-family="Times,serif" font-size="12.00" fill="#000000">2</text>
</g>
<!-- 4558707960 -->
<g id="node2" class="node">
<title>4558707960</title>
<path fill="none" stroke="#000000" stroke-width=".25" d="M30.2104,-62C30.2104,-62 25.2104,-62 25.2104,-62 22.7104,-62 20.2104,-59.5 20.2104,-57 20.2104,-57 20.2104,-45 20.2104,-45 20.2104,-42.5 22.7104,-40 25.2104,-40 25.2104,-40 30.2104,-40 30.2104,-40 32.7104,-40 35.2104,-42.5 35.2104,-45 35.2104,-45 35.2104,-57 35.2104,-57 35.2104,-59.5 32.7104,-62 30.2104,-62"></path>
<text text-anchor="middle" x="27.7104" y="-46.8" font-family="Times,serif" font-size="14.00" fill="#000000">3</text>
</g>
<!-- 4558707904&#45;&gt;4558707960 -->
<g id="edge1" class="edge">
<title>4558707904-&gt;4558707960</title>
<path fill="none" stroke="#000000" d="M37.5702,-79.963C35.5257,-73.9572 33.3096,-67.4474 31.4972,-62.1235"></path>
</g>
<!-- 4558708184 -->
<g id="node3" class="node">
<title>4558708184</title>
<path fill="none" stroke="#000000" stroke-width=".25" d="M63.2104,-62C63.2104,-62 58.2104,-62 58.2104,-62 55.7104,-62 53.2104,-59.5 53.2104,-57 53.2104,-57 53.2104,-45 53.2104,-45 53.2104,-42.5 55.7104,-40 58.2104,-40 58.2104,-40 63.2104,-40 63.2104,-40 65.7104,-40 68.2104,-42.5 68.2104,-45 68.2104,-45 68.2104,-57 68.2104,-57 68.2104,-59.5 65.7104,-62 63.2104,-62"></path>
<text text-anchor="middle" x="60.7104" y="-46.8" font-family="Times,serif" font-size="14.00" fill="#000000">5</text>
</g>
<!-- 4558707904&#45;&gt;4558708184 -->
<g id="edge2" class="edge">
<title>4558707904-&gt;4558708184</title>
<path fill="none" stroke="#000000" d="M50.2345,-79.963C52.4068,-73.9572 54.7614,-67.4474 56.6871,-62.1235"></path>
</g>
<!-- 4558707960&#45;&gt;4558708184 -->
<!-- 4558708128 -->
<g id="node4" class="node">
<title>4558708128</title>
<path fill="none" stroke="#000000" stroke-width=".25" d="M48.2996,-22C48.2996,-22 7.1213,-22 7.1213,-22 3.4546,-22 -.2121,-18.3333 -.2121,-14.6667 -.2121,-14.6667 -.2121,-7.3333 -.2121,-7.3333 -.2121,-3.6667 3.4546,0 7.1213,0 7.1213,0 48.2996,0 48.2996,0 51.9663,0 55.633,-3.6667 55.633,-7.3333 55.633,-7.3333 55.633,-14.6667 55.633,-14.6667 55.633,-18.3333 51.9663,-22 48.2996,-22"></path>
<text text-anchor="middle" x="27.7104" y="-6.8" font-family="Times,serif" font-size="14.00" fill="#000000">example</text>
</g>
<!-- 4558707960&#45;&gt;4558708128 -->
<g id="edge4" class="edge">
<title>4558707960-&gt;4558708128</title>
<path fill="none" stroke="#000000" d="M27.7104,-39.6446C27.7104,-34.1937 27.7104,-27.6819 27.7104,-22.2453"></path>
</g>
</g>
</svg>